G04 #@! TF.GenerationSoftware,KiCad,Pcbnew,5.1.6-c6e7f7d~87~ubuntu20.04.1*
G04 #@! TF.CreationDate,2020-08-06T14:28:34-04:00*
G04 #@! TF.ProjectId,Onboard_Gateway,4f6e626f-6172-4645-9f47-617465776179,Leonardo Ward*
G04 #@! TF.SameCoordinates,Original*
G04 #@! TF.FileFunction,Copper,L1,Top*
G04 #@! TF.FilePolarity,Positive*
%FSLAX46Y46*%
G04 Gerber Fmt 4.6, Leading zero omitted, Abs format (unit mm)*
G04 Created by KiCad (PCBNEW 5.1.6-c6e7f7d~87~ubuntu20.04.1) date 2020-08-06 14:28:34*
%MOMM*%
%LPD*%
G01*
G04 APERTURE LIST*
G04 #@! TA.AperFunction,ComponentPad*
%ADD10C,0.100000*%
G04 #@! TD*
G04 #@! TA.AperFunction,ComponentPad*
%ADD11C,1.524000*%
G04 #@! TD*
G04 #@! TA.AperFunction,ComponentPad*
%ADD12C,4.064000*%
G04 #@! TD*
G04 #@! TA.AperFunction,ComponentPad*
%ADD13R,1.700000X1.700000*%
G04 #@! TD*
G04 #@! TA.AperFunction,ComponentPad*
%ADD14O,1.700000X1.700000*%
G04 #@! TD*
G04 #@! TA.AperFunction,ComponentPad*
%ADD15R,3.000000X3.000000*%
G04 #@! TD*
G04 #@! TA.AperFunction,ComponentPad*
%ADD16C,3.000000*%
G04 #@! TD*
G04 #@! TA.AperFunction,ComponentPad*
%ADD17R,1.560000X1.560000*%
G04 #@! TD*
G04 #@! TA.AperFunction,ComponentPad*
%ADD18C,1.560000*%
G04 #@! TD*
G04 #@! TA.AperFunction,ComponentPad*
%ADD19O,2.000000X1.700000*%
G04 #@! TD*
G04 #@! TA.AperFunction,ComponentPad*
%ADD20O,1.600000X1.600000*%
G04 #@! TD*
G04 #@! TA.AperFunction,ComponentPad*
%ADD21C,1.600000*%
G04 #@! TD*
G04 #@! TA.AperFunction,ViaPad*
%ADD22C,0.800000*%
G04 #@! TD*
G04 #@! TA.AperFunction,Conductor*
%ADD23C,0.800000*%
G04 #@! TD*
G04 #@! TA.AperFunction,Conductor*
%ADD24C,0.254000*%
G04 #@! TD*
G04 APERTURE END LIST*
G04 #@! TA.AperFunction,ComponentPad*
D10*
G36*
X133969809Y-91194247D02*
G01*
X134043151Y-91208836D01*
X134114710Y-91230543D01*
X134183797Y-91259160D01*
X134249746Y-91294411D01*
X134311923Y-91335956D01*
X134369728Y-91383395D01*
X134422605Y-91436272D01*
X134470044Y-91494077D01*
X134511589Y-91556254D01*
X134546840Y-91622203D01*
X134575457Y-91691290D01*
X134597164Y-91762849D01*
X134611753Y-91836191D01*
X134619082Y-91910610D01*
X134619082Y-91985390D01*
X134611753Y-92059809D01*
X134597164Y-92133151D01*
X134575457Y-92204710D01*
X134546840Y-92273797D01*
X134511589Y-92339746D01*
X134470044Y-92401923D01*
X134422605Y-92459728D01*
X134369728Y-92512605D01*
X134311923Y-92560044D01*
X134249746Y-92601589D01*
X134183797Y-92636840D01*
X134114710Y-92665457D01*
X134043151Y-92687164D01*
X133969809Y-92701753D01*
X133895390Y-92709082D01*
X133820610Y-92709082D01*
X133746191Y-92701753D01*
X133672849Y-92687164D01*
X133601290Y-92665457D01*
X133532203Y-92636840D01*
X133466254Y-92601589D01*
X133404077Y-92560044D01*
X133346272Y-92512605D01*
X133293395Y-92459728D01*
X133245956Y-92401923D01*
X133204411Y-92339746D01*
X133169160Y-92273797D01*
X133140543Y-92204710D01*
X133118836Y-92133151D01*
X133104247Y-92059809D01*
X133096918Y-91985390D01*
X133096918Y-91910610D01*
X133104247Y-91836191D01*
X133118836Y-91762849D01*
X133140543Y-91691290D01*
X133169160Y-91622203D01*
X133204411Y-91556254D01*
X133245956Y-91494077D01*
X133293395Y-91436272D01*
X133346272Y-91383395D01*
X133404077Y-91335956D01*
X133466254Y-91294411D01*
X133532203Y-91259160D01*
X133601290Y-91230543D01*
X133672849Y-91208836D01*
X133746191Y-91194247D01*
X133820610Y-91186918D01*
X133895390Y-91186918D01*
X133969809Y-91194247D01*
G37*
G04 #@! TD.AperFunction*
G04 #@! TA.AperFunction,ComponentPad*
G36*
X136509809Y-91194247D02*
G01*
X136583151Y-91208836D01*
X136654710Y-91230543D01*
X136723797Y-91259160D01*
X136789746Y-91294411D01*
X136851923Y-91335956D01*
X136909728Y-91383395D01*
X136962605Y-91436272D01*
X137010044Y-91494077D01*
X137051589Y-91556254D01*
X137086840Y-91622203D01*
X137115457Y-91691290D01*
X137137164Y-91762849D01*
X137151753Y-91836191D01*
X137159082Y-91910610D01*
X137159082Y-91985390D01*
X137151753Y-92059809D01*
X137137164Y-92133151D01*
X137115457Y-92204710D01*
X137086840Y-92273797D01*
X137051589Y-92339746D01*
X137010044Y-92401923D01*
X136962605Y-92459728D01*
X136909728Y-92512605D01*
X136851923Y-92560044D01*
X136789746Y-92601589D01*
X136723797Y-92636840D01*
X136654710Y-92665457D01*
X136583151Y-92687164D01*
X136509809Y-92701753D01*
X136435390Y-92709082D01*
X136360610Y-92709082D01*
X136286191Y-92701753D01*
X136212849Y-92687164D01*
X136141290Y-92665457D01*
X136072203Y-92636840D01*
X136006254Y-92601589D01*
X135944077Y-92560044D01*
X135886272Y-92512605D01*
X135833395Y-92459728D01*
X135785956Y-92401923D01*
X135744411Y-92339746D01*
X135709160Y-92273797D01*
X135680543Y-92204710D01*
X135658836Y-92133151D01*
X135644247Y-92059809D01*
X135636918Y-91985390D01*
X135636918Y-91910610D01*
X135644247Y-91836191D01*
X135658836Y-91762849D01*
X135680543Y-91691290D01*
X135709160Y-91622203D01*
X135744411Y-91556254D01*
X135785956Y-91494077D01*
X135833395Y-91436272D01*
X135886272Y-91383395D01*
X135944077Y-91335956D01*
X136006254Y-91294411D01*
X136072203Y-91259160D01*
X136141290Y-91230543D01*
X136212849Y-91208836D01*
X136286191Y-91194247D01*
X136360610Y-91186918D01*
X136435390Y-91186918D01*
X136509809Y-91194247D01*
G37*
G04 #@! TD.AperFunction*
D11*
X140208000Y-99314000D03*
X140208000Y-101854000D03*
X140208000Y-104394000D03*
X140208000Y-106934000D03*
X140208000Y-109474000D03*
X140208000Y-112014000D03*
D12*
X112014000Y-91948000D03*
X112014000Y-120904000D03*
X140970000Y-120904000D03*
X140970000Y-91948000D03*
D11*
X193040000Y-101600000D03*
X193040000Y-104140000D03*
X193040000Y-106680000D03*
X193040000Y-109220000D03*
X193040000Y-111760000D03*
X193040000Y-114300000D03*
X193040000Y-116840000D03*
X193040000Y-119380000D03*
X193040000Y-121920000D03*
X218440000Y-111760000D03*
X218440000Y-109220000D03*
X218440000Y-106680000D03*
X218440000Y-104140000D03*
X218440000Y-101600000D03*
D13*
X127508000Y-81280000D03*
D14*
X130048000Y-81280000D03*
D13*
X127508000Y-77470000D03*
D14*
X130048000Y-77470000D03*
D13*
X149860000Y-116332000D03*
D14*
X149860000Y-118872000D03*
X149860000Y-121412000D03*
D15*
X113284000Y-73152000D03*
D16*
X113284000Y-68072000D03*
D17*
X155448000Y-76760000D03*
D18*
X155448000Y-79300000D03*
X155448000Y-122480000D03*
X155448000Y-81840000D03*
X155448000Y-84380000D03*
X155448000Y-86920000D03*
X155448000Y-89460000D03*
X155448000Y-92000000D03*
X155448000Y-94540000D03*
X155448000Y-97080000D03*
X155448000Y-99620000D03*
X155448000Y-102160000D03*
X155448000Y-104700000D03*
X155448000Y-107240000D03*
X155448000Y-109780000D03*
X155448000Y-112320000D03*
X155448000Y-114860000D03*
X155448000Y-117400000D03*
X155448000Y-119940000D03*
X180848000Y-76760000D03*
X180848000Y-79300000D03*
X180848000Y-81840000D03*
X180848000Y-84380000D03*
X180848000Y-86920000D03*
X180848000Y-89460000D03*
X180848000Y-92000000D03*
X180848000Y-94540000D03*
X180848000Y-97080000D03*
X180848000Y-99620000D03*
X180848000Y-102160000D03*
X180848000Y-104700000D03*
X180848000Y-107240000D03*
X180848000Y-109780000D03*
X180848000Y-112320000D03*
X180848000Y-114860000D03*
X180848000Y-117400000D03*
X180848000Y-119940000D03*
X180848000Y-122480000D03*
G04 #@! TA.AperFunction,ComponentPad*
G36*
G01*
X117106000Y-80430000D02*
X118606000Y-80430000D01*
G75*
G02*
X118856000Y-80680000I0J-250000D01*
G01*
X118856000Y-81880000D01*
G75*
G02*
X118606000Y-82130000I-250000J0D01*
G01*
X117106000Y-82130000D01*
G75*
G02*
X116856000Y-81880000I0J250000D01*
G01*
X116856000Y-80680000D01*
G75*
G02*
X117106000Y-80430000I250000J0D01*
G01*
G37*
G04 #@! TD.AperFunction*
D19*
X117856000Y-83780000D03*
D15*
X138684000Y-69596000D03*
D16*
X143764000Y-69596000D03*
D20*
X144780000Y-79756000D03*
D21*
X134620000Y-79756000D03*
X134620000Y-82804000D03*
D20*
X144780000Y-82804000D03*
D13*
X149783800Y-69113400D03*
D14*
X149783800Y-71653400D03*
X149783800Y-74193400D03*
X149783800Y-76733400D03*
X149783800Y-79273400D03*
X149783800Y-81813400D03*
X149783800Y-84353400D03*
X149783800Y-86893400D03*
X149783800Y-89433400D03*
X149783800Y-91973400D03*
X149783800Y-94513400D03*
X149783800Y-97053400D03*
X149783800Y-99593400D03*
X149783800Y-102133400D03*
X149783800Y-104673400D03*
X149783800Y-107213400D03*
D13*
X193040000Y-68072000D03*
D14*
X193040000Y-70612000D03*
X193040000Y-73152000D03*
X193040000Y-75692000D03*
X193040000Y-78232000D03*
X193040000Y-80772000D03*
X193040000Y-83312000D03*
X193040000Y-85852000D03*
X193040000Y-88392000D03*
X193040000Y-90932000D03*
X193040000Y-93472000D03*
X193040000Y-96012000D03*
D13*
X217424000Y-80772000D03*
D14*
X214884000Y-80772000D03*
X214884000Y-85852000D03*
D13*
X217424000Y-85852000D03*
X217424000Y-96012000D03*
D14*
X214884000Y-96012000D03*
X214884000Y-90932000D03*
D13*
X217424000Y-90932000D03*
D20*
X198120000Y-80772000D03*
D21*
X208280000Y-80772000D03*
X208280000Y-85852000D03*
D20*
X198120000Y-85852000D03*
D21*
X208280000Y-96012000D03*
D20*
X198120000Y-96012000D03*
X198120000Y-90932000D03*
D21*
X208280000Y-90932000D03*
D22*
X187960000Y-108204000D03*
X187960000Y-94996000D03*
X189484000Y-108204000D03*
X189484000Y-104140000D03*
X183388000Y-73660000D03*
X184404000Y-76708000D03*
X176123600Y-119837200D03*
D23*
X143002000Y-82804000D02*
X144780000Y-82804000D01*
X133858000Y-91948000D02*
X143002000Y-82804000D01*
X133858000Y-90678000D02*
X144780000Y-79756000D01*
X133858000Y-91948000D02*
X133858000Y-90678000D01*
X133858000Y-91948000D02*
X133096000Y-91186000D01*
X133096000Y-91186000D02*
X133096000Y-89408000D01*
X133096000Y-89408000D02*
X143764000Y-78740000D01*
X143764000Y-78740000D02*
X143764000Y-69596000D01*
X116056000Y-83780000D02*
X117856000Y-83780000D01*
X111183999Y-70172001D02*
X111183999Y-78907999D01*
X111183999Y-78907999D02*
X116056000Y-83780000D01*
X113284000Y-68072000D02*
X111183999Y-70172001D01*
X113284000Y-76708000D02*
X117856000Y-81280000D01*
X113284000Y-73152000D02*
X113284000Y-76708000D01*
X127508000Y-91694000D02*
X127508000Y-81280000D01*
X140208000Y-104394000D02*
X127508000Y-91694000D01*
X133096000Y-81280000D02*
X134620000Y-82804000D01*
X130048000Y-81280000D02*
X133096000Y-81280000D01*
X140208000Y-106934000D02*
X125476000Y-92202000D01*
X125476000Y-79502000D02*
X127508000Y-77470000D01*
X125476000Y-92202000D02*
X125476000Y-79502000D01*
X132334000Y-77470000D02*
X134620000Y-79756000D01*
X130048000Y-77470000D02*
X132334000Y-77470000D01*
X145542000Y-112014000D02*
X149860000Y-116332000D01*
X140208000Y-112014000D02*
X145542000Y-112014000D01*
X194402001Y-102962001D02*
X193040000Y-101600000D01*
X194402001Y-122573761D02*
X194402001Y-102962001D01*
X193115761Y-123860001D02*
X194402001Y-122573761D01*
X150161999Y-123860001D02*
X193115761Y-123860001D01*
X140208000Y-113906002D02*
X150161999Y-123860001D01*
X140208000Y-112014000D02*
X140208000Y-113906002D01*
X140208000Y-112014000D02*
X138176000Y-114046000D01*
X138176000Y-114808000D02*
X148336000Y-124968000D01*
X138176000Y-114046000D02*
X138176000Y-114808000D01*
X148336000Y-124968000D02*
X194056000Y-124968000D01*
X194056000Y-124968000D02*
X196088000Y-122936000D01*
X196088000Y-99060000D02*
X193040000Y-96012000D01*
X196088000Y-122936000D02*
X196088000Y-99060000D01*
X140208000Y-112014000D02*
X142519400Y-109702600D01*
X147294600Y-109702600D02*
X149783800Y-107213400D01*
X142519400Y-109702600D02*
X147294600Y-109702600D01*
X187960000Y-111760000D02*
X187960000Y-108204000D01*
X193040000Y-116840000D02*
X187960000Y-111760000D01*
X187960000Y-86412000D02*
X180848000Y-79300000D01*
X187960000Y-94996000D02*
X187960000Y-86412000D01*
X189484000Y-110744000D02*
X189484000Y-108204000D01*
X193040000Y-114300000D02*
X189484000Y-110744000D01*
X189484000Y-103176000D02*
X180848000Y-94540000D01*
X189484000Y-104140000D02*
X189484000Y-103176000D01*
X191677999Y-110397999D02*
X191677999Y-107909999D01*
X191677999Y-107909999D02*
X180848000Y-97080000D01*
X193040000Y-111760000D02*
X191677999Y-110397999D01*
X187908000Y-119380000D02*
X180848000Y-112320000D01*
X193040000Y-119380000D02*
X187908000Y-119380000D01*
X191677999Y-100289999D02*
X180848000Y-89460000D01*
X191677999Y-105317999D02*
X191677999Y-100289999D01*
X193040000Y-106680000D02*
X191677999Y-105317999D01*
X187908000Y-121920000D02*
X180848000Y-114860000D01*
X193040000Y-121920000D02*
X187908000Y-121920000D01*
X153468000Y-122480000D02*
X149860000Y-118872000D01*
X155448000Y-122480000D02*
X153468000Y-122480000D01*
X151233801Y-73103401D02*
X149783800Y-71653400D01*
X151233801Y-77625801D02*
X151233801Y-73103401D01*
X155448000Y-81840000D02*
X151233801Y-77625801D01*
X153233821Y-85263421D02*
X149783800Y-81813400D01*
X153233821Y-89785821D02*
X153233821Y-85263421D01*
X155448000Y-92000000D02*
X153233821Y-89785821D01*
X152233811Y-86803411D02*
X149783800Y-84353400D01*
X152233811Y-91325811D02*
X152233811Y-86803411D01*
X155448000Y-94540000D02*
X152233811Y-91325811D01*
X151233801Y-88343401D02*
X149783800Y-86893400D01*
X151233801Y-92865801D02*
X151233801Y-88343401D01*
X155448000Y-97080000D02*
X151233801Y-92865801D01*
X149783800Y-97447398D02*
X153310021Y-100973619D01*
X149783800Y-97053400D02*
X149783800Y-97447398D01*
X153310021Y-105102021D02*
X155448000Y-107240000D01*
X153310021Y-100973619D02*
X153310021Y-105102021D01*
X198120000Y-75692000D02*
X198120000Y-80772000D01*
X193040000Y-70612000D02*
X198120000Y-75692000D01*
X179467999Y-76097599D02*
X180185599Y-75379999D01*
X179467999Y-98239999D02*
X179467999Y-76097599D01*
X180848000Y-99620000D02*
X179467999Y-98239999D01*
X190187999Y-75379999D02*
X193040000Y-78232000D01*
X180185599Y-75379999D02*
X190187999Y-75379999D01*
X198120000Y-83312000D02*
X198120000Y-85852000D01*
X193040000Y-78232000D02*
X198120000Y-83312000D01*
X178467989Y-75683382D02*
X180491371Y-73660000D01*
X178467989Y-99779989D02*
X178467989Y-75683382D01*
X180848000Y-102160000D02*
X178467989Y-99779989D01*
X180491371Y-73660000D02*
X183388000Y-73660000D01*
X188468000Y-80772000D02*
X193040000Y-80772000D01*
X184404000Y-76708000D02*
X188468000Y-80772000D01*
X198120000Y-88785998D02*
X198120000Y-90932000D01*
X193040000Y-83705998D02*
X198120000Y-88785998D01*
X193040000Y-83312000D02*
X193040000Y-83705998D01*
X208280000Y-80772000D02*
X214884000Y-80772000D01*
X208280000Y-85852000D02*
X214884000Y-85852000D01*
X208280000Y-96012000D02*
X214884000Y-96012000D01*
X208280000Y-90932000D02*
X214884000Y-90932000D01*
X152310011Y-111722011D02*
X155448000Y-114860000D01*
X152310011Y-102119611D02*
X152310011Y-111722011D01*
X149783800Y-99593400D02*
X152310011Y-102119611D01*
X151310001Y-113262001D02*
X155448000Y-117400000D01*
X151310001Y-103659601D02*
X151310001Y-113262001D01*
X149783800Y-102133400D02*
X151310001Y-103659601D01*
X168606400Y-112320000D02*
X155448000Y-112320000D01*
X176123600Y-119837200D02*
X168606400Y-112320000D01*
D24*
G36*
X229972001Y-125832000D02*
G01*
X194634691Y-125832000D01*
X194791396Y-125703396D01*
X194823807Y-125663903D01*
X196783908Y-123703803D01*
X196823396Y-123671396D01*
X196905789Y-123571000D01*
X196952734Y-123513798D01*
X197023175Y-123382010D01*
X197048841Y-123333993D01*
X197108024Y-123138895D01*
X197123000Y-122986838D01*
X197123000Y-122986836D01*
X197128007Y-122936000D01*
X197123000Y-122885165D01*
X197123000Y-121191872D01*
X223317000Y-121191872D01*
X223317000Y-121632128D01*
X223402890Y-122063925D01*
X223571369Y-122470669D01*
X223815962Y-122836729D01*
X224127271Y-123148038D01*
X224493331Y-123392631D01*
X224900075Y-123561110D01*
X225331872Y-123647000D01*
X225772128Y-123647000D01*
X226203925Y-123561110D01*
X226610669Y-123392631D01*
X226976729Y-123148038D01*
X227288038Y-122836729D01*
X227532631Y-122470669D01*
X227701110Y-122063925D01*
X227787000Y-121632128D01*
X227787000Y-121191872D01*
X227701110Y-120760075D01*
X227532631Y-120353331D01*
X227288038Y-119987271D01*
X226976729Y-119675962D01*
X226610669Y-119431369D01*
X226203925Y-119262890D01*
X225772128Y-119177000D01*
X225331872Y-119177000D01*
X224900075Y-119262890D01*
X224493331Y-119431369D01*
X224127271Y-119675962D01*
X223815962Y-119987271D01*
X223571369Y-120353331D01*
X223402890Y-120760075D01*
X223317000Y-121191872D01*
X197123000Y-121191872D01*
X197123000Y-101462408D01*
X217043000Y-101462408D01*
X217043000Y-101737592D01*
X217096686Y-102007490D01*
X217201995Y-102261727D01*
X217354880Y-102490535D01*
X217549465Y-102685120D01*
X217778273Y-102838005D01*
X217855515Y-102870000D01*
X217778273Y-102901995D01*
X217549465Y-103054880D01*
X217354880Y-103249465D01*
X217201995Y-103478273D01*
X217096686Y-103732510D01*
X217043000Y-104002408D01*
X217043000Y-104277592D01*
X217096686Y-104547490D01*
X217201995Y-104801727D01*
X217354880Y-105030535D01*
X217549465Y-105225120D01*
X217778273Y-105378005D01*
X217855515Y-105410000D01*
X217778273Y-105441995D01*
X217549465Y-105594880D01*
X217354880Y-105789465D01*
X217201995Y-106018273D01*
X217096686Y-106272510D01*
X217043000Y-106542408D01*
X217043000Y-106817592D01*
X217096686Y-107087490D01*
X217201995Y-107341727D01*
X217354880Y-107570535D01*
X217549465Y-107765120D01*
X217778273Y-107918005D01*
X217855515Y-107950000D01*
X217778273Y-107981995D01*
X217549465Y-108134880D01*
X217354880Y-108329465D01*
X217201995Y-108558273D01*
X217096686Y-108812510D01*
X217043000Y-109082408D01*
X217043000Y-109357592D01*
X217096686Y-109627490D01*
X217201995Y-109881727D01*
X217354880Y-110110535D01*
X217549465Y-110305120D01*
X217778273Y-110458005D01*
X217855515Y-110490000D01*
X217778273Y-110521995D01*
X217549465Y-110674880D01*
X217354880Y-110869465D01*
X217201995Y-111098273D01*
X217096686Y-111352510D01*
X217043000Y-111622408D01*
X217043000Y-111897592D01*
X217096686Y-112167490D01*
X217201995Y-112421727D01*
X217354880Y-112650535D01*
X217549465Y-112845120D01*
X217778273Y-112998005D01*
X218032510Y-113103314D01*
X218302408Y-113157000D01*
X218577592Y-113157000D01*
X218847490Y-113103314D01*
X219101727Y-112998005D01*
X219330535Y-112845120D01*
X219525120Y-112650535D01*
X219678005Y-112421727D01*
X219783314Y-112167490D01*
X219837000Y-111897592D01*
X219837000Y-111622408D01*
X219783314Y-111352510D01*
X219678005Y-111098273D01*
X219525120Y-110869465D01*
X219330535Y-110674880D01*
X219101727Y-110521995D01*
X219024485Y-110490000D01*
X219101727Y-110458005D01*
X219330535Y-110305120D01*
X219525120Y-110110535D01*
X219678005Y-109881727D01*
X219783314Y-109627490D01*
X219837000Y-109357592D01*
X219837000Y-109082408D01*
X219783314Y-108812510D01*
X219678005Y-108558273D01*
X219525120Y-108329465D01*
X219330535Y-108134880D01*
X219101727Y-107981995D01*
X219024485Y-107950000D01*
X219101727Y-107918005D01*
X219330535Y-107765120D01*
X219525120Y-107570535D01*
X219678005Y-107341727D01*
X219783314Y-107087490D01*
X219837000Y-106817592D01*
X219837000Y-106542408D01*
X219783314Y-106272510D01*
X219678005Y-106018273D01*
X219525120Y-105789465D01*
X219330535Y-105594880D01*
X219101727Y-105441995D01*
X219024485Y-105410000D01*
X219101727Y-105378005D01*
X219330535Y-105225120D01*
X219525120Y-105030535D01*
X219678005Y-104801727D01*
X219783314Y-104547490D01*
X219837000Y-104277592D01*
X219837000Y-104002408D01*
X219783314Y-103732510D01*
X219678005Y-103478273D01*
X219525120Y-103249465D01*
X219330535Y-103054880D01*
X219101727Y-102901995D01*
X219024485Y-102870000D01*
X219101727Y-102838005D01*
X219330535Y-102685120D01*
X219525120Y-102490535D01*
X219678005Y-102261727D01*
X219783314Y-102007490D01*
X219837000Y-101737592D01*
X219837000Y-101462408D01*
X219783314Y-101192510D01*
X219678005Y-100938273D01*
X219525120Y-100709465D01*
X219330535Y-100514880D01*
X219101727Y-100361995D01*
X218847490Y-100256686D01*
X218577592Y-100203000D01*
X218302408Y-100203000D01*
X218032510Y-100256686D01*
X217778273Y-100361995D01*
X217549465Y-100514880D01*
X217354880Y-100709465D01*
X217201995Y-100938273D01*
X217096686Y-101192510D01*
X217043000Y-101462408D01*
X197123000Y-101462408D01*
X197123000Y-99110835D01*
X197128007Y-99060000D01*
X197115785Y-98935906D01*
X197108024Y-98857105D01*
X197048841Y-98662007D01*
X196982772Y-98538400D01*
X196952734Y-98482202D01*
X196855803Y-98364092D01*
X196823396Y-98324604D01*
X196783908Y-98292197D01*
X194525000Y-96033290D01*
X194525000Y-95870665D01*
X196685000Y-95870665D01*
X196685000Y-96153335D01*
X196740147Y-96430574D01*
X196848320Y-96691727D01*
X197005363Y-96926759D01*
X197205241Y-97126637D01*
X197440273Y-97283680D01*
X197701426Y-97391853D01*
X197978665Y-97447000D01*
X198261335Y-97447000D01*
X198538574Y-97391853D01*
X198799727Y-97283680D01*
X199034759Y-97126637D01*
X199234637Y-96926759D01*
X199391680Y-96691727D01*
X199499853Y-96430574D01*
X199555000Y-96153335D01*
X199555000Y-95870665D01*
X206845000Y-95870665D01*
X206845000Y-96153335D01*
X206900147Y-96430574D01*
X207008320Y-96691727D01*
X207165363Y-96926759D01*
X207365241Y-97126637D01*
X207600273Y-97283680D01*
X207861426Y-97391853D01*
X208138665Y-97447000D01*
X208421335Y-97447000D01*
X208698574Y-97391853D01*
X208959727Y-97283680D01*
X209194759Y-97126637D01*
X209274396Y-97047000D01*
X213818893Y-97047000D01*
X213937368Y-97165475D01*
X214180589Y-97327990D01*
X214450842Y-97439932D01*
X214737740Y-97497000D01*
X215030260Y-97497000D01*
X215317158Y-97439932D01*
X215587411Y-97327990D01*
X215830632Y-97165475D01*
X215962487Y-97033620D01*
X215984498Y-97106180D01*
X216043463Y-97216494D01*
X216122815Y-97313185D01*
X216219506Y-97392537D01*
X216329820Y-97451502D01*
X216449518Y-97487812D01*
X216574000Y-97500072D01*
X217138250Y-97497000D01*
X217297000Y-97338250D01*
X217297000Y-96139000D01*
X217551000Y-96139000D01*
X217551000Y-97338250D01*
X217709750Y-97497000D01*
X218274000Y-97500072D01*
X218398482Y-97487812D01*
X218518180Y-97451502D01*
X218628494Y-97392537D01*
X218725185Y-97313185D01*
X218804537Y-97216494D01*
X218863502Y-97106180D01*
X218899812Y-96986482D01*
X218912072Y-96862000D01*
X218909000Y-96297750D01*
X218750250Y-96139000D01*
X217551000Y-96139000D01*
X217297000Y-96139000D01*
X217277000Y-96139000D01*
X217277000Y-95885000D01*
X217297000Y-95885000D01*
X217297000Y-94685750D01*
X217551000Y-94685750D01*
X217551000Y-95885000D01*
X218750250Y-95885000D01*
X218909000Y-95726250D01*
X218912072Y-95162000D01*
X218899812Y-95037518D01*
X218863502Y-94917820D01*
X218804537Y-94807506D01*
X218725185Y-94710815D01*
X218628494Y-94631463D01*
X218518180Y-94572498D01*
X218398482Y-94536188D01*
X218274000Y-94523928D01*
X217709750Y-94527000D01*
X217551000Y-94685750D01*
X217297000Y-94685750D01*
X217138250Y-94527000D01*
X216574000Y-94523928D01*
X216449518Y-94536188D01*
X216329820Y-94572498D01*
X216219506Y-94631463D01*
X216122815Y-94710815D01*
X216043463Y-94807506D01*
X215984498Y-94917820D01*
X215962487Y-94990380D01*
X215830632Y-94858525D01*
X215587411Y-94696010D01*
X215317158Y-94584068D01*
X215030260Y-94527000D01*
X214737740Y-94527000D01*
X214450842Y-94584068D01*
X214180589Y-94696010D01*
X213937368Y-94858525D01*
X213818893Y-94977000D01*
X209274396Y-94977000D01*
X209194759Y-94897363D01*
X208959727Y-94740320D01*
X208698574Y-94632147D01*
X208421335Y-94577000D01*
X208138665Y-94577000D01*
X207861426Y-94632147D01*
X207600273Y-94740320D01*
X207365241Y-94897363D01*
X207165363Y-95097241D01*
X207008320Y-95332273D01*
X206900147Y-95593426D01*
X206845000Y-95870665D01*
X199555000Y-95870665D01*
X199499853Y-95593426D01*
X199391680Y-95332273D01*
X199234637Y-95097241D01*
X199034759Y-94897363D01*
X198799727Y-94740320D01*
X198538574Y-94632147D01*
X198261335Y-94577000D01*
X197978665Y-94577000D01*
X197701426Y-94632147D01*
X197440273Y-94740320D01*
X197205241Y-94897363D01*
X197005363Y-95097241D01*
X196848320Y-95332273D01*
X196740147Y-95593426D01*
X196685000Y-95870665D01*
X194525000Y-95870665D01*
X194525000Y-95865740D01*
X194467932Y-95578842D01*
X194355990Y-95308589D01*
X194193475Y-95065368D01*
X193986632Y-94858525D01*
X193812240Y-94742000D01*
X193986632Y-94625475D01*
X194193475Y-94418632D01*
X194355990Y-94175411D01*
X194467932Y-93905158D01*
X194525000Y-93618260D01*
X194525000Y-93325740D01*
X194467932Y-93038842D01*
X194355990Y-92768589D01*
X194193475Y-92525368D01*
X193986632Y-92318525D01*
X193812240Y-92202000D01*
X193986632Y-92085475D01*
X194193475Y-91878632D01*
X194355990Y-91635411D01*
X194467932Y-91365158D01*
X194525000Y-91078260D01*
X194525000Y-90785740D01*
X194467932Y-90498842D01*
X194355990Y-90228589D01*
X194193475Y-89985368D01*
X193986632Y-89778525D01*
X193812240Y-89662000D01*
X193986632Y-89545475D01*
X194193475Y-89338632D01*
X194355990Y-89095411D01*
X194467932Y-88825158D01*
X194525000Y-88538260D01*
X194525000Y-88245740D01*
X194467932Y-87958842D01*
X194355990Y-87688589D01*
X194193475Y-87445368D01*
X193986632Y-87238525D01*
X193812240Y-87122000D01*
X193986632Y-87005475D01*
X194193475Y-86798632D01*
X194355990Y-86555411D01*
X194376408Y-86506117D01*
X197085000Y-89214709D01*
X197085001Y-89937603D01*
X197005363Y-90017241D01*
X196848320Y-90252273D01*
X196740147Y-90513426D01*
X196685000Y-90790665D01*
X196685000Y-91073335D01*
X196740147Y-91350574D01*
X196848320Y-91611727D01*
X197005363Y-91846759D01*
X197205241Y-92046637D01*
X197440273Y-92203680D01*
X197701426Y-92311853D01*
X197978665Y-92367000D01*
X198261335Y-92367000D01*
X198538574Y-92311853D01*
X198799727Y-92203680D01*
X199034759Y-92046637D01*
X199234637Y-91846759D01*
X199391680Y-91611727D01*
X199499853Y-91350574D01*
X199555000Y-91073335D01*
X199555000Y-90790665D01*
X206845000Y-90790665D01*
X206845000Y-91073335D01*
X206900147Y-91350574D01*
X207008320Y-91611727D01*
X207165363Y-91846759D01*
X207365241Y-92046637D01*
X207600273Y-92203680D01*
X207861426Y-92311853D01*
X208138665Y-92367000D01*
X208421335Y-92367000D01*
X208698574Y-92311853D01*
X208959727Y-92203680D01*
X209194759Y-92046637D01*
X209274396Y-91967000D01*
X213818893Y-91967000D01*
X213937368Y-92085475D01*
X214180589Y-92247990D01*
X214450842Y-92359932D01*
X214737740Y-92417000D01*
X215030260Y-92417000D01*
X215317158Y-92359932D01*
X215587411Y-92247990D01*
X215830632Y-92085475D01*
X215962487Y-91953620D01*
X215984498Y-92026180D01*
X216043463Y-92136494D01*
X216122815Y-92233185D01*
X216219506Y-92312537D01*
X216329820Y-92371502D01*
X216449518Y-92407812D01*
X216574000Y-92420072D01*
X217138250Y-92417000D01*
X217297000Y-92258250D01*
X217297000Y-91059000D01*
X217551000Y-91059000D01*
X217551000Y-92258250D01*
X217709750Y-92417000D01*
X218274000Y-92420072D01*
X218398482Y-92407812D01*
X218518180Y-92371502D01*
X218628494Y-92312537D01*
X218725185Y-92233185D01*
X218804537Y-92136494D01*
X218863502Y-92026180D01*
X218899812Y-91906482D01*
X218912072Y-91782000D01*
X218909000Y-91217750D01*
X218750250Y-91059000D01*
X217551000Y-91059000D01*
X217297000Y-91059000D01*
X217277000Y-91059000D01*
X217277000Y-90805000D01*
X217297000Y-90805000D01*
X217297000Y-89605750D01*
X217551000Y-89605750D01*
X217551000Y-90805000D01*
X218750250Y-90805000D01*
X218909000Y-90646250D01*
X218912072Y-90082000D01*
X218899812Y-89957518D01*
X218863502Y-89837820D01*
X218804537Y-89727506D01*
X218725185Y-89630815D01*
X218628494Y-89551463D01*
X218518180Y-89492498D01*
X218398482Y-89456188D01*
X218274000Y-89443928D01*
X217709750Y-89447000D01*
X217551000Y-89605750D01*
X217297000Y-89605750D01*
X217138250Y-89447000D01*
X216574000Y-89443928D01*
X216449518Y-89456188D01*
X216329820Y-89492498D01*
X216219506Y-89551463D01*
X216122815Y-89630815D01*
X216043463Y-89727506D01*
X215984498Y-89837820D01*
X215962487Y-89910380D01*
X215830632Y-89778525D01*
X215587411Y-89616010D01*
X215317158Y-89504068D01*
X215030260Y-89447000D01*
X214737740Y-89447000D01*
X214450842Y-89504068D01*
X214180589Y-89616010D01*
X213937368Y-89778525D01*
X213818893Y-89897000D01*
X209274396Y-89897000D01*
X209194759Y-89817363D01*
X208959727Y-89660320D01*
X208698574Y-89552147D01*
X208421335Y-89497000D01*
X208138665Y-89497000D01*
X207861426Y-89552147D01*
X207600273Y-89660320D01*
X207365241Y-89817363D01*
X207165363Y-90017241D01*
X207008320Y-90252273D01*
X206900147Y-90513426D01*
X206845000Y-90790665D01*
X199555000Y-90790665D01*
X199499853Y-90513426D01*
X199391680Y-90252273D01*
X199234637Y-90017241D01*
X199155000Y-89937604D01*
X199155000Y-88836833D01*
X199160007Y-88785998D01*
X199155000Y-88735160D01*
X199140024Y-88583103D01*
X199080841Y-88388005D01*
X198985370Y-88209390D01*
X198984734Y-88208200D01*
X198887803Y-88090090D01*
X198855396Y-88050602D01*
X198815908Y-88018195D01*
X198084713Y-87287000D01*
X198261335Y-87287000D01*
X198538574Y-87231853D01*
X198799727Y-87123680D01*
X199034759Y-86966637D01*
X199234637Y-86766759D01*
X199391680Y-86531727D01*
X199499853Y-86270574D01*
X199555000Y-85993335D01*
X199555000Y-85710665D01*
X206845000Y-85710665D01*
X206845000Y-85993335D01*
X206900147Y-86270574D01*
X207008320Y-86531727D01*
X207165363Y-86766759D01*
X207365241Y-86966637D01*
X207600273Y-87123680D01*
X207861426Y-87231853D01*
X208138665Y-87287000D01*
X208421335Y-87287000D01*
X208698574Y-87231853D01*
X208959727Y-87123680D01*
X209194759Y-86966637D01*
X209274396Y-86887000D01*
X213818893Y-86887000D01*
X213937368Y-87005475D01*
X214180589Y-87167990D01*
X214450842Y-87279932D01*
X214737740Y-87337000D01*
X215030260Y-87337000D01*
X215317158Y-87279932D01*
X215587411Y-87167990D01*
X215830632Y-87005475D01*
X215962487Y-86873620D01*
X215984498Y-86946180D01*
X216043463Y-87056494D01*
X216122815Y-87153185D01*
X216219506Y-87232537D01*
X216329820Y-87291502D01*
X216449518Y-87327812D01*
X216574000Y-87340072D01*
X217138250Y-87337000D01*
X217297000Y-87178250D01*
X217297000Y-85979000D01*
X217551000Y-85979000D01*
X217551000Y-87178250D01*
X217709750Y-87337000D01*
X218274000Y-87340072D01*
X218398482Y-87327812D01*
X218518180Y-87291502D01*
X218628494Y-87232537D01*
X218725185Y-87153185D01*
X218804537Y-87056494D01*
X218863502Y-86946180D01*
X218899812Y-86826482D01*
X218912072Y-86702000D01*
X218909000Y-86137750D01*
X218750250Y-85979000D01*
X217551000Y-85979000D01*
X217297000Y-85979000D01*
X217277000Y-85979000D01*
X217277000Y-85725000D01*
X217297000Y-85725000D01*
X217297000Y-84525750D01*
X217551000Y-84525750D01*
X217551000Y-85725000D01*
X218750250Y-85725000D01*
X218909000Y-85566250D01*
X218912072Y-85002000D01*
X218899812Y-84877518D01*
X218863502Y-84757820D01*
X218804537Y-84647506D01*
X218725185Y-84550815D01*
X218628494Y-84471463D01*
X218518180Y-84412498D01*
X218398482Y-84376188D01*
X218274000Y-84363928D01*
X217709750Y-84367000D01*
X217551000Y-84525750D01*
X217297000Y-84525750D01*
X217138250Y-84367000D01*
X216574000Y-84363928D01*
X216449518Y-84376188D01*
X216329820Y-84412498D01*
X216219506Y-84471463D01*
X216122815Y-84550815D01*
X216043463Y-84647506D01*
X215984498Y-84757820D01*
X215962487Y-84830380D01*
X215830632Y-84698525D01*
X215587411Y-84536010D01*
X215317158Y-84424068D01*
X215030260Y-84367000D01*
X214737740Y-84367000D01*
X214450842Y-84424068D01*
X214180589Y-84536010D01*
X213937368Y-84698525D01*
X213818893Y-84817000D01*
X209274396Y-84817000D01*
X209194759Y-84737363D01*
X208959727Y-84580320D01*
X208698574Y-84472147D01*
X208421335Y-84417000D01*
X208138665Y-84417000D01*
X207861426Y-84472147D01*
X207600273Y-84580320D01*
X207365241Y-84737363D01*
X207165363Y-84937241D01*
X207008320Y-85172273D01*
X206900147Y-85433426D01*
X206845000Y-85710665D01*
X199555000Y-85710665D01*
X199499853Y-85433426D01*
X199391680Y-85172273D01*
X199234637Y-84937241D01*
X199155000Y-84857604D01*
X199155000Y-83362835D01*
X199160007Y-83312000D01*
X199149193Y-83202202D01*
X199140024Y-83109105D01*
X199080841Y-82914007D01*
X199020352Y-82800840D01*
X198984734Y-82734202D01*
X198887803Y-82616092D01*
X198855396Y-82576604D01*
X198815908Y-82544197D01*
X198442646Y-82170935D01*
X198538574Y-82151853D01*
X198799727Y-82043680D01*
X199034759Y-81886637D01*
X199234637Y-81686759D01*
X199391680Y-81451727D01*
X199499853Y-81190574D01*
X199555000Y-80913335D01*
X199555000Y-80630665D01*
X206845000Y-80630665D01*
X206845000Y-80913335D01*
X206900147Y-81190574D01*
X207008320Y-81451727D01*
X207165363Y-81686759D01*
X207365241Y-81886637D01*
X207600273Y-82043680D01*
X207861426Y-82151853D01*
X208138665Y-82207000D01*
X208421335Y-82207000D01*
X208698574Y-82151853D01*
X208959727Y-82043680D01*
X209194759Y-81886637D01*
X209274396Y-81807000D01*
X213818893Y-81807000D01*
X213937368Y-81925475D01*
X214180589Y-82087990D01*
X214450842Y-82199932D01*
X214737740Y-82257000D01*
X215030260Y-82257000D01*
X215317158Y-82199932D01*
X215587411Y-82087990D01*
X215830632Y-81925475D01*
X215962487Y-81793620D01*
X215984498Y-81866180D01*
X216043463Y-81976494D01*
X216122815Y-82073185D01*
X216219506Y-82152537D01*
X216329820Y-82211502D01*
X216449518Y-82247812D01*
X216574000Y-82260072D01*
X217138250Y-82257000D01*
X217297000Y-82098250D01*
X217297000Y-80899000D01*
X217551000Y-80899000D01*
X217551000Y-82098250D01*
X217709750Y-82257000D01*
X218274000Y-82260072D01*
X218398482Y-82247812D01*
X218518180Y-82211502D01*
X218628494Y-82152537D01*
X218725185Y-82073185D01*
X218804537Y-81976494D01*
X218863502Y-81866180D01*
X218899812Y-81746482D01*
X218912072Y-81622000D01*
X218909000Y-81057750D01*
X218750250Y-80899000D01*
X217551000Y-80899000D01*
X217297000Y-80899000D01*
X217277000Y-80899000D01*
X217277000Y-80645000D01*
X217297000Y-80645000D01*
X217297000Y-79445750D01*
X217551000Y-79445750D01*
X217551000Y-80645000D01*
X218750250Y-80645000D01*
X218909000Y-80486250D01*
X218912072Y-79922000D01*
X218899812Y-79797518D01*
X218863502Y-79677820D01*
X218804537Y-79567506D01*
X218725185Y-79470815D01*
X218628494Y-79391463D01*
X218518180Y-79332498D01*
X218398482Y-79296188D01*
X218274000Y-79283928D01*
X217709750Y-79287000D01*
X217551000Y-79445750D01*
X217297000Y-79445750D01*
X217138250Y-79287000D01*
X216574000Y-79283928D01*
X216449518Y-79296188D01*
X216329820Y-79332498D01*
X216219506Y-79391463D01*
X216122815Y-79470815D01*
X216043463Y-79567506D01*
X215984498Y-79677820D01*
X215962487Y-79750380D01*
X215830632Y-79618525D01*
X215587411Y-79456010D01*
X215317158Y-79344068D01*
X215030260Y-79287000D01*
X214737740Y-79287000D01*
X214450842Y-79344068D01*
X214180589Y-79456010D01*
X213937368Y-79618525D01*
X213818893Y-79737000D01*
X209274396Y-79737000D01*
X209194759Y-79657363D01*
X208959727Y-79500320D01*
X208698574Y-79392147D01*
X208421335Y-79337000D01*
X208138665Y-79337000D01*
X207861426Y-79392147D01*
X207600273Y-79500320D01*
X207365241Y-79657363D01*
X207165363Y-79857241D01*
X207008320Y-80092273D01*
X206900147Y-80353426D01*
X206845000Y-80630665D01*
X199555000Y-80630665D01*
X199499853Y-80353426D01*
X199391680Y-80092273D01*
X199234637Y-79857241D01*
X199155000Y-79777604D01*
X199155000Y-75742835D01*
X199160007Y-75692000D01*
X199149261Y-75582894D01*
X199140024Y-75489105D01*
X199080841Y-75294007D01*
X198996790Y-75136758D01*
X198984734Y-75114202D01*
X198887803Y-74996092D01*
X198855396Y-74956604D01*
X198815908Y-74924197D01*
X194525000Y-70633290D01*
X194525000Y-70465740D01*
X194467932Y-70178842D01*
X194355990Y-69908589D01*
X194193475Y-69665368D01*
X194061620Y-69533513D01*
X194134180Y-69511502D01*
X194244494Y-69452537D01*
X194341185Y-69373185D01*
X194420537Y-69276494D01*
X194479502Y-69166180D01*
X194515812Y-69046482D01*
X194528072Y-68922000D01*
X194527778Y-68867872D01*
X223317000Y-68867872D01*
X223317000Y-69308128D01*
X223402890Y-69739925D01*
X223571369Y-70146669D01*
X223815962Y-70512729D01*
X224127271Y-70824038D01*
X224493331Y-71068631D01*
X224900075Y-71237110D01*
X225331872Y-71323000D01*
X225772128Y-71323000D01*
X226203925Y-71237110D01*
X226610669Y-71068631D01*
X226976729Y-70824038D01*
X227288038Y-70512729D01*
X227532631Y-70146669D01*
X227701110Y-69739925D01*
X227787000Y-69308128D01*
X227787000Y-68867872D01*
X227701110Y-68436075D01*
X227532631Y-68029331D01*
X227288038Y-67663271D01*
X226976729Y-67351962D01*
X226610669Y-67107369D01*
X226203925Y-66938890D01*
X225772128Y-66853000D01*
X225331872Y-66853000D01*
X224900075Y-66938890D01*
X224493331Y-67107369D01*
X224127271Y-67351962D01*
X223815962Y-67663271D01*
X223571369Y-68029331D01*
X223402890Y-68436075D01*
X223317000Y-68867872D01*
X194527778Y-68867872D01*
X194525000Y-68357750D01*
X194366250Y-68199000D01*
X193167000Y-68199000D01*
X193167000Y-68219000D01*
X192913000Y-68219000D01*
X192913000Y-68199000D01*
X191713750Y-68199000D01*
X191555000Y-68357750D01*
X191551928Y-68922000D01*
X191564188Y-69046482D01*
X191600498Y-69166180D01*
X191659463Y-69276494D01*
X191738815Y-69373185D01*
X191835506Y-69452537D01*
X191945820Y-69511502D01*
X192018380Y-69533513D01*
X191886525Y-69665368D01*
X191724010Y-69908589D01*
X191612068Y-70178842D01*
X191555000Y-70465740D01*
X191555000Y-70758260D01*
X191612068Y-71045158D01*
X191724010Y-71315411D01*
X191886525Y-71558632D01*
X192093368Y-71765475D01*
X192267760Y-71882000D01*
X192093368Y-71998525D01*
X191886525Y-72205368D01*
X191724010Y-72448589D01*
X191612068Y-72718842D01*
X191555000Y-73005740D01*
X191555000Y-73298260D01*
X191612068Y-73585158D01*
X191724010Y-73855411D01*
X191886525Y-74098632D01*
X192093368Y-74305475D01*
X192267760Y-74422000D01*
X192093368Y-74538525D01*
X191886525Y-74745368D01*
X191724010Y-74988589D01*
X191612068Y-75258842D01*
X191598544Y-75326833D01*
X190955806Y-74684096D01*
X190923395Y-74644603D01*
X190765796Y-74515265D01*
X190585992Y-74419158D01*
X190390894Y-74359975D01*
X190238837Y-74344999D01*
X190238827Y-74344999D01*
X190187999Y-74339993D01*
X190137171Y-74344999D01*
X184166712Y-74344999D01*
X184191937Y-74319774D01*
X184220328Y-74277284D01*
X184252734Y-74237797D01*
X184276814Y-74192746D01*
X184305205Y-74150256D01*
X184324762Y-74103042D01*
X184348841Y-74057993D01*
X184363669Y-74009113D01*
X184383226Y-73961898D01*
X184393196Y-73911777D01*
X184408024Y-73862895D01*
X184413031Y-73812057D01*
X184423000Y-73761939D01*
X184423000Y-73710838D01*
X184428007Y-73660000D01*
X184423000Y-73609162D01*
X184423000Y-73558061D01*
X184413031Y-73507943D01*
X184408024Y-73457105D01*
X184393196Y-73408223D01*
X184383226Y-73358102D01*
X184363669Y-73310887D01*
X184348841Y-73262007D01*
X184324762Y-73216958D01*
X184305205Y-73169744D01*
X184276814Y-73127254D01*
X184252734Y-73082203D01*
X184220328Y-73042716D01*
X184191937Y-73000226D01*
X184155803Y-72964092D01*
X184123396Y-72924604D01*
X184083908Y-72892197D01*
X184047774Y-72856063D01*
X184005284Y-72827672D01*
X183965797Y-72795266D01*
X183920746Y-72771186D01*
X183878256Y-72742795D01*
X183831042Y-72723238D01*
X183785993Y-72699159D01*
X183737113Y-72684331D01*
X183689898Y-72664774D01*
X183639777Y-72654804D01*
X183590895Y-72639976D01*
X183540057Y-72634969D01*
X183489939Y-72625000D01*
X180542198Y-72625000D01*
X180491370Y-72619994D01*
X180440542Y-72625000D01*
X180440533Y-72625000D01*
X180288476Y-72639976D01*
X180093378Y-72699159D01*
X180056554Y-72718842D01*
X179913573Y-72795266D01*
X179813481Y-72877410D01*
X179755975Y-72924604D01*
X179723568Y-72964092D01*
X177772081Y-74915580D01*
X177732594Y-74947986D01*
X177700187Y-74987474D01*
X177700186Y-74987475D01*
X177603255Y-75105585D01*
X177507149Y-75285389D01*
X177447966Y-75480487D01*
X177427983Y-75683382D01*
X177432990Y-75734220D01*
X177432989Y-99729161D01*
X177427983Y-99779989D01*
X177432989Y-99830817D01*
X177432989Y-99830826D01*
X177447965Y-99982883D01*
X177507148Y-100177981D01*
X177603255Y-100357786D01*
X177732593Y-100515385D01*
X177772086Y-100547796D01*
X179433000Y-102208711D01*
X179433000Y-102299365D01*
X179487377Y-102572740D01*
X179594043Y-102830254D01*
X179748897Y-103062010D01*
X179945990Y-103259103D01*
X180177746Y-103413957D01*
X180216477Y-103430000D01*
X180177746Y-103446043D01*
X179945990Y-103600897D01*
X179748897Y-103797990D01*
X179594043Y-104029746D01*
X179487377Y-104287260D01*
X179433000Y-104560635D01*
X179433000Y-104839365D01*
X179487377Y-105112740D01*
X179594043Y-105370254D01*
X179748897Y-105602010D01*
X179945990Y-105799103D01*
X180177746Y-105953957D01*
X180216477Y-105970000D01*
X180177746Y-105986043D01*
X179945990Y-106140897D01*
X179748897Y-106337990D01*
X179594043Y-106569746D01*
X179487377Y-106827260D01*
X179433000Y-107100635D01*
X179433000Y-107379365D01*
X179487377Y-107652740D01*
X179594043Y-107910254D01*
X179748897Y-108142010D01*
X179945990Y-108339103D01*
X180177746Y-108493957D01*
X180216477Y-108510000D01*
X180177746Y-108526043D01*
X179945990Y-108680897D01*
X179748897Y-108877990D01*
X179594043Y-109109746D01*
X179487377Y-109367260D01*
X179433000Y-109640635D01*
X179433000Y-109919365D01*
X179487377Y-110192740D01*
X179594043Y-110450254D01*
X179748897Y-110682010D01*
X179945990Y-110879103D01*
X180177746Y-111033957D01*
X180216477Y-111050000D01*
X180177746Y-111066043D01*
X179945990Y-111220897D01*
X179748897Y-111417990D01*
X179594043Y-111649746D01*
X179487377Y-111907260D01*
X179433000Y-112180635D01*
X179433000Y-112459365D01*
X179487377Y-112732740D01*
X179594043Y-112990254D01*
X179748897Y-113222010D01*
X179945990Y-113419103D01*
X180177746Y-113573957D01*
X180216477Y-113590000D01*
X180177746Y-113606043D01*
X179945990Y-113760897D01*
X179748897Y-113957990D01*
X179594043Y-114189746D01*
X179487377Y-114447260D01*
X179433000Y-114720635D01*
X179433000Y-114999365D01*
X179487377Y-115272740D01*
X179594043Y-115530254D01*
X179748897Y-115762010D01*
X179945990Y-115959103D01*
X180177746Y-116113957D01*
X180216477Y-116130000D01*
X180177746Y-116146043D01*
X179945990Y-116300897D01*
X179748897Y-116497990D01*
X179594043Y-116729746D01*
X179487377Y-116987260D01*
X179433000Y-117260635D01*
X179433000Y-117539365D01*
X179487377Y-117812740D01*
X179594043Y-118070254D01*
X179748897Y-118302010D01*
X179945990Y-118499103D01*
X180177746Y-118653957D01*
X180216477Y-118670000D01*
X180177746Y-118686043D01*
X179945990Y-118840897D01*
X179748897Y-119037990D01*
X179594043Y-119269746D01*
X179487377Y-119527260D01*
X179433000Y-119800635D01*
X179433000Y-120079365D01*
X179487377Y-120352740D01*
X179594043Y-120610254D01*
X179748897Y-120842010D01*
X179945990Y-121039103D01*
X180177746Y-121193957D01*
X180216477Y-121210000D01*
X180177746Y-121226043D01*
X179945990Y-121380897D01*
X179748897Y-121577990D01*
X179594043Y-121809746D01*
X179487377Y-122067260D01*
X179433000Y-122340635D01*
X179433000Y-122619365D01*
X179473903Y-122825001D01*
X156822097Y-122825001D01*
X156863000Y-122619365D01*
X156863000Y-122340635D01*
X156808623Y-122067260D01*
X156701957Y-121809746D01*
X156547103Y-121577990D01*
X156350010Y-121380897D01*
X156118254Y-121226043D01*
X156079523Y-121210000D01*
X156118254Y-121193957D01*
X156350010Y-121039103D01*
X156547103Y-120842010D01*
X156701957Y-120610254D01*
X156808623Y-120352740D01*
X156863000Y-120079365D01*
X156863000Y-119800635D01*
X156808623Y-119527260D01*
X156701957Y-119269746D01*
X156547103Y-119037990D01*
X156350010Y-118840897D01*
X156118254Y-118686043D01*
X156079523Y-118670000D01*
X156118254Y-118653957D01*
X156350010Y-118499103D01*
X156547103Y-118302010D01*
X156701957Y-118070254D01*
X156808623Y-117812740D01*
X156863000Y-117539365D01*
X156863000Y-117260635D01*
X156808623Y-116987260D01*
X156701957Y-116729746D01*
X156547103Y-116497990D01*
X156350010Y-116300897D01*
X156118254Y-116146043D01*
X156079523Y-116130000D01*
X156118254Y-116113957D01*
X156350010Y-115959103D01*
X156547103Y-115762010D01*
X156701957Y-115530254D01*
X156808623Y-115272740D01*
X156863000Y-114999365D01*
X156863000Y-114720635D01*
X156808623Y-114447260D01*
X156701957Y-114189746D01*
X156547103Y-113957990D01*
X156350010Y-113760897D01*
X156118254Y-113606043D01*
X156079523Y-113590000D01*
X156118254Y-113573957D01*
X156350010Y-113419103D01*
X156414113Y-113355000D01*
X168177690Y-113355000D01*
X175319663Y-120496974D01*
X175463826Y-120641137D01*
X175506312Y-120669525D01*
X175545802Y-120701934D01*
X175590856Y-120726016D01*
X175633344Y-120754405D01*
X175680559Y-120773962D01*
X175725606Y-120798040D01*
X175774481Y-120812866D01*
X175821702Y-120832426D01*
X175871829Y-120842397D01*
X175920704Y-120857223D01*
X175971534Y-120862229D01*
X176021661Y-120872200D01*
X176072771Y-120872200D01*
X176123599Y-120877206D01*
X176174427Y-120872200D01*
X176225539Y-120872200D01*
X176275668Y-120862229D01*
X176326494Y-120857223D01*
X176375366Y-120842398D01*
X176425498Y-120832426D01*
X176472723Y-120812865D01*
X176521593Y-120798040D01*
X176566636Y-120773964D01*
X176613856Y-120754405D01*
X176656348Y-120726013D01*
X176701397Y-120701934D01*
X176740881Y-120669530D01*
X176783374Y-120641137D01*
X176819516Y-120604995D01*
X176858995Y-120572595D01*
X176891395Y-120533116D01*
X176927537Y-120496974D01*
X176955930Y-120454481D01*
X176988334Y-120414997D01*
X177012413Y-120369948D01*
X177040805Y-120327456D01*
X177060364Y-120280236D01*
X177084440Y-120235193D01*
X177099265Y-120186323D01*
X177118826Y-120139098D01*
X177128798Y-120088966D01*
X177143623Y-120040094D01*
X177148629Y-119989268D01*
X177158600Y-119939139D01*
X177158600Y-119888027D01*
X177163606Y-119837199D01*
X177158600Y-119786371D01*
X177158600Y-119735261D01*
X177148629Y-119685134D01*
X177143623Y-119634304D01*
X177128797Y-119585429D01*
X177118826Y-119535302D01*
X177099266Y-119488081D01*
X177084440Y-119439206D01*
X177060362Y-119394159D01*
X177040805Y-119346944D01*
X177012416Y-119304456D01*
X176988334Y-119259402D01*
X176955925Y-119219912D01*
X176927537Y-119177426D01*
X176783374Y-119033263D01*
X169374207Y-111624097D01*
X169341796Y-111584604D01*
X169184197Y-111455266D01*
X169004393Y-111359159D01*
X168809295Y-111299976D01*
X168657238Y-111285000D01*
X168657228Y-111285000D01*
X168606400Y-111279994D01*
X168555572Y-111285000D01*
X156414113Y-111285000D01*
X156350010Y-111220897D01*
X156118254Y-111066043D01*
X156082475Y-111051223D01*
X156177655Y-111000349D01*
X156246816Y-110758421D01*
X155448000Y-109959605D01*
X154649184Y-110758421D01*
X154718345Y-111000349D01*
X154820279Y-111048425D01*
X154777746Y-111066043D01*
X154545990Y-111220897D01*
X154348897Y-111417990D01*
X154194043Y-111649746D01*
X154087377Y-111907260D01*
X154066073Y-112014363D01*
X153345011Y-111293301D01*
X153345011Y-109851303D01*
X154027943Y-109851303D01*
X154069140Y-110126972D01*
X154163325Y-110389308D01*
X154227651Y-110509655D01*
X154469579Y-110578816D01*
X155268395Y-109780000D01*
X155627605Y-109780000D01*
X156426421Y-110578816D01*
X156668349Y-110509655D01*
X156787248Y-110257557D01*
X156854681Y-109987106D01*
X156868057Y-109708697D01*
X156826860Y-109433028D01*
X156732675Y-109170692D01*
X156668349Y-109050345D01*
X156426421Y-108981184D01*
X155627605Y-109780000D01*
X155268395Y-109780000D01*
X154469579Y-108981184D01*
X154227651Y-109050345D01*
X154108752Y-109302443D01*
X154041319Y-109572894D01*
X154027943Y-109851303D01*
X153345011Y-109851303D01*
X153345011Y-106600721D01*
X154033000Y-107288711D01*
X154033000Y-107379365D01*
X154087377Y-107652740D01*
X154194043Y-107910254D01*
X154348897Y-108142010D01*
X154545990Y-108339103D01*
X154777746Y-108493957D01*
X154813525Y-108508777D01*
X154718345Y-108559651D01*
X154649184Y-108801579D01*
X155448000Y-109600395D01*
X156246816Y-108801579D01*
X156177655Y-108559651D01*
X156075721Y-108511575D01*
X156118254Y-108493957D01*
X156350010Y-108339103D01*
X156547103Y-108142010D01*
X156701957Y-107910254D01*
X156808623Y-107652740D01*
X156863000Y-107379365D01*
X156863000Y-107100635D01*
X156808623Y-106827260D01*
X156701957Y-106569746D01*
X156547103Y-106337990D01*
X156350010Y-106140897D01*
X156118254Y-105986043D01*
X156079523Y-105970000D01*
X156118254Y-105953957D01*
X156350010Y-105799103D01*
X156547103Y-105602010D01*
X156701957Y-105370254D01*
X156808623Y-105112740D01*
X156863000Y-104839365D01*
X156863000Y-104560635D01*
X156808623Y-104287260D01*
X156701957Y-104029746D01*
X156547103Y-103797990D01*
X156350010Y-103600897D01*
X156118254Y-103446043D01*
X156079523Y-103430000D01*
X156118254Y-103413957D01*
X156350010Y-103259103D01*
X156547103Y-103062010D01*
X156701957Y-102830254D01*
X156808623Y-102572740D01*
X156863000Y-102299365D01*
X156863000Y-102020635D01*
X156808623Y-101747260D01*
X156701957Y-101489746D01*
X156547103Y-101257990D01*
X156350010Y-101060897D01*
X156118254Y-100906043D01*
X156079523Y-100890000D01*
X156118254Y-100873957D01*
X156350010Y-100719103D01*
X156547103Y-100522010D01*
X156701957Y-100290254D01*
X156808623Y-100032740D01*
X156863000Y-99759365D01*
X156863000Y-99480635D01*
X156808623Y-99207260D01*
X156701957Y-98949746D01*
X156547103Y-98717990D01*
X156350010Y-98520897D01*
X156118254Y-98366043D01*
X156079523Y-98350000D01*
X156118254Y-98333957D01*
X156350010Y-98179103D01*
X156547103Y-97982010D01*
X156701957Y-97750254D01*
X156808623Y-97492740D01*
X156863000Y-97219365D01*
X156863000Y-96940635D01*
X156808623Y-96667260D01*
X156701957Y-96409746D01*
X156547103Y-96177990D01*
X156350010Y-95980897D01*
X156118254Y-95826043D01*
X156079523Y-95810000D01*
X156118254Y-95793957D01*
X156350010Y-95639103D01*
X156547103Y-95442010D01*
X156701957Y-95210254D01*
X156808623Y-94952740D01*
X156863000Y-94679365D01*
X156863000Y-94400635D01*
X156808623Y-94127260D01*
X156701957Y-93869746D01*
X156547103Y-93637990D01*
X156350010Y-93440897D01*
X156118254Y-93286043D01*
X156079523Y-93270000D01*
X156118254Y-93253957D01*
X156350010Y-93099103D01*
X156547103Y-92902010D01*
X156701957Y-92670254D01*
X156808623Y-92412740D01*
X156863000Y-92139365D01*
X156863000Y-91860635D01*
X156808623Y-91587260D01*
X156701957Y-91329746D01*
X156547103Y-91097990D01*
X156350010Y-90900897D01*
X156118254Y-90746043D01*
X156079523Y-90730000D01*
X156118254Y-90713957D01*
X156350010Y-90559103D01*
X156547103Y-90362010D01*
X156701957Y-90130254D01*
X156808623Y-89872740D01*
X156863000Y-89599365D01*
X156863000Y-89320635D01*
X156808623Y-89047260D01*
X156701957Y-88789746D01*
X156547103Y-88557990D01*
X156350010Y-88360897D01*
X156118254Y-88206043D01*
X156079523Y-88190000D01*
X156118254Y-88173957D01*
X156350010Y-88019103D01*
X156547103Y-87822010D01*
X156701957Y-87590254D01*
X156808623Y-87332740D01*
X156863000Y-87059365D01*
X156863000Y-86780635D01*
X156808623Y-86507260D01*
X156701957Y-86249746D01*
X156547103Y-86017990D01*
X156350010Y-85820897D01*
X156118254Y-85666043D01*
X156079523Y-85650000D01*
X156118254Y-85633957D01*
X156350010Y-85479103D01*
X156547103Y-85282010D01*
X156701957Y-85050254D01*
X156808623Y-84792740D01*
X156863000Y-84519365D01*
X156863000Y-84240635D01*
X156808623Y-83967260D01*
X156701957Y-83709746D01*
X156547103Y-83477990D01*
X156350010Y-83280897D01*
X156118254Y-83126043D01*
X156079523Y-83110000D01*
X156118254Y-83093957D01*
X156350010Y-82939103D01*
X156547103Y-82742010D01*
X156701957Y-82510254D01*
X156808623Y-82252740D01*
X156863000Y-81979365D01*
X156863000Y-81700635D01*
X156808623Y-81427260D01*
X156701957Y-81169746D01*
X156547103Y-80937990D01*
X156350010Y-80740897D01*
X156118254Y-80586043D01*
X156079523Y-80570000D01*
X156118254Y-80553957D01*
X156350010Y-80399103D01*
X156547103Y-80202010D01*
X156701957Y-79970254D01*
X156808623Y-79712740D01*
X156863000Y-79439365D01*
X156863000Y-79160635D01*
X156808623Y-78887260D01*
X156701957Y-78629746D01*
X156547103Y-78397990D01*
X156350010Y-78200897D01*
X156304564Y-78170531D01*
X156352482Y-78165812D01*
X156472180Y-78129502D01*
X156582494Y-78070537D01*
X156679185Y-77991185D01*
X156758537Y-77894494D01*
X156817502Y-77784180D01*
X156853812Y-77664482D01*
X156866072Y-77540000D01*
X156866072Y-75980000D01*
X156853812Y-75855518D01*
X156817502Y-75735820D01*
X156758537Y-75625506D01*
X156679185Y-75528815D01*
X156582494Y-75449463D01*
X156472180Y-75390498D01*
X156352482Y-75354188D01*
X156228000Y-75341928D01*
X154668000Y-75341928D01*
X154543518Y-75354188D01*
X154423820Y-75390498D01*
X154313506Y-75449463D01*
X154216815Y-75528815D01*
X154137463Y-75625506D01*
X154078498Y-75735820D01*
X154042188Y-75855518D01*
X154029928Y-75980000D01*
X154029928Y-77540000D01*
X154042188Y-77664482D01*
X154078498Y-77784180D01*
X154137463Y-77894494D01*
X154216815Y-77991185D01*
X154313506Y-78070537D01*
X154423820Y-78129502D01*
X154543518Y-78165812D01*
X154591436Y-78170531D01*
X154545990Y-78200897D01*
X154348897Y-78397990D01*
X154194043Y-78629746D01*
X154087377Y-78887260D01*
X154066073Y-78994363D01*
X152268801Y-77197091D01*
X152268801Y-73154228D01*
X152273807Y-73103400D01*
X152268801Y-73052572D01*
X152268801Y-73052563D01*
X152253825Y-72900506D01*
X152194642Y-72705408D01*
X152148987Y-72619994D01*
X152098535Y-72525603D01*
X152001604Y-72407493D01*
X151969197Y-72368005D01*
X151929709Y-72335598D01*
X151268800Y-71674689D01*
X151268800Y-71507140D01*
X151211732Y-71220242D01*
X151099790Y-70949989D01*
X150937275Y-70706768D01*
X150805420Y-70574913D01*
X150877980Y-70552902D01*
X150988294Y-70493937D01*
X151084985Y-70414585D01*
X151164337Y-70317894D01*
X151223302Y-70207580D01*
X151259612Y-70087882D01*
X151271872Y-69963400D01*
X151268800Y-69399150D01*
X151110050Y-69240400D01*
X149910800Y-69240400D01*
X149910800Y-69260400D01*
X149656800Y-69260400D01*
X149656800Y-69240400D01*
X148457550Y-69240400D01*
X148298800Y-69399150D01*
X148295728Y-69963400D01*
X148307988Y-70087882D01*
X148344298Y-70207580D01*
X148403263Y-70317894D01*
X148482615Y-70414585D01*
X148579306Y-70493937D01*
X148689620Y-70552902D01*
X148762180Y-70574913D01*
X148630325Y-70706768D01*
X148467810Y-70949989D01*
X148355868Y-71220242D01*
X148298800Y-71507140D01*
X148298800Y-71799660D01*
X148355868Y-72086558D01*
X148467810Y-72356811D01*
X148630325Y-72600032D01*
X148837168Y-72806875D01*
X149011560Y-72923400D01*
X148837168Y-73039925D01*
X148630325Y-73246768D01*
X148467810Y-73489989D01*
X148355868Y-73760242D01*
X148298800Y-74047140D01*
X148298800Y-74339660D01*
X148355868Y-74626558D01*
X148467810Y-74896811D01*
X148630325Y-75140032D01*
X148837168Y-75346875D01*
X149011560Y-75463400D01*
X148837168Y-75579925D01*
X148630325Y-75786768D01*
X148467810Y-76029989D01*
X148355868Y-76300242D01*
X148298800Y-76587140D01*
X148298800Y-76879660D01*
X148355868Y-77166558D01*
X148467810Y-77436811D01*
X148630325Y-77680032D01*
X148837168Y-77886875D01*
X149011560Y-78003400D01*
X148837168Y-78119925D01*
X148630325Y-78326768D01*
X148467810Y-78569989D01*
X148355868Y-78840242D01*
X148298800Y-79127140D01*
X148298800Y-79419660D01*
X148355868Y-79706558D01*
X148467810Y-79976811D01*
X148630325Y-80220032D01*
X148837168Y-80426875D01*
X149011560Y-80543400D01*
X148837168Y-80659925D01*
X148630325Y-80866768D01*
X148467810Y-81109989D01*
X148355868Y-81380242D01*
X148298800Y-81667140D01*
X148298800Y-81959660D01*
X148355868Y-82246558D01*
X148467810Y-82516811D01*
X148630325Y-82760032D01*
X148837168Y-82966875D01*
X149011560Y-83083400D01*
X148837168Y-83199925D01*
X148630325Y-83406768D01*
X148467810Y-83649989D01*
X148355868Y-83920242D01*
X148298800Y-84207140D01*
X148298800Y-84499660D01*
X148355868Y-84786558D01*
X148467810Y-85056811D01*
X148630325Y-85300032D01*
X148837168Y-85506875D01*
X149011560Y-85623400D01*
X148837168Y-85739925D01*
X148630325Y-85946768D01*
X148467810Y-86189989D01*
X148355868Y-86460242D01*
X148298800Y-86747140D01*
X148298800Y-87039660D01*
X148355868Y-87326558D01*
X148467810Y-87596811D01*
X148630325Y-87840032D01*
X148837168Y-88046875D01*
X149011560Y-88163400D01*
X148837168Y-88279925D01*
X148630325Y-88486768D01*
X148467810Y-88729989D01*
X148355868Y-89000242D01*
X148298800Y-89287140D01*
X148298800Y-89579660D01*
X148355868Y-89866558D01*
X148467810Y-90136811D01*
X148630325Y-90380032D01*
X148837168Y-90586875D01*
X149011560Y-90703400D01*
X148837168Y-90819925D01*
X148630325Y-91026768D01*
X148467810Y-91269989D01*
X148355868Y-91540242D01*
X148298800Y-91827140D01*
X148298800Y-92119660D01*
X148355868Y-92406558D01*
X148467810Y-92676811D01*
X148630325Y-92920032D01*
X148837168Y-93126875D01*
X149011560Y-93243400D01*
X148837168Y-93359925D01*
X148630325Y-93566768D01*
X148467810Y-93809989D01*
X148355868Y-94080242D01*
X148298800Y-94367140D01*
X148298800Y-94659660D01*
X148355868Y-94946558D01*
X148467810Y-95216811D01*
X148630325Y-95460032D01*
X148837168Y-95666875D01*
X149011560Y-95783400D01*
X148837168Y-95899925D01*
X148630325Y-96106768D01*
X148467810Y-96349989D01*
X148355868Y-96620242D01*
X148298800Y-96907140D01*
X148298800Y-97199660D01*
X148355868Y-97486558D01*
X148467810Y-97756811D01*
X148630325Y-98000032D01*
X148837168Y-98206875D01*
X149011560Y-98323400D01*
X148837168Y-98439925D01*
X148630325Y-98646768D01*
X148467810Y-98889989D01*
X148355868Y-99160242D01*
X148298800Y-99447140D01*
X148298800Y-99739660D01*
X148355868Y-100026558D01*
X148467810Y-100296811D01*
X148630325Y-100540032D01*
X148837168Y-100746875D01*
X149011560Y-100863400D01*
X148837168Y-100979925D01*
X148630325Y-101186768D01*
X148467810Y-101429989D01*
X148355868Y-101700242D01*
X148298800Y-101987140D01*
X148298800Y-102279660D01*
X148355868Y-102566558D01*
X148467810Y-102836811D01*
X148630325Y-103080032D01*
X148837168Y-103286875D01*
X149011560Y-103403400D01*
X148837168Y-103519925D01*
X148630325Y-103726768D01*
X148467810Y-103969989D01*
X148355868Y-104240242D01*
X148298800Y-104527140D01*
X148298800Y-104819660D01*
X148355868Y-105106558D01*
X148467810Y-105376811D01*
X148630325Y-105620032D01*
X148837168Y-105826875D01*
X149011560Y-105943400D01*
X148837168Y-106059925D01*
X148630325Y-106266768D01*
X148467810Y-106509989D01*
X148355868Y-106780242D01*
X148298800Y-107067140D01*
X148298800Y-107234689D01*
X146865890Y-108667600D01*
X142570227Y-108667600D01*
X142519399Y-108662594D01*
X142468571Y-108667600D01*
X142468562Y-108667600D01*
X142316505Y-108682576D01*
X142121407Y-108741759D01*
X142059719Y-108774732D01*
X141941602Y-108837866D01*
X141829310Y-108930022D01*
X141784004Y-108967204D01*
X141751597Y-109006692D01*
X141576711Y-109181578D01*
X141568922Y-109129867D01*
X141475636Y-108870977D01*
X141413656Y-108755020D01*
X141173565Y-108688040D01*
X140387605Y-109474000D01*
X140401748Y-109488143D01*
X140222143Y-109667748D01*
X140208000Y-109653605D01*
X139422040Y-110439565D01*
X139489020Y-110679656D01*
X139624760Y-110743485D01*
X139546273Y-110775995D01*
X139317465Y-110928880D01*
X139122880Y-111123465D01*
X138969995Y-111352273D01*
X138864686Y-111606510D01*
X138811000Y-111876408D01*
X138811000Y-111947289D01*
X137480097Y-113278193D01*
X137440604Y-113310604D01*
X137311266Y-113468203D01*
X137215159Y-113648008D01*
X137155976Y-113843106D01*
X137141000Y-113995163D01*
X137141000Y-113995172D01*
X137135994Y-114046000D01*
X137141000Y-114096828D01*
X137141000Y-114757172D01*
X137135994Y-114808000D01*
X137141000Y-114858828D01*
X137141000Y-114858838D01*
X137151134Y-114961727D01*
X137155977Y-115010895D01*
X137215160Y-115205993D01*
X137311266Y-115385797D01*
X137402271Y-115496686D01*
X137440605Y-115543396D01*
X137480093Y-115575803D01*
X140235201Y-118330912D01*
X140192065Y-118339492D01*
X139706702Y-118540536D01*
X139269887Y-118832406D01*
X138898406Y-119203887D01*
X138606536Y-119640702D01*
X138405492Y-120126065D01*
X138303000Y-120641323D01*
X138303000Y-121166677D01*
X138405492Y-121681935D01*
X138606536Y-122167298D01*
X138898406Y-122604113D01*
X139269887Y-122975594D01*
X139706702Y-123267464D01*
X140192065Y-123468508D01*
X140707323Y-123571000D01*
X141232677Y-123571000D01*
X141747935Y-123468508D01*
X142233298Y-123267464D01*
X142670113Y-122975594D01*
X143041594Y-122604113D01*
X143333464Y-122167298D01*
X143534508Y-121681935D01*
X143543088Y-121638799D01*
X147568197Y-125663908D01*
X147600604Y-125703396D01*
X147640092Y-125735803D01*
X147757308Y-125832000D01*
X97180000Y-125832000D01*
X97180000Y-121191872D01*
X99365000Y-121191872D01*
X99365000Y-121632128D01*
X99450890Y-122063925D01*
X99619369Y-122470669D01*
X99863962Y-122836729D01*
X100175271Y-123148038D01*
X100541331Y-123392631D01*
X100948075Y-123561110D01*
X101379872Y-123647000D01*
X101820128Y-123647000D01*
X102251925Y-123561110D01*
X102658669Y-123392631D01*
X103024729Y-123148038D01*
X103336038Y-122836729D01*
X103580631Y-122470669D01*
X103749110Y-122063925D01*
X103835000Y-121632128D01*
X103835000Y-121191872D01*
X103749110Y-120760075D01*
X103699922Y-120641323D01*
X109347000Y-120641323D01*
X109347000Y-121166677D01*
X109449492Y-121681935D01*
X109650536Y-122167298D01*
X109942406Y-122604113D01*
X110313887Y-122975594D01*
X110750702Y-123267464D01*
X111236065Y-123468508D01*
X111751323Y-123571000D01*
X112276677Y-123571000D01*
X112791935Y-123468508D01*
X113277298Y-123267464D01*
X113714113Y-122975594D01*
X114085594Y-122604113D01*
X114377464Y-122167298D01*
X114578508Y-121681935D01*
X114681000Y-121166677D01*
X114681000Y-120641323D01*
X114578508Y-120126065D01*
X114377464Y-119640702D01*
X114085594Y-119203887D01*
X113714113Y-118832406D01*
X113277298Y-118540536D01*
X112791935Y-118339492D01*
X112276677Y-118237000D01*
X111751323Y-118237000D01*
X111236065Y-118339492D01*
X110750702Y-118540536D01*
X110313887Y-118832406D01*
X109942406Y-119203887D01*
X109650536Y-119640702D01*
X109449492Y-120126065D01*
X109347000Y-120641323D01*
X103699922Y-120641323D01*
X103580631Y-120353331D01*
X103336038Y-119987271D01*
X103024729Y-119675962D01*
X102658669Y-119431369D01*
X102251925Y-119262890D01*
X101820128Y-119177000D01*
X101379872Y-119177000D01*
X100948075Y-119262890D01*
X100541331Y-119431369D01*
X100175271Y-119675962D01*
X99863962Y-119987271D01*
X99619369Y-120353331D01*
X99450890Y-120760075D01*
X99365000Y-121191872D01*
X97180000Y-121191872D01*
X97180000Y-109546017D01*
X138806090Y-109546017D01*
X138847078Y-109818133D01*
X138940364Y-110077023D01*
X139002344Y-110192980D01*
X139242435Y-110259960D01*
X140028395Y-109474000D01*
X139242435Y-108688040D01*
X139002344Y-108755020D01*
X138885244Y-109004048D01*
X138818977Y-109271135D01*
X138806090Y-109546017D01*
X97180000Y-109546017D01*
X97180000Y-91685323D01*
X109347000Y-91685323D01*
X109347000Y-92210677D01*
X109449492Y-92725935D01*
X109650536Y-93211298D01*
X109942406Y-93648113D01*
X110313887Y-94019594D01*
X110750702Y-94311464D01*
X111236065Y-94512508D01*
X111751323Y-94615000D01*
X112276677Y-94615000D01*
X112791935Y-94512508D01*
X113277298Y-94311464D01*
X113714113Y-94019594D01*
X114085594Y-93648113D01*
X114377464Y-93211298D01*
X114578508Y-92725935D01*
X114681000Y-92210677D01*
X114681000Y-91685323D01*
X114578508Y-91170065D01*
X114377464Y-90684702D01*
X114085594Y-90247887D01*
X113714113Y-89876406D01*
X113277298Y-89584536D01*
X112791935Y-89383492D01*
X112276677Y-89281000D01*
X111751323Y-89281000D01*
X111236065Y-89383492D01*
X110750702Y-89584536D01*
X110313887Y-89876406D01*
X109942406Y-90247887D01*
X109650536Y-90684702D01*
X109449492Y-91170065D01*
X109347000Y-91685323D01*
X97180000Y-91685323D01*
X97180000Y-68867872D01*
X99365000Y-68867872D01*
X99365000Y-69308128D01*
X99450890Y-69739925D01*
X99619369Y-70146669D01*
X99863962Y-70512729D01*
X100175271Y-70824038D01*
X100541331Y-71068631D01*
X100948075Y-71237110D01*
X101379872Y-71323000D01*
X101820128Y-71323000D01*
X102251925Y-71237110D01*
X102658669Y-71068631D01*
X103024729Y-70824038D01*
X103336038Y-70512729D01*
X103563704Y-70172001D01*
X110143993Y-70172001D01*
X110148999Y-70222829D01*
X110149000Y-78857161D01*
X110143993Y-78907999D01*
X110163976Y-79110894D01*
X110223159Y-79305992D01*
X110319265Y-79485796D01*
X110416196Y-79603906D01*
X110448604Y-79643395D01*
X110488091Y-79675802D01*
X115288197Y-84475908D01*
X115320604Y-84515396D01*
X115360092Y-84547803D01*
X115478202Y-84644734D01*
X115554701Y-84685623D01*
X115658007Y-84740841D01*
X115853105Y-84800024D01*
X116005162Y-84815000D01*
X116005164Y-84815000D01*
X116056000Y-84820007D01*
X116106835Y-84815000D01*
X116634342Y-84815000D01*
X116650866Y-84835134D01*
X116876986Y-85020706D01*
X117134966Y-85158599D01*
X117414889Y-85243513D01*
X117633050Y-85265000D01*
X118078950Y-85265000D01*
X118297111Y-85243513D01*
X118577034Y-85158599D01*
X118835014Y-85020706D01*
X119061134Y-84835134D01*
X119246706Y-84609014D01*
X119384599Y-84351034D01*
X119469513Y-84071111D01*
X119498185Y-83780000D01*
X119469513Y-83488889D01*
X119384599Y-83208966D01*
X119246706Y-82950986D01*
X119061134Y-82724866D01*
X118997663Y-82672777D01*
X119099386Y-82618405D01*
X119233962Y-82507962D01*
X119344405Y-82373386D01*
X119426472Y-82219850D01*
X119477008Y-82053254D01*
X119494072Y-81880000D01*
X119494072Y-80680000D01*
X119477008Y-80506746D01*
X119426472Y-80340150D01*
X119344405Y-80186614D01*
X119233962Y-80052038D01*
X119099386Y-79941595D01*
X118945850Y-79859528D01*
X118779254Y-79808992D01*
X118606000Y-79791928D01*
X117831639Y-79791928D01*
X117541711Y-79502000D01*
X124435994Y-79502000D01*
X124441001Y-79552838D01*
X124441000Y-92151172D01*
X124435994Y-92202000D01*
X124441000Y-92252828D01*
X124441000Y-92252837D01*
X124455976Y-92404894D01*
X124515159Y-92599992D01*
X124611266Y-92779797D01*
X124740604Y-92937396D01*
X124780097Y-92969807D01*
X138811000Y-107000711D01*
X138811000Y-107071592D01*
X138864686Y-107341490D01*
X138969995Y-107595727D01*
X139122880Y-107824535D01*
X139317465Y-108019120D01*
X139546273Y-108172005D01*
X139617943Y-108201692D01*
X139604977Y-108206364D01*
X139489020Y-108268344D01*
X139422040Y-108508435D01*
X140208000Y-109294395D01*
X140993960Y-108508435D01*
X140926980Y-108268344D01*
X140791240Y-108204515D01*
X140869727Y-108172005D01*
X141098535Y-108019120D01*
X141293120Y-107824535D01*
X141446005Y-107595727D01*
X141551314Y-107341490D01*
X141605000Y-107071592D01*
X141605000Y-106796408D01*
X141551314Y-106526510D01*
X141446005Y-106272273D01*
X141293120Y-106043465D01*
X141098535Y-105848880D01*
X140869727Y-105695995D01*
X140792485Y-105664000D01*
X140869727Y-105632005D01*
X141098535Y-105479120D01*
X141293120Y-105284535D01*
X141446005Y-105055727D01*
X141551314Y-104801490D01*
X141605000Y-104531592D01*
X141605000Y-104256408D01*
X141551314Y-103986510D01*
X141446005Y-103732273D01*
X141293120Y-103503465D01*
X141098535Y-103308880D01*
X140869727Y-103155995D01*
X140792485Y-103124000D01*
X140869727Y-103092005D01*
X141098535Y-102939120D01*
X141293120Y-102744535D01*
X141446005Y-102515727D01*
X141551314Y-102261490D01*
X141605000Y-101991592D01*
X141605000Y-101716408D01*
X141551314Y-101446510D01*
X141446005Y-101192273D01*
X141293120Y-100963465D01*
X141098535Y-100768880D01*
X140869727Y-100615995D01*
X140792485Y-100584000D01*
X140869727Y-100552005D01*
X141098535Y-100399120D01*
X141293120Y-100204535D01*
X141446005Y-99975727D01*
X141551314Y-99721490D01*
X141605000Y-99451592D01*
X141605000Y-99176408D01*
X141551314Y-98906510D01*
X141446005Y-98652273D01*
X141293120Y-98423465D01*
X141098535Y-98228880D01*
X140869727Y-98075995D01*
X140615490Y-97970686D01*
X140345592Y-97917000D01*
X140070408Y-97917000D01*
X139800510Y-97970686D01*
X139546273Y-98075995D01*
X139317465Y-98228880D01*
X139122880Y-98423465D01*
X138969995Y-98652273D01*
X138864686Y-98906510D01*
X138811000Y-99176408D01*
X138811000Y-99451592D01*
X138864686Y-99721490D01*
X138969995Y-99975727D01*
X139122880Y-100204535D01*
X139317465Y-100399120D01*
X139546273Y-100552005D01*
X139623515Y-100584000D01*
X139546273Y-100615995D01*
X139317465Y-100768880D01*
X139122880Y-100963465D01*
X138969995Y-101192273D01*
X138864686Y-101446510D01*
X138841381Y-101563671D01*
X128543000Y-91265290D01*
X128543000Y-89408000D01*
X132055994Y-89408000D01*
X132061001Y-89458837D01*
X132061000Y-91135172D01*
X132055994Y-91186000D01*
X132061000Y-91236828D01*
X132061000Y-91236837D01*
X132075976Y-91388894D01*
X132135159Y-91583992D01*
X132231266Y-91763797D01*
X132360604Y-91921396D01*
X132400097Y-91953807D01*
X132461597Y-92015307D01*
X132461597Y-92022689D01*
X132473857Y-92147170D01*
X132502999Y-92293678D01*
X132539310Y-92413379D01*
X132596475Y-92551386D01*
X132655438Y-92661696D01*
X132738428Y-92785900D01*
X132817781Y-92882593D01*
X132923407Y-92988219D01*
X133020100Y-93067572D01*
X133144304Y-93150562D01*
X133254614Y-93209525D01*
X133392621Y-93266690D01*
X133512322Y-93303001D01*
X133658830Y-93332143D01*
X133783311Y-93344403D01*
X133932689Y-93344403D01*
X134057170Y-93332143D01*
X134203678Y-93303001D01*
X134323379Y-93266690D01*
X134461386Y-93209525D01*
X134571696Y-93150562D01*
X134695900Y-93067572D01*
X134792593Y-92988219D01*
X134898219Y-92882593D01*
X134977572Y-92785900D01*
X135060562Y-92661696D01*
X135119525Y-92551386D01*
X135128000Y-92530926D01*
X135136475Y-92551386D01*
X135195438Y-92661696D01*
X135278428Y-92785900D01*
X135357781Y-92882593D01*
X135463407Y-92988219D01*
X135560100Y-93067572D01*
X135684304Y-93150562D01*
X135794614Y-93209525D01*
X135932621Y-93266690D01*
X136052322Y-93303001D01*
X136198830Y-93332143D01*
X136323311Y-93344403D01*
X136472689Y-93344403D01*
X136597170Y-93332143D01*
X136743678Y-93303001D01*
X136863379Y-93266690D01*
X137001386Y-93209525D01*
X137111696Y-93150562D01*
X137235900Y-93067572D01*
X137332593Y-92988219D01*
X137438219Y-92882593D01*
X137517572Y-92785900D01*
X137600562Y-92661696D01*
X137659525Y-92551386D01*
X137716690Y-92413379D01*
X137753001Y-92293678D01*
X137782143Y-92147170D01*
X137794403Y-92022689D01*
X137794403Y-91873311D01*
X137782143Y-91748830D01*
X137769511Y-91685323D01*
X138303000Y-91685323D01*
X138303000Y-92210677D01*
X138405492Y-92725935D01*
X138606536Y-93211298D01*
X138898406Y-93648113D01*
X139269887Y-94019594D01*
X139706702Y-94311464D01*
X140192065Y-94512508D01*
X140707323Y-94615000D01*
X141232677Y-94615000D01*
X141747935Y-94512508D01*
X142233298Y-94311464D01*
X142670113Y-94019594D01*
X143041594Y-93648113D01*
X143333464Y-93211298D01*
X143534508Y-92725935D01*
X143637000Y-92210677D01*
X143637000Y-91685323D01*
X143534508Y-91170065D01*
X143333464Y-90684702D01*
X143041594Y-90247887D01*
X142670113Y-89876406D01*
X142233298Y-89584536D01*
X141747935Y-89383492D01*
X141232677Y-89281000D01*
X140707323Y-89281000D01*
X140192065Y-89383492D01*
X139706702Y-89584536D01*
X139269887Y-89876406D01*
X138898406Y-90247887D01*
X138606536Y-90684702D01*
X138405492Y-91170065D01*
X138303000Y-91685323D01*
X137769511Y-91685323D01*
X137753001Y-91602322D01*
X137716690Y-91482621D01*
X137659525Y-91344614D01*
X137600562Y-91234304D01*
X137517572Y-91110100D01*
X137438219Y-91013407D01*
X137332593Y-90907781D01*
X137235900Y-90828428D01*
X137111696Y-90745438D01*
X137001386Y-90686475D01*
X136863379Y-90629310D01*
X136743678Y-90592999D01*
X136687822Y-90581889D01*
X143430711Y-83839000D01*
X143785604Y-83839000D01*
X143865241Y-83918637D01*
X144100273Y-84075680D01*
X144361426Y-84183853D01*
X144638665Y-84239000D01*
X144921335Y-84239000D01*
X145198574Y-84183853D01*
X145459727Y-84075680D01*
X145694759Y-83918637D01*
X145894637Y-83718759D01*
X146051680Y-83483727D01*
X146159853Y-83222574D01*
X146215000Y-82945335D01*
X146215000Y-82662665D01*
X146159853Y-82385426D01*
X146051680Y-82124273D01*
X145894637Y-81889241D01*
X145694759Y-81689363D01*
X145459727Y-81532320D01*
X145198574Y-81424147D01*
X144921335Y-81369000D01*
X144638665Y-81369000D01*
X144628736Y-81370975D01*
X144808711Y-81191000D01*
X144921335Y-81191000D01*
X145198574Y-81135853D01*
X145459727Y-81027680D01*
X145694759Y-80870637D01*
X145894637Y-80670759D01*
X146051680Y-80435727D01*
X146159853Y-80174574D01*
X146215000Y-79897335D01*
X146215000Y-79614665D01*
X146159853Y-79337426D01*
X146051680Y-79076273D01*
X145894637Y-78841241D01*
X145694759Y-78641363D01*
X145459727Y-78484320D01*
X145198574Y-78376147D01*
X144921335Y-78321000D01*
X144799000Y-78321000D01*
X144799000Y-71472178D01*
X145124983Y-71254363D01*
X145422363Y-70956983D01*
X145656012Y-70607302D01*
X145816953Y-70218756D01*
X145899000Y-69806279D01*
X145899000Y-69385721D01*
X145816953Y-68973244D01*
X145656012Y-68584698D01*
X145441328Y-68263400D01*
X148295728Y-68263400D01*
X148298800Y-68827650D01*
X148457550Y-68986400D01*
X149656800Y-68986400D01*
X149656800Y-67787150D01*
X149910800Y-67787150D01*
X149910800Y-68986400D01*
X151110050Y-68986400D01*
X151268800Y-68827650D01*
X151271872Y-68263400D01*
X151259612Y-68138918D01*
X151223302Y-68019220D01*
X151164337Y-67908906D01*
X151084985Y-67812215D01*
X150988294Y-67732863D01*
X150877980Y-67673898D01*
X150758282Y-67637588D01*
X150633800Y-67625328D01*
X150069550Y-67628400D01*
X149910800Y-67787150D01*
X149656800Y-67787150D01*
X149498050Y-67628400D01*
X148933800Y-67625328D01*
X148809318Y-67637588D01*
X148689620Y-67673898D01*
X148579306Y-67732863D01*
X148482615Y-67812215D01*
X148403263Y-67908906D01*
X148344298Y-68019220D01*
X148307988Y-68138918D01*
X148295728Y-68263400D01*
X145441328Y-68263400D01*
X145422363Y-68235017D01*
X145124983Y-67937637D01*
X144775302Y-67703988D01*
X144386756Y-67543047D01*
X143974279Y-67461000D01*
X143553721Y-67461000D01*
X143141244Y-67543047D01*
X142752698Y-67703988D01*
X142403017Y-67937637D01*
X142105637Y-68235017D01*
X141871988Y-68584698D01*
X141711047Y-68973244D01*
X141629000Y-69385721D01*
X141629000Y-69806279D01*
X141711047Y-70218756D01*
X141871988Y-70607302D01*
X142105637Y-70956983D01*
X142403017Y-71254363D01*
X142729001Y-71472178D01*
X142729000Y-78311289D01*
X132400093Y-88640197D01*
X132360605Y-88672604D01*
X132328198Y-88712092D01*
X132328197Y-88712093D01*
X132231266Y-88830203D01*
X132135160Y-89010007D01*
X132075977Y-89205105D01*
X132055994Y-89408000D01*
X128543000Y-89408000D01*
X128543000Y-82737454D01*
X128602180Y-82719502D01*
X128712494Y-82660537D01*
X128809185Y-82581185D01*
X128888537Y-82484494D01*
X128947502Y-82374180D01*
X128969513Y-82301620D01*
X129101368Y-82433475D01*
X129344589Y-82595990D01*
X129614842Y-82707932D01*
X129901740Y-82765000D01*
X130194260Y-82765000D01*
X130481158Y-82707932D01*
X130751411Y-82595990D01*
X130994632Y-82433475D01*
X131113107Y-82315000D01*
X132667290Y-82315000D01*
X133185000Y-82832711D01*
X133185000Y-82945335D01*
X133240147Y-83222574D01*
X133348320Y-83483727D01*
X133505363Y-83718759D01*
X133705241Y-83918637D01*
X133940273Y-84075680D01*
X134201426Y-84183853D01*
X134478665Y-84239000D01*
X134761335Y-84239000D01*
X135038574Y-84183853D01*
X135299727Y-84075680D01*
X135534759Y-83918637D01*
X135734637Y-83718759D01*
X135891680Y-83483727D01*
X135999853Y-83222574D01*
X136055000Y-82945335D01*
X136055000Y-82662665D01*
X135999853Y-82385426D01*
X135891680Y-82124273D01*
X135734637Y-81889241D01*
X135534759Y-81689363D01*
X135299727Y-81532320D01*
X135038574Y-81424147D01*
X134761335Y-81369000D01*
X134648711Y-81369000D01*
X134468735Y-81189025D01*
X134478665Y-81191000D01*
X134761335Y-81191000D01*
X135038574Y-81135853D01*
X135299727Y-81027680D01*
X135534759Y-80870637D01*
X135734637Y-80670759D01*
X135891680Y-80435727D01*
X135999853Y-80174574D01*
X136055000Y-79897335D01*
X136055000Y-79614665D01*
X135999853Y-79337426D01*
X135891680Y-79076273D01*
X135734637Y-78841241D01*
X135534759Y-78641363D01*
X135299727Y-78484320D01*
X135038574Y-78376147D01*
X134761335Y-78321000D01*
X134648711Y-78321000D01*
X133101807Y-76774097D01*
X133069396Y-76734604D01*
X132911797Y-76605266D01*
X132731993Y-76509159D01*
X132536895Y-76449976D01*
X132384838Y-76435000D01*
X132384828Y-76435000D01*
X132334000Y-76429994D01*
X132283172Y-76435000D01*
X131113107Y-76435000D01*
X130994632Y-76316525D01*
X130751411Y-76154010D01*
X130481158Y-76042068D01*
X130194260Y-75985000D01*
X129901740Y-75985000D01*
X129614842Y-76042068D01*
X129344589Y-76154010D01*
X129101368Y-76316525D01*
X128969513Y-76448380D01*
X128947502Y-76375820D01*
X128888537Y-76265506D01*
X128809185Y-76168815D01*
X128712494Y-76089463D01*
X128602180Y-76030498D01*
X128482482Y-75994188D01*
X128358000Y-75981928D01*
X126658000Y-75981928D01*
X126533518Y-75994188D01*
X126413820Y-76030498D01*
X126303506Y-76089463D01*
X126206815Y-76168815D01*
X126127463Y-76265506D01*
X126068498Y-76375820D01*
X126032188Y-76495518D01*
X126019928Y-76620000D01*
X126019928Y-77494361D01*
X124780092Y-78734198D01*
X124740605Y-78766604D01*
X124708198Y-78806092D01*
X124708197Y-78806093D01*
X124611266Y-78924203D01*
X124515160Y-79104007D01*
X124455977Y-79299105D01*
X124435994Y-79502000D01*
X117541711Y-79502000D01*
X114319000Y-76279290D01*
X114319000Y-75290072D01*
X114784000Y-75290072D01*
X114908482Y-75277812D01*
X115028180Y-75241502D01*
X115138494Y-75182537D01*
X115235185Y-75103185D01*
X115314537Y-75006494D01*
X115373502Y-74896180D01*
X115409812Y-74776482D01*
X115422072Y-74652000D01*
X115422072Y-71652000D01*
X115409812Y-71527518D01*
X115373502Y-71407820D01*
X115314537Y-71297506D01*
X115235185Y-71200815D01*
X115138494Y-71121463D01*
X115028180Y-71062498D01*
X114908482Y-71026188D01*
X114784000Y-71013928D01*
X112218999Y-71013928D01*
X112218999Y-70600711D01*
X112689197Y-70130513D01*
X113073721Y-70207000D01*
X113494279Y-70207000D01*
X113906756Y-70124953D01*
X114295302Y-69964012D01*
X114644983Y-69730363D01*
X114942363Y-69432983D01*
X115176012Y-69083302D01*
X115336953Y-68694756D01*
X115419000Y-68282279D01*
X115419000Y-68096000D01*
X136545928Y-68096000D01*
X136545928Y-71096000D01*
X136558188Y-71220482D01*
X136594498Y-71340180D01*
X136653463Y-71450494D01*
X136732815Y-71547185D01*
X136829506Y-71626537D01*
X136939820Y-71685502D01*
X137059518Y-71721812D01*
X137184000Y-71734072D01*
X140184000Y-71734072D01*
X140308482Y-71721812D01*
X140428180Y-71685502D01*
X140538494Y-71626537D01*
X140635185Y-71547185D01*
X140714537Y-71450494D01*
X140773502Y-71340180D01*
X140809812Y-71220482D01*
X140822072Y-71096000D01*
X140822072Y-68096000D01*
X140809812Y-67971518D01*
X140773502Y-67851820D01*
X140714537Y-67741506D01*
X140635185Y-67644815D01*
X140538494Y-67565463D01*
X140428180Y-67506498D01*
X140308482Y-67470188D01*
X140184000Y-67457928D01*
X137184000Y-67457928D01*
X137059518Y-67470188D01*
X136939820Y-67506498D01*
X136829506Y-67565463D01*
X136732815Y-67644815D01*
X136653463Y-67741506D01*
X136594498Y-67851820D01*
X136558188Y-67971518D01*
X136545928Y-68096000D01*
X115419000Y-68096000D01*
X115419000Y-67861721D01*
X115336953Y-67449244D01*
X115242826Y-67222000D01*
X191551928Y-67222000D01*
X191555000Y-67786250D01*
X191713750Y-67945000D01*
X192913000Y-67945000D01*
X192913000Y-66745750D01*
X193167000Y-66745750D01*
X193167000Y-67945000D01*
X194366250Y-67945000D01*
X194525000Y-67786250D01*
X194528072Y-67222000D01*
X194515812Y-67097518D01*
X194479502Y-66977820D01*
X194420537Y-66867506D01*
X194341185Y-66770815D01*
X194244494Y-66691463D01*
X194134180Y-66632498D01*
X194014482Y-66596188D01*
X193890000Y-66583928D01*
X193325750Y-66587000D01*
X193167000Y-66745750D01*
X192913000Y-66745750D01*
X192754250Y-66587000D01*
X192190000Y-66583928D01*
X192065518Y-66596188D01*
X191945820Y-66632498D01*
X191835506Y-66691463D01*
X191738815Y-66770815D01*
X191659463Y-66867506D01*
X191600498Y-66977820D01*
X191564188Y-67097518D01*
X191551928Y-67222000D01*
X115242826Y-67222000D01*
X115176012Y-67060698D01*
X114942363Y-66711017D01*
X114644983Y-66413637D01*
X114295302Y-66179988D01*
X113906756Y-66019047D01*
X113494279Y-65937000D01*
X113073721Y-65937000D01*
X112661244Y-66019047D01*
X112272698Y-66179988D01*
X111923017Y-66413637D01*
X111625637Y-66711017D01*
X111391988Y-67060698D01*
X111231047Y-67449244D01*
X111149000Y-67861721D01*
X111149000Y-68282279D01*
X111225487Y-68666803D01*
X110488096Y-69404194D01*
X110448603Y-69436605D01*
X110319265Y-69594204D01*
X110223158Y-69774009D01*
X110163975Y-69969107D01*
X110148999Y-70121164D01*
X110148999Y-70121173D01*
X110143993Y-70172001D01*
X103563704Y-70172001D01*
X103580631Y-70146669D01*
X103749110Y-69739925D01*
X103835000Y-69308128D01*
X103835000Y-68867872D01*
X103749110Y-68436075D01*
X103580631Y-68029331D01*
X103336038Y-67663271D01*
X103024729Y-67351962D01*
X102658669Y-67107369D01*
X102251925Y-66938890D01*
X101820128Y-66853000D01*
X101379872Y-66853000D01*
X100948075Y-66938890D01*
X100541331Y-67107369D01*
X100175271Y-67351962D01*
X99863962Y-67663271D01*
X99619369Y-68029331D01*
X99450890Y-68436075D01*
X99365000Y-68867872D01*
X97180000Y-68867872D01*
X97180000Y-64668000D01*
X229972000Y-64668000D01*
X229972001Y-125832000D01*
G37*
X229972001Y-125832000D02*
X194634691Y-125832000D01*
X194791396Y-125703396D01*
X194823807Y-125663903D01*
X196783908Y-123703803D01*
X196823396Y-123671396D01*
X196905789Y-123571000D01*
X196952734Y-123513798D01*
X197023175Y-123382010D01*
X197048841Y-123333993D01*
X197108024Y-123138895D01*
X197123000Y-122986838D01*
X197123000Y-122986836D01*
X197128007Y-122936000D01*
X197123000Y-122885165D01*
X197123000Y-121191872D01*
X223317000Y-121191872D01*
X223317000Y-121632128D01*
X223402890Y-122063925D01*
X223571369Y-122470669D01*
X223815962Y-122836729D01*
X224127271Y-123148038D01*
X224493331Y-123392631D01*
X224900075Y-123561110D01*
X225331872Y-123647000D01*
X225772128Y-123647000D01*
X226203925Y-123561110D01*
X226610669Y-123392631D01*
X226976729Y-123148038D01*
X227288038Y-122836729D01*
X227532631Y-122470669D01*
X227701110Y-122063925D01*
X227787000Y-121632128D01*
X227787000Y-121191872D01*
X227701110Y-120760075D01*
X227532631Y-120353331D01*
X227288038Y-119987271D01*
X226976729Y-119675962D01*
X226610669Y-119431369D01*
X226203925Y-119262890D01*
X225772128Y-119177000D01*
X225331872Y-119177000D01*
X224900075Y-119262890D01*
X224493331Y-119431369D01*
X224127271Y-119675962D01*
X223815962Y-119987271D01*
X223571369Y-120353331D01*
X223402890Y-120760075D01*
X223317000Y-121191872D01*
X197123000Y-121191872D01*
X197123000Y-101462408D01*
X217043000Y-101462408D01*
X217043000Y-101737592D01*
X217096686Y-102007490D01*
X217201995Y-102261727D01*
X217354880Y-102490535D01*
X217549465Y-102685120D01*
X217778273Y-102838005D01*
X217855515Y-102870000D01*
X217778273Y-102901995D01*
X217549465Y-103054880D01*
X217354880Y-103249465D01*
X217201995Y-103478273D01*
X217096686Y-103732510D01*
X217043000Y-104002408D01*
X217043000Y-104277592D01*
X217096686Y-104547490D01*
X217201995Y-104801727D01*
X217354880Y-105030535D01*
X217549465Y-105225120D01*
X217778273Y-105378005D01*
X217855515Y-105410000D01*
X217778273Y-105441995D01*
X217549465Y-105594880D01*
X217354880Y-105789465D01*
X217201995Y-106018273D01*
X217096686Y-106272510D01*
X217043000Y-106542408D01*
X217043000Y-106817592D01*
X217096686Y-107087490D01*
X217201995Y-107341727D01*
X217354880Y-107570535D01*
X217549465Y-107765120D01*
X217778273Y-107918005D01*
X217855515Y-107950000D01*
X217778273Y-107981995D01*
X217549465Y-108134880D01*
X217354880Y-108329465D01*
X217201995Y-108558273D01*
X217096686Y-108812510D01*
X217043000Y-109082408D01*
X217043000Y-109357592D01*
X217096686Y-109627490D01*
X217201995Y-109881727D01*
X217354880Y-110110535D01*
X217549465Y-110305120D01*
X217778273Y-110458005D01*
X217855515Y-110490000D01*
X217778273Y-110521995D01*
X217549465Y-110674880D01*
X217354880Y-110869465D01*
X217201995Y-111098273D01*
X217096686Y-111352510D01*
X217043000Y-111622408D01*
X217043000Y-111897592D01*
X217096686Y-112167490D01*
X217201995Y-112421727D01*
X217354880Y-112650535D01*
X217549465Y-112845120D01*
X217778273Y-112998005D01*
X218032510Y-113103314D01*
X218302408Y-113157000D01*
X218577592Y-113157000D01*
X218847490Y-113103314D01*
X219101727Y-112998005D01*
X219330535Y-112845120D01*
X219525120Y-112650535D01*
X219678005Y-112421727D01*
X219783314Y-112167490D01*
X219837000Y-111897592D01*
X219837000Y-111622408D01*
X219783314Y-111352510D01*
X219678005Y-111098273D01*
X219525120Y-110869465D01*
X219330535Y-110674880D01*
X219101727Y-110521995D01*
X219024485Y-110490000D01*
X219101727Y-110458005D01*
X219330535Y-110305120D01*
X219525120Y-110110535D01*
X219678005Y-109881727D01*
X219783314Y-109627490D01*
X219837000Y-109357592D01*
X219837000Y-109082408D01*
X219783314Y-108812510D01*
X219678005Y-108558273D01*
X219525120Y-108329465D01*
X219330535Y-108134880D01*
X219101727Y-107981995D01*
X219024485Y-107950000D01*
X219101727Y-107918005D01*
X219330535Y-107765120D01*
X219525120Y-107570535D01*
X219678005Y-107341727D01*
X219783314Y-107087490D01*
X219837000Y-106817592D01*
X219837000Y-106542408D01*
X219783314Y-106272510D01*
X219678005Y-106018273D01*
X219525120Y-105789465D01*
X219330535Y-105594880D01*
X219101727Y-105441995D01*
X219024485Y-105410000D01*
X219101727Y-105378005D01*
X219330535Y-105225120D01*
X219525120Y-105030535D01*
X219678005Y-104801727D01*
X219783314Y-104547490D01*
X219837000Y-104277592D01*
X219837000Y-104002408D01*
X219783314Y-103732510D01*
X219678005Y-103478273D01*
X219525120Y-103249465D01*
X219330535Y-103054880D01*
X219101727Y-102901995D01*
X219024485Y-102870000D01*
X219101727Y-102838005D01*
X219330535Y-102685120D01*
X219525120Y-102490535D01*
X219678005Y-102261727D01*
X219783314Y-102007490D01*
X219837000Y-101737592D01*
X219837000Y-101462408D01*
X219783314Y-101192510D01*
X219678005Y-100938273D01*
X219525120Y-100709465D01*
X219330535Y-100514880D01*
X219101727Y-100361995D01*
X218847490Y-100256686D01*
X218577592Y-100203000D01*
X218302408Y-100203000D01*
X218032510Y-100256686D01*
X217778273Y-100361995D01*
X217549465Y-100514880D01*
X217354880Y-100709465D01*
X217201995Y-100938273D01*
X217096686Y-101192510D01*
X217043000Y-101462408D01*
X197123000Y-101462408D01*
X197123000Y-99110835D01*
X197128007Y-99060000D01*
X197115785Y-98935906D01*
X197108024Y-98857105D01*
X197048841Y-98662007D01*
X196982772Y-98538400D01*
X196952734Y-98482202D01*
X196855803Y-98364092D01*
X196823396Y-98324604D01*
X196783908Y-98292197D01*
X194525000Y-96033290D01*
X194525000Y-95870665D01*
X196685000Y-95870665D01*
X196685000Y-96153335D01*
X196740147Y-96430574D01*
X196848320Y-96691727D01*
X197005363Y-96926759D01*
X197205241Y-97126637D01*
X197440273Y-97283680D01*
X197701426Y-97391853D01*
X197978665Y-97447000D01*
X198261335Y-97447000D01*
X198538574Y-97391853D01*
X198799727Y-97283680D01*
X199034759Y-97126637D01*
X199234637Y-96926759D01*
X199391680Y-96691727D01*
X199499853Y-96430574D01*
X199555000Y-96153335D01*
X199555000Y-95870665D01*
X206845000Y-95870665D01*
X206845000Y-96153335D01*
X206900147Y-96430574D01*
X207008320Y-96691727D01*
X207165363Y-96926759D01*
X207365241Y-97126637D01*
X207600273Y-97283680D01*
X207861426Y-97391853D01*
X208138665Y-97447000D01*
X208421335Y-97447000D01*
X208698574Y-97391853D01*
X208959727Y-97283680D01*
X209194759Y-97126637D01*
X209274396Y-97047000D01*
X213818893Y-97047000D01*
X213937368Y-97165475D01*
X214180589Y-97327990D01*
X214450842Y-97439932D01*
X214737740Y-97497000D01*
X215030260Y-97497000D01*
X215317158Y-97439932D01*
X215587411Y-97327990D01*
X215830632Y-97165475D01*
X215962487Y-97033620D01*
X215984498Y-97106180D01*
X216043463Y-97216494D01*
X216122815Y-97313185D01*
X216219506Y-97392537D01*
X216329820Y-97451502D01*
X216449518Y-97487812D01*
X216574000Y-97500072D01*
X217138250Y-97497000D01*
X217297000Y-97338250D01*
X217297000Y-96139000D01*
X217551000Y-96139000D01*
X217551000Y-97338250D01*
X217709750Y-97497000D01*
X218274000Y-97500072D01*
X218398482Y-97487812D01*
X218518180Y-97451502D01*
X218628494Y-97392537D01*
X218725185Y-97313185D01*
X218804537Y-97216494D01*
X218863502Y-97106180D01*
X218899812Y-96986482D01*
X218912072Y-96862000D01*
X218909000Y-96297750D01*
X218750250Y-96139000D01*
X217551000Y-96139000D01*
X217297000Y-96139000D01*
X217277000Y-96139000D01*
X217277000Y-95885000D01*
X217297000Y-95885000D01*
X217297000Y-94685750D01*
X217551000Y-94685750D01*
X217551000Y-95885000D01*
X218750250Y-95885000D01*
X218909000Y-95726250D01*
X218912072Y-95162000D01*
X218899812Y-95037518D01*
X218863502Y-94917820D01*
X218804537Y-94807506D01*
X218725185Y-94710815D01*
X218628494Y-94631463D01*
X218518180Y-94572498D01*
X218398482Y-94536188D01*
X218274000Y-94523928D01*
X217709750Y-94527000D01*
X217551000Y-94685750D01*
X217297000Y-94685750D01*
X217138250Y-94527000D01*
X216574000Y-94523928D01*
X216449518Y-94536188D01*
X216329820Y-94572498D01*
X216219506Y-94631463D01*
X216122815Y-94710815D01*
X216043463Y-94807506D01*
X215984498Y-94917820D01*
X215962487Y-94990380D01*
X215830632Y-94858525D01*
X215587411Y-94696010D01*
X215317158Y-94584068D01*
X215030260Y-94527000D01*
X214737740Y-94527000D01*
X214450842Y-94584068D01*
X214180589Y-94696010D01*
X213937368Y-94858525D01*
X213818893Y-94977000D01*
X209274396Y-94977000D01*
X209194759Y-94897363D01*
X208959727Y-94740320D01*
X208698574Y-94632147D01*
X208421335Y-94577000D01*
X208138665Y-94577000D01*
X207861426Y-94632147D01*
X207600273Y-94740320D01*
X207365241Y-94897363D01*
X207165363Y-95097241D01*
X207008320Y-95332273D01*
X206900147Y-95593426D01*
X206845000Y-95870665D01*
X199555000Y-95870665D01*
X199499853Y-95593426D01*
X199391680Y-95332273D01*
X199234637Y-95097241D01*
X199034759Y-94897363D01*
X198799727Y-94740320D01*
X198538574Y-94632147D01*
X198261335Y-94577000D01*
X197978665Y-94577000D01*
X197701426Y-94632147D01*
X197440273Y-94740320D01*
X197205241Y-94897363D01*
X197005363Y-95097241D01*
X196848320Y-95332273D01*
X196740147Y-95593426D01*
X196685000Y-95870665D01*
X194525000Y-95870665D01*
X194525000Y-95865740D01*
X194467932Y-95578842D01*
X194355990Y-95308589D01*
X194193475Y-95065368D01*
X193986632Y-94858525D01*
X193812240Y-94742000D01*
X193986632Y-94625475D01*
X194193475Y-94418632D01*
X194355990Y-94175411D01*
X194467932Y-93905158D01*
X194525000Y-93618260D01*
X194525000Y-93325740D01*
X194467932Y-93038842D01*
X194355990Y-92768589D01*
X194193475Y-92525368D01*
X193986632Y-92318525D01*
X193812240Y-92202000D01*
X193986632Y-92085475D01*
X194193475Y-91878632D01*
X194355990Y-91635411D01*
X194467932Y-91365158D01*
X194525000Y-91078260D01*
X194525000Y-90785740D01*
X194467932Y-90498842D01*
X194355990Y-90228589D01*
X194193475Y-89985368D01*
X193986632Y-89778525D01*
X193812240Y-89662000D01*
X193986632Y-89545475D01*
X194193475Y-89338632D01*
X194355990Y-89095411D01*
X194467932Y-88825158D01*
X194525000Y-88538260D01*
X194525000Y-88245740D01*
X194467932Y-87958842D01*
X194355990Y-87688589D01*
X194193475Y-87445368D01*
X193986632Y-87238525D01*
X193812240Y-87122000D01*
X193986632Y-87005475D01*
X194193475Y-86798632D01*
X194355990Y-86555411D01*
X194376408Y-86506117D01*
X197085000Y-89214709D01*
X197085001Y-89937603D01*
X197005363Y-90017241D01*
X196848320Y-90252273D01*
X196740147Y-90513426D01*
X196685000Y-90790665D01*
X196685000Y-91073335D01*
X196740147Y-91350574D01*
X196848320Y-91611727D01*
X197005363Y-91846759D01*
X197205241Y-92046637D01*
X197440273Y-92203680D01*
X197701426Y-92311853D01*
X197978665Y-92367000D01*
X198261335Y-92367000D01*
X198538574Y-92311853D01*
X198799727Y-92203680D01*
X199034759Y-92046637D01*
X199234637Y-91846759D01*
X199391680Y-91611727D01*
X199499853Y-91350574D01*
X199555000Y-91073335D01*
X199555000Y-90790665D01*
X206845000Y-90790665D01*
X206845000Y-91073335D01*
X206900147Y-91350574D01*
X207008320Y-91611727D01*
X207165363Y-91846759D01*
X207365241Y-92046637D01*
X207600273Y-92203680D01*
X207861426Y-92311853D01*
X208138665Y-92367000D01*
X208421335Y-92367000D01*
X208698574Y-92311853D01*
X208959727Y-92203680D01*
X209194759Y-92046637D01*
X209274396Y-91967000D01*
X213818893Y-91967000D01*
X213937368Y-92085475D01*
X214180589Y-92247990D01*
X214450842Y-92359932D01*
X214737740Y-92417000D01*
X215030260Y-92417000D01*
X215317158Y-92359932D01*
X215587411Y-92247990D01*
X215830632Y-92085475D01*
X215962487Y-91953620D01*
X215984498Y-92026180D01*
X216043463Y-92136494D01*
X216122815Y-92233185D01*
X216219506Y-92312537D01*
X216329820Y-92371502D01*
X216449518Y-92407812D01*
X216574000Y-92420072D01*
X217138250Y-92417000D01*
X217297000Y-92258250D01*
X217297000Y-91059000D01*
X217551000Y-91059000D01*
X217551000Y-92258250D01*
X217709750Y-92417000D01*
X218274000Y-92420072D01*
X218398482Y-92407812D01*
X218518180Y-92371502D01*
X218628494Y-92312537D01*
X218725185Y-92233185D01*
X218804537Y-92136494D01*
X218863502Y-92026180D01*
X218899812Y-91906482D01*
X218912072Y-91782000D01*
X218909000Y-91217750D01*
X218750250Y-91059000D01*
X217551000Y-91059000D01*
X217297000Y-91059000D01*
X217277000Y-91059000D01*
X217277000Y-90805000D01*
X217297000Y-90805000D01*
X217297000Y-89605750D01*
X217551000Y-89605750D01*
X217551000Y-90805000D01*
X218750250Y-90805000D01*
X218909000Y-90646250D01*
X218912072Y-90082000D01*
X218899812Y-89957518D01*
X218863502Y-89837820D01*
X218804537Y-89727506D01*
X218725185Y-89630815D01*
X218628494Y-89551463D01*
X218518180Y-89492498D01*
X218398482Y-89456188D01*
X218274000Y-89443928D01*
X217709750Y-89447000D01*
X217551000Y-89605750D01*
X217297000Y-89605750D01*
X217138250Y-89447000D01*
X216574000Y-89443928D01*
X216449518Y-89456188D01*
X216329820Y-89492498D01*
X216219506Y-89551463D01*
X216122815Y-89630815D01*
X216043463Y-89727506D01*
X215984498Y-89837820D01*
X215962487Y-89910380D01*
X215830632Y-89778525D01*
X215587411Y-89616010D01*
X215317158Y-89504068D01*
X215030260Y-89447000D01*
X214737740Y-89447000D01*
X214450842Y-89504068D01*
X214180589Y-89616010D01*
X213937368Y-89778525D01*
X213818893Y-89897000D01*
X209274396Y-89897000D01*
X209194759Y-89817363D01*
X208959727Y-89660320D01*
X208698574Y-89552147D01*
X208421335Y-89497000D01*
X208138665Y-89497000D01*
X207861426Y-89552147D01*
X207600273Y-89660320D01*
X207365241Y-89817363D01*
X207165363Y-90017241D01*
X207008320Y-90252273D01*
X206900147Y-90513426D01*
X206845000Y-90790665D01*
X199555000Y-90790665D01*
X199499853Y-90513426D01*
X199391680Y-90252273D01*
X199234637Y-90017241D01*
X199155000Y-89937604D01*
X199155000Y-88836833D01*
X199160007Y-88785998D01*
X199155000Y-88735160D01*
X199140024Y-88583103D01*
X199080841Y-88388005D01*
X198985370Y-88209390D01*
X198984734Y-88208200D01*
X198887803Y-88090090D01*
X198855396Y-88050602D01*
X198815908Y-88018195D01*
X198084713Y-87287000D01*
X198261335Y-87287000D01*
X198538574Y-87231853D01*
X198799727Y-87123680D01*
X199034759Y-86966637D01*
X199234637Y-86766759D01*
X199391680Y-86531727D01*
X199499853Y-86270574D01*
X199555000Y-85993335D01*
X199555000Y-85710665D01*
X206845000Y-85710665D01*
X206845000Y-85993335D01*
X206900147Y-86270574D01*
X207008320Y-86531727D01*
X207165363Y-86766759D01*
X207365241Y-86966637D01*
X207600273Y-87123680D01*
X207861426Y-87231853D01*
X208138665Y-87287000D01*
X208421335Y-87287000D01*
X208698574Y-87231853D01*
X208959727Y-87123680D01*
X209194759Y-86966637D01*
X209274396Y-86887000D01*
X213818893Y-86887000D01*
X213937368Y-87005475D01*
X214180589Y-87167990D01*
X214450842Y-87279932D01*
X214737740Y-87337000D01*
X215030260Y-87337000D01*
X215317158Y-87279932D01*
X215587411Y-87167990D01*
X215830632Y-87005475D01*
X215962487Y-86873620D01*
X215984498Y-86946180D01*
X216043463Y-87056494D01*
X216122815Y-87153185D01*
X216219506Y-87232537D01*
X216329820Y-87291502D01*
X216449518Y-87327812D01*
X216574000Y-87340072D01*
X217138250Y-87337000D01*
X217297000Y-87178250D01*
X217297000Y-85979000D01*
X217551000Y-85979000D01*
X217551000Y-87178250D01*
X217709750Y-87337000D01*
X218274000Y-87340072D01*
X218398482Y-87327812D01*
X218518180Y-87291502D01*
X218628494Y-87232537D01*
X218725185Y-87153185D01*
X218804537Y-87056494D01*
X218863502Y-86946180D01*
X218899812Y-86826482D01*
X218912072Y-86702000D01*
X218909000Y-86137750D01*
X218750250Y-85979000D01*
X217551000Y-85979000D01*
X217297000Y-85979000D01*
X217277000Y-85979000D01*
X217277000Y-85725000D01*
X217297000Y-85725000D01*
X217297000Y-84525750D01*
X217551000Y-84525750D01*
X217551000Y-85725000D01*
X218750250Y-85725000D01*
X218909000Y-85566250D01*
X218912072Y-85002000D01*
X218899812Y-84877518D01*
X218863502Y-84757820D01*
X218804537Y-84647506D01*
X218725185Y-84550815D01*
X218628494Y-84471463D01*
X218518180Y-84412498D01*
X218398482Y-84376188D01*
X218274000Y-84363928D01*
X217709750Y-84367000D01*
X217551000Y-84525750D01*
X217297000Y-84525750D01*
X217138250Y-84367000D01*
X216574000Y-84363928D01*
X216449518Y-84376188D01*
X216329820Y-84412498D01*
X216219506Y-84471463D01*
X216122815Y-84550815D01*
X216043463Y-84647506D01*
X215984498Y-84757820D01*
X215962487Y-84830380D01*
X215830632Y-84698525D01*
X215587411Y-84536010D01*
X215317158Y-84424068D01*
X215030260Y-84367000D01*
X214737740Y-84367000D01*
X214450842Y-84424068D01*
X214180589Y-84536010D01*
X213937368Y-84698525D01*
X213818893Y-84817000D01*
X209274396Y-84817000D01*
X209194759Y-84737363D01*
X208959727Y-84580320D01*
X208698574Y-84472147D01*
X208421335Y-84417000D01*
X208138665Y-84417000D01*
X207861426Y-84472147D01*
X207600273Y-84580320D01*
X207365241Y-84737363D01*
X207165363Y-84937241D01*
X207008320Y-85172273D01*
X206900147Y-85433426D01*
X206845000Y-85710665D01*
X199555000Y-85710665D01*
X199499853Y-85433426D01*
X199391680Y-85172273D01*
X199234637Y-84937241D01*
X199155000Y-84857604D01*
X199155000Y-83362835D01*
X199160007Y-83312000D01*
X199149193Y-83202202D01*
X199140024Y-83109105D01*
X199080841Y-82914007D01*
X199020352Y-82800840D01*
X198984734Y-82734202D01*
X198887803Y-82616092D01*
X198855396Y-82576604D01*
X198815908Y-82544197D01*
X198442646Y-82170935D01*
X198538574Y-82151853D01*
X198799727Y-82043680D01*
X199034759Y-81886637D01*
X199234637Y-81686759D01*
X199391680Y-81451727D01*
X199499853Y-81190574D01*
X199555000Y-80913335D01*
X199555000Y-80630665D01*
X206845000Y-80630665D01*
X206845000Y-80913335D01*
X206900147Y-81190574D01*
X207008320Y-81451727D01*
X207165363Y-81686759D01*
X207365241Y-81886637D01*
X207600273Y-82043680D01*
X207861426Y-82151853D01*
X208138665Y-82207000D01*
X208421335Y-82207000D01*
X208698574Y-82151853D01*
X208959727Y-82043680D01*
X209194759Y-81886637D01*
X209274396Y-81807000D01*
X213818893Y-81807000D01*
X213937368Y-81925475D01*
X214180589Y-82087990D01*
X214450842Y-82199932D01*
X214737740Y-82257000D01*
X215030260Y-82257000D01*
X215317158Y-82199932D01*
X215587411Y-82087990D01*
X215830632Y-81925475D01*
X215962487Y-81793620D01*
X215984498Y-81866180D01*
X216043463Y-81976494D01*
X216122815Y-82073185D01*
X216219506Y-82152537D01*
X216329820Y-82211502D01*
X216449518Y-82247812D01*
X216574000Y-82260072D01*
X217138250Y-82257000D01*
X217297000Y-82098250D01*
X217297000Y-80899000D01*
X217551000Y-80899000D01*
X217551000Y-82098250D01*
X217709750Y-82257000D01*
X218274000Y-82260072D01*
X218398482Y-82247812D01*
X218518180Y-82211502D01*
X218628494Y-82152537D01*
X218725185Y-82073185D01*
X218804537Y-81976494D01*
X218863502Y-81866180D01*
X218899812Y-81746482D01*
X218912072Y-81622000D01*
X218909000Y-81057750D01*
X218750250Y-80899000D01*
X217551000Y-80899000D01*
X217297000Y-80899000D01*
X217277000Y-80899000D01*
X217277000Y-80645000D01*
X217297000Y-80645000D01*
X217297000Y-79445750D01*
X217551000Y-79445750D01*
X217551000Y-80645000D01*
X218750250Y-80645000D01*
X218909000Y-80486250D01*
X218912072Y-79922000D01*
X218899812Y-79797518D01*
X218863502Y-79677820D01*
X218804537Y-79567506D01*
X218725185Y-79470815D01*
X218628494Y-79391463D01*
X218518180Y-79332498D01*
X218398482Y-79296188D01*
X218274000Y-79283928D01*
X217709750Y-79287000D01*
X217551000Y-79445750D01*
X217297000Y-79445750D01*
X217138250Y-79287000D01*
X216574000Y-79283928D01*
X216449518Y-79296188D01*
X216329820Y-79332498D01*
X216219506Y-79391463D01*
X216122815Y-79470815D01*
X216043463Y-79567506D01*
X215984498Y-79677820D01*
X215962487Y-79750380D01*
X215830632Y-79618525D01*
X215587411Y-79456010D01*
X215317158Y-79344068D01*
X215030260Y-79287000D01*
X214737740Y-79287000D01*
X214450842Y-79344068D01*
X214180589Y-79456010D01*
X213937368Y-79618525D01*
X213818893Y-79737000D01*
X209274396Y-79737000D01*
X209194759Y-79657363D01*
X208959727Y-79500320D01*
X208698574Y-79392147D01*
X208421335Y-79337000D01*
X208138665Y-79337000D01*
X207861426Y-79392147D01*
X207600273Y-79500320D01*
X207365241Y-79657363D01*
X207165363Y-79857241D01*
X207008320Y-80092273D01*
X206900147Y-80353426D01*
X206845000Y-80630665D01*
X199555000Y-80630665D01*
X199499853Y-80353426D01*
X199391680Y-80092273D01*
X199234637Y-79857241D01*
X199155000Y-79777604D01*
X199155000Y-75742835D01*
X199160007Y-75692000D01*
X199149261Y-75582894D01*
X199140024Y-75489105D01*
X199080841Y-75294007D01*
X198996790Y-75136758D01*
X198984734Y-75114202D01*
X198887803Y-74996092D01*
X198855396Y-74956604D01*
X198815908Y-74924197D01*
X194525000Y-70633290D01*
X194525000Y-70465740D01*
X194467932Y-70178842D01*
X194355990Y-69908589D01*
X194193475Y-69665368D01*
X194061620Y-69533513D01*
X194134180Y-69511502D01*
X194244494Y-69452537D01*
X194341185Y-69373185D01*
X194420537Y-69276494D01*
X194479502Y-69166180D01*
X194515812Y-69046482D01*
X194528072Y-68922000D01*
X194527778Y-68867872D01*
X223317000Y-68867872D01*
X223317000Y-69308128D01*
X223402890Y-69739925D01*
X223571369Y-70146669D01*
X223815962Y-70512729D01*
X224127271Y-70824038D01*
X224493331Y-71068631D01*
X224900075Y-71237110D01*
X225331872Y-71323000D01*
X225772128Y-71323000D01*
X226203925Y-71237110D01*
X226610669Y-71068631D01*
X226976729Y-70824038D01*
X227288038Y-70512729D01*
X227532631Y-70146669D01*
X227701110Y-69739925D01*
X227787000Y-69308128D01*
X227787000Y-68867872D01*
X227701110Y-68436075D01*
X227532631Y-68029331D01*
X227288038Y-67663271D01*
X226976729Y-67351962D01*
X226610669Y-67107369D01*
X226203925Y-66938890D01*
X225772128Y-66853000D01*
X225331872Y-66853000D01*
X224900075Y-66938890D01*
X224493331Y-67107369D01*
X224127271Y-67351962D01*
X223815962Y-67663271D01*
X223571369Y-68029331D01*
X223402890Y-68436075D01*
X223317000Y-68867872D01*
X194527778Y-68867872D01*
X194525000Y-68357750D01*
X194366250Y-68199000D01*
X193167000Y-68199000D01*
X193167000Y-68219000D01*
X192913000Y-68219000D01*
X192913000Y-68199000D01*
X191713750Y-68199000D01*
X191555000Y-68357750D01*
X191551928Y-68922000D01*
X191564188Y-69046482D01*
X191600498Y-69166180D01*
X191659463Y-69276494D01*
X191738815Y-69373185D01*
X191835506Y-69452537D01*
X191945820Y-69511502D01*
X192018380Y-69533513D01*
X191886525Y-69665368D01*
X191724010Y-69908589D01*
X191612068Y-70178842D01*
X191555000Y-70465740D01*
X191555000Y-70758260D01*
X191612068Y-71045158D01*
X191724010Y-71315411D01*
X191886525Y-71558632D01*
X192093368Y-71765475D01*
X192267760Y-71882000D01*
X192093368Y-71998525D01*
X191886525Y-72205368D01*
X191724010Y-72448589D01*
X191612068Y-72718842D01*
X191555000Y-73005740D01*
X191555000Y-73298260D01*
X191612068Y-73585158D01*
X191724010Y-73855411D01*
X191886525Y-74098632D01*
X192093368Y-74305475D01*
X192267760Y-74422000D01*
X192093368Y-74538525D01*
X191886525Y-74745368D01*
X191724010Y-74988589D01*
X191612068Y-75258842D01*
X191598544Y-75326833D01*
X190955806Y-74684096D01*
X190923395Y-74644603D01*
X190765796Y-74515265D01*
X190585992Y-74419158D01*
X190390894Y-74359975D01*
X190238837Y-74344999D01*
X190238827Y-74344999D01*
X190187999Y-74339993D01*
X190137171Y-74344999D01*
X184166712Y-74344999D01*
X184191937Y-74319774D01*
X184220328Y-74277284D01*
X184252734Y-74237797D01*
X184276814Y-74192746D01*
X184305205Y-74150256D01*
X184324762Y-74103042D01*
X184348841Y-74057993D01*
X184363669Y-74009113D01*
X184383226Y-73961898D01*
X184393196Y-73911777D01*
X184408024Y-73862895D01*
X184413031Y-73812057D01*
X184423000Y-73761939D01*
X184423000Y-73710838D01*
X184428007Y-73660000D01*
X184423000Y-73609162D01*
X184423000Y-73558061D01*
X184413031Y-73507943D01*
X184408024Y-73457105D01*
X184393196Y-73408223D01*
X184383226Y-73358102D01*
X184363669Y-73310887D01*
X184348841Y-73262007D01*
X184324762Y-73216958D01*
X184305205Y-73169744D01*
X184276814Y-73127254D01*
X184252734Y-73082203D01*
X184220328Y-73042716D01*
X184191937Y-73000226D01*
X184155803Y-72964092D01*
X184123396Y-72924604D01*
X184083908Y-72892197D01*
X184047774Y-72856063D01*
X184005284Y-72827672D01*
X183965797Y-72795266D01*
X183920746Y-72771186D01*
X183878256Y-72742795D01*
X183831042Y-72723238D01*
X183785993Y-72699159D01*
X183737113Y-72684331D01*
X183689898Y-72664774D01*
X183639777Y-72654804D01*
X183590895Y-72639976D01*
X183540057Y-72634969D01*
X183489939Y-72625000D01*
X180542198Y-72625000D01*
X180491370Y-72619994D01*
X180440542Y-72625000D01*
X180440533Y-72625000D01*
X180288476Y-72639976D01*
X180093378Y-72699159D01*
X180056554Y-72718842D01*
X179913573Y-72795266D01*
X179813481Y-72877410D01*
X179755975Y-72924604D01*
X179723568Y-72964092D01*
X177772081Y-74915580D01*
X177732594Y-74947986D01*
X177700187Y-74987474D01*
X177700186Y-74987475D01*
X177603255Y-75105585D01*
X177507149Y-75285389D01*
X177447966Y-75480487D01*
X177427983Y-75683382D01*
X177432990Y-75734220D01*
X177432989Y-99729161D01*
X177427983Y-99779989D01*
X177432989Y-99830817D01*
X177432989Y-99830826D01*
X177447965Y-99982883D01*
X177507148Y-100177981D01*
X177603255Y-100357786D01*
X177732593Y-100515385D01*
X177772086Y-100547796D01*
X179433000Y-102208711D01*
X179433000Y-102299365D01*
X179487377Y-102572740D01*
X179594043Y-102830254D01*
X179748897Y-103062010D01*
X179945990Y-103259103D01*
X180177746Y-103413957D01*
X180216477Y-103430000D01*
X180177746Y-103446043D01*
X179945990Y-103600897D01*
X179748897Y-103797990D01*
X179594043Y-104029746D01*
X179487377Y-104287260D01*
X179433000Y-104560635D01*
X179433000Y-104839365D01*
X179487377Y-105112740D01*
X179594043Y-105370254D01*
X179748897Y-105602010D01*
X179945990Y-105799103D01*
X180177746Y-105953957D01*
X180216477Y-105970000D01*
X180177746Y-105986043D01*
X179945990Y-106140897D01*
X179748897Y-106337990D01*
X179594043Y-106569746D01*
X179487377Y-106827260D01*
X179433000Y-107100635D01*
X179433000Y-107379365D01*
X179487377Y-107652740D01*
X179594043Y-107910254D01*
X179748897Y-108142010D01*
X179945990Y-108339103D01*
X180177746Y-108493957D01*
X180216477Y-108510000D01*
X180177746Y-108526043D01*
X179945990Y-108680897D01*
X179748897Y-108877990D01*
X179594043Y-109109746D01*
X179487377Y-109367260D01*
X179433000Y-109640635D01*
X179433000Y-109919365D01*
X179487377Y-110192740D01*
X179594043Y-110450254D01*
X179748897Y-110682010D01*
X179945990Y-110879103D01*
X180177746Y-111033957D01*
X180216477Y-111050000D01*
X180177746Y-111066043D01*
X179945990Y-111220897D01*
X179748897Y-111417990D01*
X179594043Y-111649746D01*
X179487377Y-111907260D01*
X179433000Y-112180635D01*
X179433000Y-112459365D01*
X179487377Y-112732740D01*
X179594043Y-112990254D01*
X179748897Y-113222010D01*
X179945990Y-113419103D01*
X180177746Y-113573957D01*
X180216477Y-113590000D01*
X180177746Y-113606043D01*
X179945990Y-113760897D01*
X179748897Y-113957990D01*
X179594043Y-114189746D01*
X179487377Y-114447260D01*
X179433000Y-114720635D01*
X179433000Y-114999365D01*
X179487377Y-115272740D01*
X179594043Y-115530254D01*
X179748897Y-115762010D01*
X179945990Y-115959103D01*
X180177746Y-116113957D01*
X180216477Y-116130000D01*
X180177746Y-116146043D01*
X179945990Y-116300897D01*
X179748897Y-116497990D01*
X179594043Y-116729746D01*
X179487377Y-116987260D01*
X179433000Y-117260635D01*
X179433000Y-117539365D01*
X179487377Y-117812740D01*
X179594043Y-118070254D01*
X179748897Y-118302010D01*
X179945990Y-118499103D01*
X180177746Y-118653957D01*
X180216477Y-118670000D01*
X180177746Y-118686043D01*
X179945990Y-118840897D01*
X179748897Y-119037990D01*
X179594043Y-119269746D01*
X179487377Y-119527260D01*
X179433000Y-119800635D01*
X179433000Y-120079365D01*
X179487377Y-120352740D01*
X179594043Y-120610254D01*
X179748897Y-120842010D01*
X179945990Y-121039103D01*
X180177746Y-121193957D01*
X180216477Y-121210000D01*
X180177746Y-121226043D01*
X179945990Y-121380897D01*
X179748897Y-121577990D01*
X179594043Y-121809746D01*
X179487377Y-122067260D01*
X179433000Y-122340635D01*
X179433000Y-122619365D01*
X179473903Y-122825001D01*
X156822097Y-122825001D01*
X156863000Y-122619365D01*
X156863000Y-122340635D01*
X156808623Y-122067260D01*
X156701957Y-121809746D01*
X156547103Y-121577990D01*
X156350010Y-121380897D01*
X156118254Y-121226043D01*
X156079523Y-121210000D01*
X156118254Y-121193957D01*
X156350010Y-121039103D01*
X156547103Y-120842010D01*
X156701957Y-120610254D01*
X156808623Y-120352740D01*
X156863000Y-120079365D01*
X156863000Y-119800635D01*
X156808623Y-119527260D01*
X156701957Y-119269746D01*
X156547103Y-119037990D01*
X156350010Y-118840897D01*
X156118254Y-118686043D01*
X156079523Y-118670000D01*
X156118254Y-118653957D01*
X156350010Y-118499103D01*
X156547103Y-118302010D01*
X156701957Y-118070254D01*
X156808623Y-117812740D01*
X156863000Y-117539365D01*
X156863000Y-117260635D01*
X156808623Y-116987260D01*
X156701957Y-116729746D01*
X156547103Y-116497990D01*
X156350010Y-116300897D01*
X156118254Y-116146043D01*
X156079523Y-116130000D01*
X156118254Y-116113957D01*
X156350010Y-115959103D01*
X156547103Y-115762010D01*
X156701957Y-115530254D01*
X156808623Y-115272740D01*
X156863000Y-114999365D01*
X156863000Y-114720635D01*
X156808623Y-114447260D01*
X156701957Y-114189746D01*
X156547103Y-113957990D01*
X156350010Y-113760897D01*
X156118254Y-113606043D01*
X156079523Y-113590000D01*
X156118254Y-113573957D01*
X156350010Y-113419103D01*
X156414113Y-113355000D01*
X168177690Y-113355000D01*
X175319663Y-120496974D01*
X175463826Y-120641137D01*
X175506312Y-120669525D01*
X175545802Y-120701934D01*
X175590856Y-120726016D01*
X175633344Y-120754405D01*
X175680559Y-120773962D01*
X175725606Y-120798040D01*
X175774481Y-120812866D01*
X175821702Y-120832426D01*
X175871829Y-120842397D01*
X175920704Y-120857223D01*
X175971534Y-120862229D01*
X176021661Y-120872200D01*
X176072771Y-120872200D01*
X176123599Y-120877206D01*
X176174427Y-120872200D01*
X176225539Y-120872200D01*
X176275668Y-120862229D01*
X176326494Y-120857223D01*
X176375366Y-120842398D01*
X176425498Y-120832426D01*
X176472723Y-120812865D01*
X176521593Y-120798040D01*
X176566636Y-120773964D01*
X176613856Y-120754405D01*
X176656348Y-120726013D01*
X176701397Y-120701934D01*
X176740881Y-120669530D01*
X176783374Y-120641137D01*
X176819516Y-120604995D01*
X176858995Y-120572595D01*
X176891395Y-120533116D01*
X176927537Y-120496974D01*
X176955930Y-120454481D01*
X176988334Y-120414997D01*
X177012413Y-120369948D01*
X177040805Y-120327456D01*
X177060364Y-120280236D01*
X177084440Y-120235193D01*
X177099265Y-120186323D01*
X177118826Y-120139098D01*
X177128798Y-120088966D01*
X177143623Y-120040094D01*
X177148629Y-119989268D01*
X177158600Y-119939139D01*
X177158600Y-119888027D01*
X177163606Y-119837199D01*
X177158600Y-119786371D01*
X177158600Y-119735261D01*
X177148629Y-119685134D01*
X177143623Y-119634304D01*
X177128797Y-119585429D01*
X177118826Y-119535302D01*
X177099266Y-119488081D01*
X177084440Y-119439206D01*
X177060362Y-119394159D01*
X177040805Y-119346944D01*
X177012416Y-119304456D01*
X176988334Y-119259402D01*
X176955925Y-119219912D01*
X176927537Y-119177426D01*
X176783374Y-119033263D01*
X169374207Y-111624097D01*
X169341796Y-111584604D01*
X169184197Y-111455266D01*
X169004393Y-111359159D01*
X168809295Y-111299976D01*
X168657238Y-111285000D01*
X168657228Y-111285000D01*
X168606400Y-111279994D01*
X168555572Y-111285000D01*
X156414113Y-111285000D01*
X156350010Y-111220897D01*
X156118254Y-111066043D01*
X156082475Y-111051223D01*
X156177655Y-111000349D01*
X156246816Y-110758421D01*
X155448000Y-109959605D01*
X154649184Y-110758421D01*
X154718345Y-111000349D01*
X154820279Y-111048425D01*
X154777746Y-111066043D01*
X154545990Y-111220897D01*
X154348897Y-111417990D01*
X154194043Y-111649746D01*
X154087377Y-111907260D01*
X154066073Y-112014363D01*
X153345011Y-111293301D01*
X153345011Y-109851303D01*
X154027943Y-109851303D01*
X154069140Y-110126972D01*
X154163325Y-110389308D01*
X154227651Y-110509655D01*
X154469579Y-110578816D01*
X155268395Y-109780000D01*
X155627605Y-109780000D01*
X156426421Y-110578816D01*
X156668349Y-110509655D01*
X156787248Y-110257557D01*
X156854681Y-109987106D01*
X156868057Y-109708697D01*
X156826860Y-109433028D01*
X156732675Y-109170692D01*
X156668349Y-109050345D01*
X156426421Y-108981184D01*
X155627605Y-109780000D01*
X155268395Y-109780000D01*
X154469579Y-108981184D01*
X154227651Y-109050345D01*
X154108752Y-109302443D01*
X154041319Y-109572894D01*
X154027943Y-109851303D01*
X153345011Y-109851303D01*
X153345011Y-106600721D01*
X154033000Y-107288711D01*
X154033000Y-107379365D01*
X154087377Y-107652740D01*
X154194043Y-107910254D01*
X154348897Y-108142010D01*
X154545990Y-108339103D01*
X154777746Y-108493957D01*
X154813525Y-108508777D01*
X154718345Y-108559651D01*
X154649184Y-108801579D01*
X155448000Y-109600395D01*
X156246816Y-108801579D01*
X156177655Y-108559651D01*
X156075721Y-108511575D01*
X156118254Y-108493957D01*
X156350010Y-108339103D01*
X156547103Y-108142010D01*
X156701957Y-107910254D01*
X156808623Y-107652740D01*
X156863000Y-107379365D01*
X156863000Y-107100635D01*
X156808623Y-106827260D01*
X156701957Y-106569746D01*
X156547103Y-106337990D01*
X156350010Y-106140897D01*
X156118254Y-105986043D01*
X156079523Y-105970000D01*
X156118254Y-105953957D01*
X156350010Y-105799103D01*
X156547103Y-105602010D01*
X156701957Y-105370254D01*
X156808623Y-105112740D01*
X156863000Y-104839365D01*
X156863000Y-104560635D01*
X156808623Y-104287260D01*
X156701957Y-104029746D01*
X156547103Y-103797990D01*
X156350010Y-103600897D01*
X156118254Y-103446043D01*
X156079523Y-103430000D01*
X156118254Y-103413957D01*
X156350010Y-103259103D01*
X156547103Y-103062010D01*
X156701957Y-102830254D01*
X156808623Y-102572740D01*
X156863000Y-102299365D01*
X156863000Y-102020635D01*
X156808623Y-101747260D01*
X156701957Y-101489746D01*
X156547103Y-101257990D01*
X156350010Y-101060897D01*
X156118254Y-100906043D01*
X156079523Y-100890000D01*
X156118254Y-100873957D01*
X156350010Y-100719103D01*
X156547103Y-100522010D01*
X156701957Y-100290254D01*
X156808623Y-100032740D01*
X156863000Y-99759365D01*
X156863000Y-99480635D01*
X156808623Y-99207260D01*
X156701957Y-98949746D01*
X156547103Y-98717990D01*
X156350010Y-98520897D01*
X156118254Y-98366043D01*
X156079523Y-98350000D01*
X156118254Y-98333957D01*
X156350010Y-98179103D01*
X156547103Y-97982010D01*
X156701957Y-97750254D01*
X156808623Y-97492740D01*
X156863000Y-97219365D01*
X156863000Y-96940635D01*
X156808623Y-96667260D01*
X156701957Y-96409746D01*
X156547103Y-96177990D01*
X156350010Y-95980897D01*
X156118254Y-95826043D01*
X156079523Y-95810000D01*
X156118254Y-95793957D01*
X156350010Y-95639103D01*
X156547103Y-95442010D01*
X156701957Y-95210254D01*
X156808623Y-94952740D01*
X156863000Y-94679365D01*
X156863000Y-94400635D01*
X156808623Y-94127260D01*
X156701957Y-93869746D01*
X156547103Y-93637990D01*
X156350010Y-93440897D01*
X156118254Y-93286043D01*
X156079523Y-93270000D01*
X156118254Y-93253957D01*
X156350010Y-93099103D01*
X156547103Y-92902010D01*
X156701957Y-92670254D01*
X156808623Y-92412740D01*
X156863000Y-92139365D01*
X156863000Y-91860635D01*
X156808623Y-91587260D01*
X156701957Y-91329746D01*
X156547103Y-91097990D01*
X156350010Y-90900897D01*
X156118254Y-90746043D01*
X156079523Y-90730000D01*
X156118254Y-90713957D01*
X156350010Y-90559103D01*
X156547103Y-90362010D01*
X156701957Y-90130254D01*
X156808623Y-89872740D01*
X156863000Y-89599365D01*
X156863000Y-89320635D01*
X156808623Y-89047260D01*
X156701957Y-88789746D01*
X156547103Y-88557990D01*
X156350010Y-88360897D01*
X156118254Y-88206043D01*
X156079523Y-88190000D01*
X156118254Y-88173957D01*
X156350010Y-88019103D01*
X156547103Y-87822010D01*
X156701957Y-87590254D01*
X156808623Y-87332740D01*
X156863000Y-87059365D01*
X156863000Y-86780635D01*
X156808623Y-86507260D01*
X156701957Y-86249746D01*
X156547103Y-86017990D01*
X156350010Y-85820897D01*
X156118254Y-85666043D01*
X156079523Y-85650000D01*
X156118254Y-85633957D01*
X156350010Y-85479103D01*
X156547103Y-85282010D01*
X156701957Y-85050254D01*
X156808623Y-84792740D01*
X156863000Y-84519365D01*
X156863000Y-84240635D01*
X156808623Y-83967260D01*
X156701957Y-83709746D01*
X156547103Y-83477990D01*
X156350010Y-83280897D01*
X156118254Y-83126043D01*
X156079523Y-83110000D01*
X156118254Y-83093957D01*
X156350010Y-82939103D01*
X156547103Y-82742010D01*
X156701957Y-82510254D01*
X156808623Y-82252740D01*
X156863000Y-81979365D01*
X156863000Y-81700635D01*
X156808623Y-81427260D01*
X156701957Y-81169746D01*
X156547103Y-80937990D01*
X156350010Y-80740897D01*
X156118254Y-80586043D01*
X156079523Y-80570000D01*
X156118254Y-80553957D01*
X156350010Y-80399103D01*
X156547103Y-80202010D01*
X156701957Y-79970254D01*
X156808623Y-79712740D01*
X156863000Y-79439365D01*
X156863000Y-79160635D01*
X156808623Y-78887260D01*
X156701957Y-78629746D01*
X156547103Y-78397990D01*
X156350010Y-78200897D01*
X156304564Y-78170531D01*
X156352482Y-78165812D01*
X156472180Y-78129502D01*
X156582494Y-78070537D01*
X156679185Y-77991185D01*
X156758537Y-77894494D01*
X156817502Y-77784180D01*
X156853812Y-77664482D01*
X156866072Y-77540000D01*
X156866072Y-75980000D01*
X156853812Y-75855518D01*
X156817502Y-75735820D01*
X156758537Y-75625506D01*
X156679185Y-75528815D01*
X156582494Y-75449463D01*
X156472180Y-75390498D01*
X156352482Y-75354188D01*
X156228000Y-75341928D01*
X154668000Y-75341928D01*
X154543518Y-75354188D01*
X154423820Y-75390498D01*
X154313506Y-75449463D01*
X154216815Y-75528815D01*
X154137463Y-75625506D01*
X154078498Y-75735820D01*
X154042188Y-75855518D01*
X154029928Y-75980000D01*
X154029928Y-77540000D01*
X154042188Y-77664482D01*
X154078498Y-77784180D01*
X154137463Y-77894494D01*
X154216815Y-77991185D01*
X154313506Y-78070537D01*
X154423820Y-78129502D01*
X154543518Y-78165812D01*
X154591436Y-78170531D01*
X154545990Y-78200897D01*
X154348897Y-78397990D01*
X154194043Y-78629746D01*
X154087377Y-78887260D01*
X154066073Y-78994363D01*
X152268801Y-77197091D01*
X152268801Y-73154228D01*
X152273807Y-73103400D01*
X152268801Y-73052572D01*
X152268801Y-73052563D01*
X152253825Y-72900506D01*
X152194642Y-72705408D01*
X152148987Y-72619994D01*
X152098535Y-72525603D01*
X152001604Y-72407493D01*
X151969197Y-72368005D01*
X151929709Y-72335598D01*
X151268800Y-71674689D01*
X151268800Y-71507140D01*
X151211732Y-71220242D01*
X151099790Y-70949989D01*
X150937275Y-70706768D01*
X150805420Y-70574913D01*
X150877980Y-70552902D01*
X150988294Y-70493937D01*
X151084985Y-70414585D01*
X151164337Y-70317894D01*
X151223302Y-70207580D01*
X151259612Y-70087882D01*
X151271872Y-69963400D01*
X151268800Y-69399150D01*
X151110050Y-69240400D01*
X149910800Y-69240400D01*
X149910800Y-69260400D01*
X149656800Y-69260400D01*
X149656800Y-69240400D01*
X148457550Y-69240400D01*
X148298800Y-69399150D01*
X148295728Y-69963400D01*
X148307988Y-70087882D01*
X148344298Y-70207580D01*
X148403263Y-70317894D01*
X148482615Y-70414585D01*
X148579306Y-70493937D01*
X148689620Y-70552902D01*
X148762180Y-70574913D01*
X148630325Y-70706768D01*
X148467810Y-70949989D01*
X148355868Y-71220242D01*
X148298800Y-71507140D01*
X148298800Y-71799660D01*
X148355868Y-72086558D01*
X148467810Y-72356811D01*
X148630325Y-72600032D01*
X148837168Y-72806875D01*
X149011560Y-72923400D01*
X148837168Y-73039925D01*
X148630325Y-73246768D01*
X148467810Y-73489989D01*
X148355868Y-73760242D01*
X148298800Y-74047140D01*
X148298800Y-74339660D01*
X148355868Y-74626558D01*
X148467810Y-74896811D01*
X148630325Y-75140032D01*
X148837168Y-75346875D01*
X149011560Y-75463400D01*
X148837168Y-75579925D01*
X148630325Y-75786768D01*
X148467810Y-76029989D01*
X148355868Y-76300242D01*
X148298800Y-76587140D01*
X148298800Y-76879660D01*
X148355868Y-77166558D01*
X148467810Y-77436811D01*
X148630325Y-77680032D01*
X148837168Y-77886875D01*
X149011560Y-78003400D01*
X148837168Y-78119925D01*
X148630325Y-78326768D01*
X148467810Y-78569989D01*
X148355868Y-78840242D01*
X148298800Y-79127140D01*
X148298800Y-79419660D01*
X148355868Y-79706558D01*
X148467810Y-79976811D01*
X148630325Y-80220032D01*
X148837168Y-80426875D01*
X149011560Y-80543400D01*
X148837168Y-80659925D01*
X148630325Y-80866768D01*
X148467810Y-81109989D01*
X148355868Y-81380242D01*
X148298800Y-81667140D01*
X148298800Y-81959660D01*
X148355868Y-82246558D01*
X148467810Y-82516811D01*
X148630325Y-82760032D01*
X148837168Y-82966875D01*
X149011560Y-83083400D01*
X148837168Y-83199925D01*
X148630325Y-83406768D01*
X148467810Y-83649989D01*
X148355868Y-83920242D01*
X148298800Y-84207140D01*
X148298800Y-84499660D01*
X148355868Y-84786558D01*
X148467810Y-85056811D01*
X148630325Y-85300032D01*
X148837168Y-85506875D01*
X149011560Y-85623400D01*
X148837168Y-85739925D01*
X148630325Y-85946768D01*
X148467810Y-86189989D01*
X148355868Y-86460242D01*
X148298800Y-86747140D01*
X148298800Y-87039660D01*
X148355868Y-87326558D01*
X148467810Y-87596811D01*
X148630325Y-87840032D01*
X148837168Y-88046875D01*
X149011560Y-88163400D01*
X148837168Y-88279925D01*
X148630325Y-88486768D01*
X148467810Y-88729989D01*
X148355868Y-89000242D01*
X148298800Y-89287140D01*
X148298800Y-89579660D01*
X148355868Y-89866558D01*
X148467810Y-90136811D01*
X148630325Y-90380032D01*
X148837168Y-90586875D01*
X149011560Y-90703400D01*
X148837168Y-90819925D01*
X148630325Y-91026768D01*
X148467810Y-91269989D01*
X148355868Y-91540242D01*
X148298800Y-91827140D01*
X148298800Y-92119660D01*
X148355868Y-92406558D01*
X148467810Y-92676811D01*
X148630325Y-92920032D01*
X148837168Y-93126875D01*
X149011560Y-93243400D01*
X148837168Y-93359925D01*
X148630325Y-93566768D01*
X148467810Y-93809989D01*
X148355868Y-94080242D01*
X148298800Y-94367140D01*
X148298800Y-94659660D01*
X148355868Y-94946558D01*
X148467810Y-95216811D01*
X148630325Y-95460032D01*
X148837168Y-95666875D01*
X149011560Y-95783400D01*
X148837168Y-95899925D01*
X148630325Y-96106768D01*
X148467810Y-96349989D01*
X148355868Y-96620242D01*
X148298800Y-96907140D01*
X148298800Y-97199660D01*
X148355868Y-97486558D01*
X148467810Y-97756811D01*
X148630325Y-98000032D01*
X148837168Y-98206875D01*
X149011560Y-98323400D01*
X148837168Y-98439925D01*
X148630325Y-98646768D01*
X148467810Y-98889989D01*
X148355868Y-99160242D01*
X148298800Y-99447140D01*
X148298800Y-99739660D01*
X148355868Y-100026558D01*
X148467810Y-100296811D01*
X148630325Y-100540032D01*
X148837168Y-100746875D01*
X149011560Y-100863400D01*
X148837168Y-100979925D01*
X148630325Y-101186768D01*
X148467810Y-101429989D01*
X148355868Y-101700242D01*
X148298800Y-101987140D01*
X148298800Y-102279660D01*
X148355868Y-102566558D01*
X148467810Y-102836811D01*
X148630325Y-103080032D01*
X148837168Y-103286875D01*
X149011560Y-103403400D01*
X148837168Y-103519925D01*
X148630325Y-103726768D01*
X148467810Y-103969989D01*
X148355868Y-104240242D01*
X148298800Y-104527140D01*
X148298800Y-104819660D01*
X148355868Y-105106558D01*
X148467810Y-105376811D01*
X148630325Y-105620032D01*
X148837168Y-105826875D01*
X149011560Y-105943400D01*
X148837168Y-106059925D01*
X148630325Y-106266768D01*
X148467810Y-106509989D01*
X148355868Y-106780242D01*
X148298800Y-107067140D01*
X148298800Y-107234689D01*
X146865890Y-108667600D01*
X142570227Y-108667600D01*
X142519399Y-108662594D01*
X142468571Y-108667600D01*
X142468562Y-108667600D01*
X142316505Y-108682576D01*
X142121407Y-108741759D01*
X142059719Y-108774732D01*
X141941602Y-108837866D01*
X141829310Y-108930022D01*
X141784004Y-108967204D01*
X141751597Y-109006692D01*
X141576711Y-109181578D01*
X141568922Y-109129867D01*
X141475636Y-108870977D01*
X141413656Y-108755020D01*
X141173565Y-108688040D01*
X140387605Y-109474000D01*
X140401748Y-109488143D01*
X140222143Y-109667748D01*
X140208000Y-109653605D01*
X139422040Y-110439565D01*
X139489020Y-110679656D01*
X139624760Y-110743485D01*
X139546273Y-110775995D01*
X139317465Y-110928880D01*
X139122880Y-111123465D01*
X138969995Y-111352273D01*
X138864686Y-111606510D01*
X138811000Y-111876408D01*
X138811000Y-111947289D01*
X137480097Y-113278193D01*
X137440604Y-113310604D01*
X137311266Y-113468203D01*
X137215159Y-113648008D01*
X137155976Y-113843106D01*
X137141000Y-113995163D01*
X137141000Y-113995172D01*
X137135994Y-114046000D01*
X137141000Y-114096828D01*
X137141000Y-114757172D01*
X137135994Y-114808000D01*
X137141000Y-114858828D01*
X137141000Y-114858838D01*
X137151134Y-114961727D01*
X137155977Y-115010895D01*
X137215160Y-115205993D01*
X137311266Y-115385797D01*
X137402271Y-115496686D01*
X137440605Y-115543396D01*
X137480093Y-115575803D01*
X140235201Y-118330912D01*
X140192065Y-118339492D01*
X139706702Y-118540536D01*
X139269887Y-118832406D01*
X138898406Y-119203887D01*
X138606536Y-119640702D01*
X138405492Y-120126065D01*
X138303000Y-120641323D01*
X138303000Y-121166677D01*
X138405492Y-121681935D01*
X138606536Y-122167298D01*
X138898406Y-122604113D01*
X139269887Y-122975594D01*
X139706702Y-123267464D01*
X140192065Y-123468508D01*
X140707323Y-123571000D01*
X141232677Y-123571000D01*
X141747935Y-123468508D01*
X142233298Y-123267464D01*
X142670113Y-122975594D01*
X143041594Y-122604113D01*
X143333464Y-122167298D01*
X143534508Y-121681935D01*
X143543088Y-121638799D01*
X147568197Y-125663908D01*
X147600604Y-125703396D01*
X147640092Y-125735803D01*
X147757308Y-125832000D01*
X97180000Y-125832000D01*
X97180000Y-121191872D01*
X99365000Y-121191872D01*
X99365000Y-121632128D01*
X99450890Y-122063925D01*
X99619369Y-122470669D01*
X99863962Y-122836729D01*
X100175271Y-123148038D01*
X100541331Y-123392631D01*
X100948075Y-123561110D01*
X101379872Y-123647000D01*
X101820128Y-123647000D01*
X102251925Y-123561110D01*
X102658669Y-123392631D01*
X103024729Y-123148038D01*
X103336038Y-122836729D01*
X103580631Y-122470669D01*
X103749110Y-122063925D01*
X103835000Y-121632128D01*
X103835000Y-121191872D01*
X103749110Y-120760075D01*
X103699922Y-120641323D01*
X109347000Y-120641323D01*
X109347000Y-121166677D01*
X109449492Y-121681935D01*
X109650536Y-122167298D01*
X109942406Y-122604113D01*
X110313887Y-122975594D01*
X110750702Y-123267464D01*
X111236065Y-123468508D01*
X111751323Y-123571000D01*
X112276677Y-123571000D01*
X112791935Y-123468508D01*
X113277298Y-123267464D01*
X113714113Y-122975594D01*
X114085594Y-122604113D01*
X114377464Y-122167298D01*
X114578508Y-121681935D01*
X114681000Y-121166677D01*
X114681000Y-120641323D01*
X114578508Y-120126065D01*
X114377464Y-119640702D01*
X114085594Y-119203887D01*
X113714113Y-118832406D01*
X113277298Y-118540536D01*
X112791935Y-118339492D01*
X112276677Y-118237000D01*
X111751323Y-118237000D01*
X111236065Y-118339492D01*
X110750702Y-118540536D01*
X110313887Y-118832406D01*
X109942406Y-119203887D01*
X109650536Y-119640702D01*
X109449492Y-120126065D01*
X109347000Y-120641323D01*
X103699922Y-120641323D01*
X103580631Y-120353331D01*
X103336038Y-119987271D01*
X103024729Y-119675962D01*
X102658669Y-119431369D01*
X102251925Y-119262890D01*
X101820128Y-119177000D01*
X101379872Y-119177000D01*
X100948075Y-119262890D01*
X100541331Y-119431369D01*
X100175271Y-119675962D01*
X99863962Y-119987271D01*
X99619369Y-120353331D01*
X99450890Y-120760075D01*
X99365000Y-121191872D01*
X97180000Y-121191872D01*
X97180000Y-109546017D01*
X138806090Y-109546017D01*
X138847078Y-109818133D01*
X138940364Y-110077023D01*
X139002344Y-110192980D01*
X139242435Y-110259960D01*
X140028395Y-109474000D01*
X139242435Y-108688040D01*
X139002344Y-108755020D01*
X138885244Y-109004048D01*
X138818977Y-109271135D01*
X138806090Y-109546017D01*
X97180000Y-109546017D01*
X97180000Y-91685323D01*
X109347000Y-91685323D01*
X109347000Y-92210677D01*
X109449492Y-92725935D01*
X109650536Y-93211298D01*
X109942406Y-93648113D01*
X110313887Y-94019594D01*
X110750702Y-94311464D01*
X111236065Y-94512508D01*
X111751323Y-94615000D01*
X112276677Y-94615000D01*
X112791935Y-94512508D01*
X113277298Y-94311464D01*
X113714113Y-94019594D01*
X114085594Y-93648113D01*
X114377464Y-93211298D01*
X114578508Y-92725935D01*
X114681000Y-92210677D01*
X114681000Y-91685323D01*
X114578508Y-91170065D01*
X114377464Y-90684702D01*
X114085594Y-90247887D01*
X113714113Y-89876406D01*
X113277298Y-89584536D01*
X112791935Y-89383492D01*
X112276677Y-89281000D01*
X111751323Y-89281000D01*
X111236065Y-89383492D01*
X110750702Y-89584536D01*
X110313887Y-89876406D01*
X109942406Y-90247887D01*
X109650536Y-90684702D01*
X109449492Y-91170065D01*
X109347000Y-91685323D01*
X97180000Y-91685323D01*
X97180000Y-68867872D01*
X99365000Y-68867872D01*
X99365000Y-69308128D01*
X99450890Y-69739925D01*
X99619369Y-70146669D01*
X99863962Y-70512729D01*
X100175271Y-70824038D01*
X100541331Y-71068631D01*
X100948075Y-71237110D01*
X101379872Y-71323000D01*
X101820128Y-71323000D01*
X102251925Y-71237110D01*
X102658669Y-71068631D01*
X103024729Y-70824038D01*
X103336038Y-70512729D01*
X103563704Y-70172001D01*
X110143993Y-70172001D01*
X110148999Y-70222829D01*
X110149000Y-78857161D01*
X110143993Y-78907999D01*
X110163976Y-79110894D01*
X110223159Y-79305992D01*
X110319265Y-79485796D01*
X110416196Y-79603906D01*
X110448604Y-79643395D01*
X110488091Y-79675802D01*
X115288197Y-84475908D01*
X115320604Y-84515396D01*
X115360092Y-84547803D01*
X115478202Y-84644734D01*
X115554701Y-84685623D01*
X115658007Y-84740841D01*
X115853105Y-84800024D01*
X116005162Y-84815000D01*
X116005164Y-84815000D01*
X116056000Y-84820007D01*
X116106835Y-84815000D01*
X116634342Y-84815000D01*
X116650866Y-84835134D01*
X116876986Y-85020706D01*
X117134966Y-85158599D01*
X117414889Y-85243513D01*
X117633050Y-85265000D01*
X118078950Y-85265000D01*
X118297111Y-85243513D01*
X118577034Y-85158599D01*
X118835014Y-85020706D01*
X119061134Y-84835134D01*
X119246706Y-84609014D01*
X119384599Y-84351034D01*
X119469513Y-84071111D01*
X119498185Y-83780000D01*
X119469513Y-83488889D01*
X119384599Y-83208966D01*
X119246706Y-82950986D01*
X119061134Y-82724866D01*
X118997663Y-82672777D01*
X119099386Y-82618405D01*
X119233962Y-82507962D01*
X119344405Y-82373386D01*
X119426472Y-82219850D01*
X119477008Y-82053254D01*
X119494072Y-81880000D01*
X119494072Y-80680000D01*
X119477008Y-80506746D01*
X119426472Y-80340150D01*
X119344405Y-80186614D01*
X119233962Y-80052038D01*
X119099386Y-79941595D01*
X118945850Y-79859528D01*
X118779254Y-79808992D01*
X118606000Y-79791928D01*
X117831639Y-79791928D01*
X117541711Y-79502000D01*
X124435994Y-79502000D01*
X124441001Y-79552838D01*
X124441000Y-92151172D01*
X124435994Y-92202000D01*
X124441000Y-92252828D01*
X124441000Y-92252837D01*
X124455976Y-92404894D01*
X124515159Y-92599992D01*
X124611266Y-92779797D01*
X124740604Y-92937396D01*
X124780097Y-92969807D01*
X138811000Y-107000711D01*
X138811000Y-107071592D01*
X138864686Y-107341490D01*
X138969995Y-107595727D01*
X139122880Y-107824535D01*
X139317465Y-108019120D01*
X139546273Y-108172005D01*
X139617943Y-108201692D01*
X139604977Y-108206364D01*
X139489020Y-108268344D01*
X139422040Y-108508435D01*
X140208000Y-109294395D01*
X140993960Y-108508435D01*
X140926980Y-108268344D01*
X140791240Y-108204515D01*
X140869727Y-108172005D01*
X141098535Y-108019120D01*
X141293120Y-107824535D01*
X141446005Y-107595727D01*
X141551314Y-107341490D01*
X141605000Y-107071592D01*
X141605000Y-106796408D01*
X141551314Y-106526510D01*
X141446005Y-106272273D01*
X141293120Y-106043465D01*
X141098535Y-105848880D01*
X140869727Y-105695995D01*
X140792485Y-105664000D01*
X140869727Y-105632005D01*
X141098535Y-105479120D01*
X141293120Y-105284535D01*
X141446005Y-105055727D01*
X141551314Y-104801490D01*
X141605000Y-104531592D01*
X141605000Y-104256408D01*
X141551314Y-103986510D01*
X141446005Y-103732273D01*
X141293120Y-103503465D01*
X141098535Y-103308880D01*
X140869727Y-103155995D01*
X140792485Y-103124000D01*
X140869727Y-103092005D01*
X141098535Y-102939120D01*
X141293120Y-102744535D01*
X141446005Y-102515727D01*
X141551314Y-102261490D01*
X141605000Y-101991592D01*
X141605000Y-101716408D01*
X141551314Y-101446510D01*
X141446005Y-101192273D01*
X141293120Y-100963465D01*
X141098535Y-100768880D01*
X140869727Y-100615995D01*
X140792485Y-100584000D01*
X140869727Y-100552005D01*
X141098535Y-100399120D01*
X141293120Y-100204535D01*
X141446005Y-99975727D01*
X141551314Y-99721490D01*
X141605000Y-99451592D01*
X141605000Y-99176408D01*
X141551314Y-98906510D01*
X141446005Y-98652273D01*
X141293120Y-98423465D01*
X141098535Y-98228880D01*
X140869727Y-98075995D01*
X140615490Y-97970686D01*
X140345592Y-97917000D01*
X140070408Y-97917000D01*
X139800510Y-97970686D01*
X139546273Y-98075995D01*
X139317465Y-98228880D01*
X139122880Y-98423465D01*
X138969995Y-98652273D01*
X138864686Y-98906510D01*
X138811000Y-99176408D01*
X138811000Y-99451592D01*
X138864686Y-99721490D01*
X138969995Y-99975727D01*
X139122880Y-100204535D01*
X139317465Y-100399120D01*
X139546273Y-100552005D01*
X139623515Y-100584000D01*
X139546273Y-100615995D01*
X139317465Y-100768880D01*
X139122880Y-100963465D01*
X138969995Y-101192273D01*
X138864686Y-101446510D01*
X138841381Y-101563671D01*
X128543000Y-91265290D01*
X128543000Y-89408000D01*
X132055994Y-89408000D01*
X132061001Y-89458837D01*
X132061000Y-91135172D01*
X132055994Y-91186000D01*
X132061000Y-91236828D01*
X132061000Y-91236837D01*
X132075976Y-91388894D01*
X132135159Y-91583992D01*
X132231266Y-91763797D01*
X132360604Y-91921396D01*
X132400097Y-91953807D01*
X132461597Y-92015307D01*
X132461597Y-92022689D01*
X132473857Y-92147170D01*
X132502999Y-92293678D01*
X132539310Y-92413379D01*
X132596475Y-92551386D01*
X132655438Y-92661696D01*
X132738428Y-92785900D01*
X132817781Y-92882593D01*
X132923407Y-92988219D01*
X133020100Y-93067572D01*
X133144304Y-93150562D01*
X133254614Y-93209525D01*
X133392621Y-93266690D01*
X133512322Y-93303001D01*
X133658830Y-93332143D01*
X133783311Y-93344403D01*
X133932689Y-93344403D01*
X134057170Y-93332143D01*
X134203678Y-93303001D01*
X134323379Y-93266690D01*
X134461386Y-93209525D01*
X134571696Y-93150562D01*
X134695900Y-93067572D01*
X134792593Y-92988219D01*
X134898219Y-92882593D01*
X134977572Y-92785900D01*
X135060562Y-92661696D01*
X135119525Y-92551386D01*
X135128000Y-92530926D01*
X135136475Y-92551386D01*
X135195438Y-92661696D01*
X135278428Y-92785900D01*
X135357781Y-92882593D01*
X135463407Y-92988219D01*
X135560100Y-93067572D01*
X135684304Y-93150562D01*
X135794614Y-93209525D01*
X135932621Y-93266690D01*
X136052322Y-93303001D01*
X136198830Y-93332143D01*
X136323311Y-93344403D01*
X136472689Y-93344403D01*
X136597170Y-93332143D01*
X136743678Y-93303001D01*
X136863379Y-93266690D01*
X137001386Y-93209525D01*
X137111696Y-93150562D01*
X137235900Y-93067572D01*
X137332593Y-92988219D01*
X137438219Y-92882593D01*
X137517572Y-92785900D01*
X137600562Y-92661696D01*
X137659525Y-92551386D01*
X137716690Y-92413379D01*
X137753001Y-92293678D01*
X137782143Y-92147170D01*
X137794403Y-92022689D01*
X137794403Y-91873311D01*
X137782143Y-91748830D01*
X137769511Y-91685323D01*
X138303000Y-91685323D01*
X138303000Y-92210677D01*
X138405492Y-92725935D01*
X138606536Y-93211298D01*
X138898406Y-93648113D01*
X139269887Y-94019594D01*
X139706702Y-94311464D01*
X140192065Y-94512508D01*
X140707323Y-94615000D01*
X141232677Y-94615000D01*
X141747935Y-94512508D01*
X142233298Y-94311464D01*
X142670113Y-94019594D01*
X143041594Y-93648113D01*
X143333464Y-93211298D01*
X143534508Y-92725935D01*
X143637000Y-92210677D01*
X143637000Y-91685323D01*
X143534508Y-91170065D01*
X143333464Y-90684702D01*
X143041594Y-90247887D01*
X142670113Y-89876406D01*
X142233298Y-89584536D01*
X141747935Y-89383492D01*
X141232677Y-89281000D01*
X140707323Y-89281000D01*
X140192065Y-89383492D01*
X139706702Y-89584536D01*
X139269887Y-89876406D01*
X138898406Y-90247887D01*
X138606536Y-90684702D01*
X138405492Y-91170065D01*
X138303000Y-91685323D01*
X137769511Y-91685323D01*
X137753001Y-91602322D01*
X137716690Y-91482621D01*
X137659525Y-91344614D01*
X137600562Y-91234304D01*
X137517572Y-91110100D01*
X137438219Y-91013407D01*
X137332593Y-90907781D01*
X137235900Y-90828428D01*
X137111696Y-90745438D01*
X137001386Y-90686475D01*
X136863379Y-90629310D01*
X136743678Y-90592999D01*
X136687822Y-90581889D01*
X143430711Y-83839000D01*
X143785604Y-83839000D01*
X143865241Y-83918637D01*
X144100273Y-84075680D01*
X144361426Y-84183853D01*
X144638665Y-84239000D01*
X144921335Y-84239000D01*
X145198574Y-84183853D01*
X145459727Y-84075680D01*
X145694759Y-83918637D01*
X145894637Y-83718759D01*
X146051680Y-83483727D01*
X146159853Y-83222574D01*
X146215000Y-82945335D01*
X146215000Y-82662665D01*
X146159853Y-82385426D01*
X146051680Y-82124273D01*
X145894637Y-81889241D01*
X145694759Y-81689363D01*
X145459727Y-81532320D01*
X145198574Y-81424147D01*
X144921335Y-81369000D01*
X144638665Y-81369000D01*
X144628736Y-81370975D01*
X144808711Y-81191000D01*
X144921335Y-81191000D01*
X145198574Y-81135853D01*
X145459727Y-81027680D01*
X145694759Y-80870637D01*
X145894637Y-80670759D01*
X146051680Y-80435727D01*
X146159853Y-80174574D01*
X146215000Y-79897335D01*
X146215000Y-79614665D01*
X146159853Y-79337426D01*
X146051680Y-79076273D01*
X145894637Y-78841241D01*
X145694759Y-78641363D01*
X145459727Y-78484320D01*
X145198574Y-78376147D01*
X144921335Y-78321000D01*
X144799000Y-78321000D01*
X144799000Y-71472178D01*
X145124983Y-71254363D01*
X145422363Y-70956983D01*
X145656012Y-70607302D01*
X145816953Y-70218756D01*
X145899000Y-69806279D01*
X145899000Y-69385721D01*
X145816953Y-68973244D01*
X145656012Y-68584698D01*
X145441328Y-68263400D01*
X148295728Y-68263400D01*
X148298800Y-68827650D01*
X148457550Y-68986400D01*
X149656800Y-68986400D01*
X149656800Y-67787150D01*
X149910800Y-67787150D01*
X149910800Y-68986400D01*
X151110050Y-68986400D01*
X151268800Y-68827650D01*
X151271872Y-68263400D01*
X151259612Y-68138918D01*
X151223302Y-68019220D01*
X151164337Y-67908906D01*
X151084985Y-67812215D01*
X150988294Y-67732863D01*
X150877980Y-67673898D01*
X150758282Y-67637588D01*
X150633800Y-67625328D01*
X150069550Y-67628400D01*
X149910800Y-67787150D01*
X149656800Y-67787150D01*
X149498050Y-67628400D01*
X148933800Y-67625328D01*
X148809318Y-67637588D01*
X148689620Y-67673898D01*
X148579306Y-67732863D01*
X148482615Y-67812215D01*
X148403263Y-67908906D01*
X148344298Y-68019220D01*
X148307988Y-68138918D01*
X148295728Y-68263400D01*
X145441328Y-68263400D01*
X145422363Y-68235017D01*
X145124983Y-67937637D01*
X144775302Y-67703988D01*
X144386756Y-67543047D01*
X143974279Y-67461000D01*
X143553721Y-67461000D01*
X143141244Y-67543047D01*
X142752698Y-67703988D01*
X142403017Y-67937637D01*
X142105637Y-68235017D01*
X141871988Y-68584698D01*
X141711047Y-68973244D01*
X141629000Y-69385721D01*
X141629000Y-69806279D01*
X141711047Y-70218756D01*
X141871988Y-70607302D01*
X142105637Y-70956983D01*
X142403017Y-71254363D01*
X142729001Y-71472178D01*
X142729000Y-78311289D01*
X132400093Y-88640197D01*
X132360605Y-88672604D01*
X132328198Y-88712092D01*
X132328197Y-88712093D01*
X132231266Y-88830203D01*
X132135160Y-89010007D01*
X132075977Y-89205105D01*
X132055994Y-89408000D01*
X128543000Y-89408000D01*
X128543000Y-82737454D01*
X128602180Y-82719502D01*
X128712494Y-82660537D01*
X128809185Y-82581185D01*
X128888537Y-82484494D01*
X128947502Y-82374180D01*
X128969513Y-82301620D01*
X129101368Y-82433475D01*
X129344589Y-82595990D01*
X129614842Y-82707932D01*
X129901740Y-82765000D01*
X130194260Y-82765000D01*
X130481158Y-82707932D01*
X130751411Y-82595990D01*
X130994632Y-82433475D01*
X131113107Y-82315000D01*
X132667290Y-82315000D01*
X133185000Y-82832711D01*
X133185000Y-82945335D01*
X133240147Y-83222574D01*
X133348320Y-83483727D01*
X133505363Y-83718759D01*
X133705241Y-83918637D01*
X133940273Y-84075680D01*
X134201426Y-84183853D01*
X134478665Y-84239000D01*
X134761335Y-84239000D01*
X135038574Y-84183853D01*
X135299727Y-84075680D01*
X135534759Y-83918637D01*
X135734637Y-83718759D01*
X135891680Y-83483727D01*
X135999853Y-83222574D01*
X136055000Y-82945335D01*
X136055000Y-82662665D01*
X135999853Y-82385426D01*
X135891680Y-82124273D01*
X135734637Y-81889241D01*
X135534759Y-81689363D01*
X135299727Y-81532320D01*
X135038574Y-81424147D01*
X134761335Y-81369000D01*
X134648711Y-81369000D01*
X134468735Y-81189025D01*
X134478665Y-81191000D01*
X134761335Y-81191000D01*
X135038574Y-81135853D01*
X135299727Y-81027680D01*
X135534759Y-80870637D01*
X135734637Y-80670759D01*
X135891680Y-80435727D01*
X135999853Y-80174574D01*
X136055000Y-79897335D01*
X136055000Y-79614665D01*
X135999853Y-79337426D01*
X135891680Y-79076273D01*
X135734637Y-78841241D01*
X135534759Y-78641363D01*
X135299727Y-78484320D01*
X135038574Y-78376147D01*
X134761335Y-78321000D01*
X134648711Y-78321000D01*
X133101807Y-76774097D01*
X133069396Y-76734604D01*
X132911797Y-76605266D01*
X132731993Y-76509159D01*
X132536895Y-76449976D01*
X132384838Y-76435000D01*
X132384828Y-76435000D01*
X132334000Y-76429994D01*
X132283172Y-76435000D01*
X131113107Y-76435000D01*
X130994632Y-76316525D01*
X130751411Y-76154010D01*
X130481158Y-76042068D01*
X130194260Y-75985000D01*
X129901740Y-75985000D01*
X129614842Y-76042068D01*
X129344589Y-76154010D01*
X129101368Y-76316525D01*
X128969513Y-76448380D01*
X128947502Y-76375820D01*
X128888537Y-76265506D01*
X128809185Y-76168815D01*
X128712494Y-76089463D01*
X128602180Y-76030498D01*
X128482482Y-75994188D01*
X128358000Y-75981928D01*
X126658000Y-75981928D01*
X126533518Y-75994188D01*
X126413820Y-76030498D01*
X126303506Y-76089463D01*
X126206815Y-76168815D01*
X126127463Y-76265506D01*
X126068498Y-76375820D01*
X126032188Y-76495518D01*
X126019928Y-76620000D01*
X126019928Y-77494361D01*
X124780092Y-78734198D01*
X124740605Y-78766604D01*
X124708198Y-78806092D01*
X124708197Y-78806093D01*
X124611266Y-78924203D01*
X124515160Y-79104007D01*
X124455977Y-79299105D01*
X124435994Y-79502000D01*
X117541711Y-79502000D01*
X114319000Y-76279290D01*
X114319000Y-75290072D01*
X114784000Y-75290072D01*
X114908482Y-75277812D01*
X115028180Y-75241502D01*
X115138494Y-75182537D01*
X115235185Y-75103185D01*
X115314537Y-75006494D01*
X115373502Y-74896180D01*
X115409812Y-74776482D01*
X115422072Y-74652000D01*
X115422072Y-71652000D01*
X115409812Y-71527518D01*
X115373502Y-71407820D01*
X115314537Y-71297506D01*
X115235185Y-71200815D01*
X115138494Y-71121463D01*
X115028180Y-71062498D01*
X114908482Y-71026188D01*
X114784000Y-71013928D01*
X112218999Y-71013928D01*
X112218999Y-70600711D01*
X112689197Y-70130513D01*
X113073721Y-70207000D01*
X113494279Y-70207000D01*
X113906756Y-70124953D01*
X114295302Y-69964012D01*
X114644983Y-69730363D01*
X114942363Y-69432983D01*
X115176012Y-69083302D01*
X115336953Y-68694756D01*
X115419000Y-68282279D01*
X115419000Y-68096000D01*
X136545928Y-68096000D01*
X136545928Y-71096000D01*
X136558188Y-71220482D01*
X136594498Y-71340180D01*
X136653463Y-71450494D01*
X136732815Y-71547185D01*
X136829506Y-71626537D01*
X136939820Y-71685502D01*
X137059518Y-71721812D01*
X137184000Y-71734072D01*
X140184000Y-71734072D01*
X140308482Y-71721812D01*
X140428180Y-71685502D01*
X140538494Y-71626537D01*
X140635185Y-71547185D01*
X140714537Y-71450494D01*
X140773502Y-71340180D01*
X140809812Y-71220482D01*
X140822072Y-71096000D01*
X140822072Y-68096000D01*
X140809812Y-67971518D01*
X140773502Y-67851820D01*
X140714537Y-67741506D01*
X140635185Y-67644815D01*
X140538494Y-67565463D01*
X140428180Y-67506498D01*
X140308482Y-67470188D01*
X140184000Y-67457928D01*
X137184000Y-67457928D01*
X137059518Y-67470188D01*
X136939820Y-67506498D01*
X136829506Y-67565463D01*
X136732815Y-67644815D01*
X136653463Y-67741506D01*
X136594498Y-67851820D01*
X136558188Y-67971518D01*
X136545928Y-68096000D01*
X115419000Y-68096000D01*
X115419000Y-67861721D01*
X115336953Y-67449244D01*
X115242826Y-67222000D01*
X191551928Y-67222000D01*
X191555000Y-67786250D01*
X191713750Y-67945000D01*
X192913000Y-67945000D01*
X192913000Y-66745750D01*
X193167000Y-66745750D01*
X193167000Y-67945000D01*
X194366250Y-67945000D01*
X194525000Y-67786250D01*
X194528072Y-67222000D01*
X194515812Y-67097518D01*
X194479502Y-66977820D01*
X194420537Y-66867506D01*
X194341185Y-66770815D01*
X194244494Y-66691463D01*
X194134180Y-66632498D01*
X194014482Y-66596188D01*
X193890000Y-66583928D01*
X193325750Y-66587000D01*
X193167000Y-66745750D01*
X192913000Y-66745750D01*
X192754250Y-66587000D01*
X192190000Y-66583928D01*
X192065518Y-66596188D01*
X191945820Y-66632498D01*
X191835506Y-66691463D01*
X191738815Y-66770815D01*
X191659463Y-66867506D01*
X191600498Y-66977820D01*
X191564188Y-67097518D01*
X191551928Y-67222000D01*
X115242826Y-67222000D01*
X115176012Y-67060698D01*
X114942363Y-66711017D01*
X114644983Y-66413637D01*
X114295302Y-66179988D01*
X113906756Y-66019047D01*
X113494279Y-65937000D01*
X113073721Y-65937000D01*
X112661244Y-66019047D01*
X112272698Y-66179988D01*
X111923017Y-66413637D01*
X111625637Y-66711017D01*
X111391988Y-67060698D01*
X111231047Y-67449244D01*
X111149000Y-67861721D01*
X111149000Y-68282279D01*
X111225487Y-68666803D01*
X110488096Y-69404194D01*
X110448603Y-69436605D01*
X110319265Y-69594204D01*
X110223158Y-69774009D01*
X110163975Y-69969107D01*
X110148999Y-70121164D01*
X110148999Y-70121173D01*
X110143993Y-70172001D01*
X103563704Y-70172001D01*
X103580631Y-70146669D01*
X103749110Y-69739925D01*
X103835000Y-69308128D01*
X103835000Y-68867872D01*
X103749110Y-68436075D01*
X103580631Y-68029331D01*
X103336038Y-67663271D01*
X103024729Y-67351962D01*
X102658669Y-67107369D01*
X102251925Y-66938890D01*
X101820128Y-66853000D01*
X101379872Y-66853000D01*
X100948075Y-66938890D01*
X100541331Y-67107369D01*
X100175271Y-67351962D01*
X99863962Y-67663271D01*
X99619369Y-68029331D01*
X99450890Y-68436075D01*
X99365000Y-68867872D01*
X97180000Y-68867872D01*
X97180000Y-64668000D01*
X229972000Y-64668000D01*
X229972001Y-125832000D01*
G36*
X181041748Y-91985858D02*
G01*
X181027605Y-92000000D01*
X181826421Y-92798816D01*
X182068349Y-92729655D01*
X182187248Y-92477557D01*
X182230076Y-92305787D01*
X190643000Y-100718711D01*
X190642999Y-105267171D01*
X190637993Y-105317999D01*
X190642999Y-105368827D01*
X190642999Y-105368836D01*
X190647637Y-105415926D01*
X190159711Y-104928000D01*
X190179908Y-104907803D01*
X190219396Y-104875396D01*
X190251803Y-104835908D01*
X190287937Y-104799774D01*
X190316328Y-104757284D01*
X190348734Y-104717797D01*
X190372814Y-104672746D01*
X190401205Y-104630256D01*
X190420762Y-104583042D01*
X190444841Y-104537993D01*
X190459669Y-104489113D01*
X190479226Y-104441898D01*
X190489196Y-104391777D01*
X190504024Y-104342895D01*
X190509031Y-104292057D01*
X190519000Y-104241939D01*
X190519000Y-103226827D01*
X190524006Y-103175999D01*
X190519000Y-103125171D01*
X190519000Y-103125163D01*
X190504024Y-102973105D01*
X190444841Y-102778007D01*
X190360168Y-102619594D01*
X190348734Y-102598202D01*
X190251803Y-102480092D01*
X190219396Y-102440604D01*
X190179908Y-102408197D01*
X182263000Y-94491290D01*
X182263000Y-94400635D01*
X182208623Y-94127260D01*
X182101957Y-93869746D01*
X181947103Y-93637990D01*
X181750010Y-93440897D01*
X181518254Y-93286043D01*
X181482475Y-93271223D01*
X181577655Y-93220349D01*
X181646816Y-92978421D01*
X180848000Y-92179605D01*
X180833858Y-92193748D01*
X180654253Y-92014143D01*
X180668395Y-92000000D01*
X180654253Y-91985858D01*
X180833858Y-91806253D01*
X180848000Y-91820395D01*
X180862143Y-91806253D01*
X181041748Y-91985858D01*
G37*
X181041748Y-91985858D02*
X181027605Y-92000000D01*
X181826421Y-92798816D01*
X182068349Y-92729655D01*
X182187248Y-92477557D01*
X182230076Y-92305787D01*
X190643000Y-100718711D01*
X190642999Y-105267171D01*
X190637993Y-105317999D01*
X190642999Y-105368827D01*
X190642999Y-105368836D01*
X190647637Y-105415926D01*
X190159711Y-104928000D01*
X190179908Y-104907803D01*
X190219396Y-104875396D01*
X190251803Y-104835908D01*
X190287937Y-104799774D01*
X190316328Y-104757284D01*
X190348734Y-104717797D01*
X190372814Y-104672746D01*
X190401205Y-104630256D01*
X190420762Y-104583042D01*
X190444841Y-104537993D01*
X190459669Y-104489113D01*
X190479226Y-104441898D01*
X190489196Y-104391777D01*
X190504024Y-104342895D01*
X190509031Y-104292057D01*
X190519000Y-104241939D01*
X190519000Y-103226827D01*
X190524006Y-103175999D01*
X190519000Y-103125171D01*
X190519000Y-103125163D01*
X190504024Y-102973105D01*
X190444841Y-102778007D01*
X190360168Y-102619594D01*
X190348734Y-102598202D01*
X190251803Y-102480092D01*
X190219396Y-102440604D01*
X190179908Y-102408197D01*
X182263000Y-94491290D01*
X182263000Y-94400635D01*
X182208623Y-94127260D01*
X182101957Y-93869746D01*
X181947103Y-93637990D01*
X181750010Y-93440897D01*
X181518254Y-93286043D01*
X181482475Y-93271223D01*
X181577655Y-93220349D01*
X181646816Y-92978421D01*
X180848000Y-92179605D01*
X180833858Y-92193748D01*
X180654253Y-92014143D01*
X180668395Y-92000000D01*
X180654253Y-91985858D01*
X180833858Y-91806253D01*
X180848000Y-91820395D01*
X180862143Y-91806253D01*
X181041748Y-91985858D01*
G36*
X193233748Y-104125858D02*
G01*
X193219605Y-104140000D01*
X193233748Y-104154143D01*
X193054143Y-104333748D01*
X193040000Y-104319605D01*
X193025858Y-104333748D01*
X192846253Y-104154143D01*
X192860395Y-104140000D01*
X192846253Y-104125858D01*
X193025858Y-103946253D01*
X193040000Y-103960395D01*
X193054143Y-103946253D01*
X193233748Y-104125858D01*
G37*
X193233748Y-104125858D02*
X193219605Y-104140000D01*
X193233748Y-104154143D01*
X193054143Y-104333748D01*
X193040000Y-104319605D01*
X193025858Y-104333748D01*
X192846253Y-104154143D01*
X192860395Y-104140000D01*
X192846253Y-104125858D01*
X193025858Y-103946253D01*
X193040000Y-103960395D01*
X193054143Y-103946253D01*
X193233748Y-104125858D01*
G36*
X183398803Y-76456232D02*
G01*
X183383977Y-76505105D01*
X183378971Y-76555933D01*
X183369000Y-76606061D01*
X183369000Y-76657172D01*
X183363994Y-76708000D01*
X183369000Y-76758828D01*
X183369000Y-76809939D01*
X183378971Y-76860067D01*
X183383977Y-76910895D01*
X183398803Y-76959768D01*
X183408774Y-77009898D01*
X183428335Y-77057122D01*
X183443160Y-77105993D01*
X183467236Y-77151036D01*
X183486795Y-77198256D01*
X183515187Y-77240748D01*
X183539266Y-77285797D01*
X183571671Y-77325283D01*
X183600063Y-77367774D01*
X183744226Y-77511937D01*
X183744229Y-77511939D01*
X187700197Y-81467908D01*
X187732604Y-81507396D01*
X187772092Y-81539803D01*
X187890202Y-81636734D01*
X187967393Y-81677993D01*
X188070007Y-81732841D01*
X188265105Y-81792024D01*
X188417162Y-81807000D01*
X188417164Y-81807000D01*
X188468000Y-81812007D01*
X188518835Y-81807000D01*
X191974893Y-81807000D01*
X192093368Y-81925475D01*
X192267760Y-82042000D01*
X192093368Y-82158525D01*
X191886525Y-82365368D01*
X191724010Y-82608589D01*
X191612068Y-82878842D01*
X191555000Y-83165740D01*
X191555000Y-83458260D01*
X191612068Y-83745158D01*
X191724010Y-84015411D01*
X191886525Y-84258632D01*
X192093368Y-84465475D01*
X192267760Y-84582000D01*
X192093368Y-84698525D01*
X191886525Y-84905368D01*
X191724010Y-85148589D01*
X191612068Y-85418842D01*
X191555000Y-85705740D01*
X191555000Y-85998260D01*
X191612068Y-86285158D01*
X191724010Y-86555411D01*
X191886525Y-86798632D01*
X192093368Y-87005475D01*
X192267760Y-87122000D01*
X192093368Y-87238525D01*
X191886525Y-87445368D01*
X191724010Y-87688589D01*
X191612068Y-87958842D01*
X191555000Y-88245740D01*
X191555000Y-88538260D01*
X191612068Y-88825158D01*
X191724010Y-89095411D01*
X191886525Y-89338632D01*
X192093368Y-89545475D01*
X192267760Y-89662000D01*
X192093368Y-89778525D01*
X191886525Y-89985368D01*
X191724010Y-90228589D01*
X191612068Y-90498842D01*
X191555000Y-90785740D01*
X191555000Y-91078260D01*
X191612068Y-91365158D01*
X191724010Y-91635411D01*
X191886525Y-91878632D01*
X192093368Y-92085475D01*
X192267760Y-92202000D01*
X192093368Y-92318525D01*
X191886525Y-92525368D01*
X191724010Y-92768589D01*
X191612068Y-93038842D01*
X191555000Y-93325740D01*
X191555000Y-93618260D01*
X191612068Y-93905158D01*
X191724010Y-94175411D01*
X191886525Y-94418632D01*
X192093368Y-94625475D01*
X192267760Y-94742000D01*
X192093368Y-94858525D01*
X191886525Y-95065368D01*
X191724010Y-95308589D01*
X191612068Y-95578842D01*
X191555000Y-95865740D01*
X191555000Y-96158260D01*
X191612068Y-96445158D01*
X191724010Y-96715411D01*
X191886525Y-96958632D01*
X192093368Y-97165475D01*
X192336589Y-97327990D01*
X192606842Y-97439932D01*
X192893740Y-97497000D01*
X193061290Y-97497000D01*
X195053001Y-99488712D01*
X195053001Y-102149290D01*
X194437000Y-101533290D01*
X194437000Y-101462408D01*
X194383314Y-101192510D01*
X194278005Y-100938273D01*
X194125120Y-100709465D01*
X193930535Y-100514880D01*
X193701727Y-100361995D01*
X193447490Y-100256686D01*
X193177592Y-100203000D01*
X192902408Y-100203000D01*
X192713144Y-100240647D01*
X192712999Y-100239170D01*
X192712999Y-100239161D01*
X192698023Y-100087104D01*
X192638840Y-99892006D01*
X192542733Y-99712202D01*
X192413395Y-99554603D01*
X192373907Y-99522196D01*
X188635711Y-95784000D01*
X188655908Y-95763803D01*
X188695396Y-95731396D01*
X188727803Y-95691908D01*
X188763937Y-95655774D01*
X188792328Y-95613284D01*
X188824734Y-95573797D01*
X188848814Y-95528746D01*
X188877205Y-95486256D01*
X188896762Y-95439042D01*
X188920841Y-95393993D01*
X188935669Y-95345113D01*
X188955226Y-95297898D01*
X188965196Y-95247777D01*
X188980024Y-95198895D01*
X188985031Y-95148057D01*
X188995000Y-95097939D01*
X188995000Y-86462835D01*
X189000007Y-86412000D01*
X188995000Y-86361162D01*
X188980024Y-86209105D01*
X188920841Y-86014007D01*
X188834247Y-85852000D01*
X188824734Y-85834202D01*
X188727803Y-85716092D01*
X188695396Y-85676604D01*
X188655908Y-85644197D01*
X182263000Y-79251290D01*
X182263000Y-79160635D01*
X182208623Y-78887260D01*
X182101957Y-78629746D01*
X181947103Y-78397990D01*
X181750010Y-78200897D01*
X181518254Y-78046043D01*
X181482475Y-78031223D01*
X181577655Y-77980349D01*
X181646816Y-77738421D01*
X180848000Y-76939605D01*
X180833858Y-76953748D01*
X180654253Y-76774143D01*
X180668395Y-76760000D01*
X180654253Y-76745858D01*
X180833858Y-76566253D01*
X180848000Y-76580395D01*
X180862143Y-76566253D01*
X181041748Y-76745858D01*
X181027605Y-76760000D01*
X181826421Y-77558816D01*
X182068349Y-77489655D01*
X182187248Y-77237557D01*
X182254681Y-76967106D01*
X182268057Y-76688697D01*
X182227155Y-76414999D01*
X183407004Y-76414999D01*
X183398803Y-76456232D01*
G37*
X183398803Y-76456232D02*
X183383977Y-76505105D01*
X183378971Y-76555933D01*
X183369000Y-76606061D01*
X183369000Y-76657172D01*
X183363994Y-76708000D01*
X183369000Y-76758828D01*
X183369000Y-76809939D01*
X183378971Y-76860067D01*
X183383977Y-76910895D01*
X183398803Y-76959768D01*
X183408774Y-77009898D01*
X183428335Y-77057122D01*
X183443160Y-77105993D01*
X183467236Y-77151036D01*
X183486795Y-77198256D01*
X183515187Y-77240748D01*
X183539266Y-77285797D01*
X183571671Y-77325283D01*
X183600063Y-77367774D01*
X183744226Y-77511937D01*
X183744229Y-77511939D01*
X187700197Y-81467908D01*
X187732604Y-81507396D01*
X187772092Y-81539803D01*
X187890202Y-81636734D01*
X187967393Y-81677993D01*
X188070007Y-81732841D01*
X188265105Y-81792024D01*
X188417162Y-81807000D01*
X188417164Y-81807000D01*
X188468000Y-81812007D01*
X188518835Y-81807000D01*
X191974893Y-81807000D01*
X192093368Y-81925475D01*
X192267760Y-82042000D01*
X192093368Y-82158525D01*
X191886525Y-82365368D01*
X191724010Y-82608589D01*
X191612068Y-82878842D01*
X191555000Y-83165740D01*
X191555000Y-83458260D01*
X191612068Y-83745158D01*
X191724010Y-84015411D01*
X191886525Y-84258632D01*
X192093368Y-84465475D01*
X192267760Y-84582000D01*
X192093368Y-84698525D01*
X191886525Y-84905368D01*
X191724010Y-85148589D01*
X191612068Y-85418842D01*
X191555000Y-85705740D01*
X191555000Y-85998260D01*
X191612068Y-86285158D01*
X191724010Y-86555411D01*
X191886525Y-86798632D01*
X192093368Y-87005475D01*
X192267760Y-87122000D01*
X192093368Y-87238525D01*
X191886525Y-87445368D01*
X191724010Y-87688589D01*
X191612068Y-87958842D01*
X191555000Y-88245740D01*
X191555000Y-88538260D01*
X191612068Y-88825158D01*
X191724010Y-89095411D01*
X191886525Y-89338632D01*
X192093368Y-89545475D01*
X192267760Y-89662000D01*
X192093368Y-89778525D01*
X191886525Y-89985368D01*
X191724010Y-90228589D01*
X191612068Y-90498842D01*
X191555000Y-90785740D01*
X191555000Y-91078260D01*
X191612068Y-91365158D01*
X191724010Y-91635411D01*
X191886525Y-91878632D01*
X192093368Y-92085475D01*
X192267760Y-92202000D01*
X192093368Y-92318525D01*
X191886525Y-92525368D01*
X191724010Y-92768589D01*
X191612068Y-93038842D01*
X191555000Y-93325740D01*
X191555000Y-93618260D01*
X191612068Y-93905158D01*
X191724010Y-94175411D01*
X191886525Y-94418632D01*
X192093368Y-94625475D01*
X192267760Y-94742000D01*
X192093368Y-94858525D01*
X191886525Y-95065368D01*
X191724010Y-95308589D01*
X191612068Y-95578842D01*
X191555000Y-95865740D01*
X191555000Y-96158260D01*
X191612068Y-96445158D01*
X191724010Y-96715411D01*
X191886525Y-96958632D01*
X192093368Y-97165475D01*
X192336589Y-97327990D01*
X192606842Y-97439932D01*
X192893740Y-97497000D01*
X193061290Y-97497000D01*
X195053001Y-99488712D01*
X195053001Y-102149290D01*
X194437000Y-101533290D01*
X194437000Y-101462408D01*
X194383314Y-101192510D01*
X194278005Y-100938273D01*
X194125120Y-100709465D01*
X193930535Y-100514880D01*
X193701727Y-100361995D01*
X193447490Y-100256686D01*
X193177592Y-100203000D01*
X192902408Y-100203000D01*
X192713144Y-100240647D01*
X192712999Y-100239170D01*
X192712999Y-100239161D01*
X192698023Y-100087104D01*
X192638840Y-99892006D01*
X192542733Y-99712202D01*
X192413395Y-99554603D01*
X192373907Y-99522196D01*
X188635711Y-95784000D01*
X188655908Y-95763803D01*
X188695396Y-95731396D01*
X188727803Y-95691908D01*
X188763937Y-95655774D01*
X188792328Y-95613284D01*
X188824734Y-95573797D01*
X188848814Y-95528746D01*
X188877205Y-95486256D01*
X188896762Y-95439042D01*
X188920841Y-95393993D01*
X188935669Y-95345113D01*
X188955226Y-95297898D01*
X188965196Y-95247777D01*
X188980024Y-95198895D01*
X188985031Y-95148057D01*
X188995000Y-95097939D01*
X188995000Y-86462835D01*
X189000007Y-86412000D01*
X188995000Y-86361162D01*
X188980024Y-86209105D01*
X188920841Y-86014007D01*
X188834247Y-85852000D01*
X188824734Y-85834202D01*
X188727803Y-85716092D01*
X188695396Y-85676604D01*
X188655908Y-85644197D01*
X182263000Y-79251290D01*
X182263000Y-79160635D01*
X182208623Y-78887260D01*
X182101957Y-78629746D01*
X181947103Y-78397990D01*
X181750010Y-78200897D01*
X181518254Y-78046043D01*
X181482475Y-78031223D01*
X181577655Y-77980349D01*
X181646816Y-77738421D01*
X180848000Y-76939605D01*
X180833858Y-76953748D01*
X180654253Y-76774143D01*
X180668395Y-76760000D01*
X180654253Y-76745858D01*
X180833858Y-76566253D01*
X180848000Y-76580395D01*
X180862143Y-76566253D01*
X181041748Y-76745858D01*
X181027605Y-76760000D01*
X181826421Y-77558816D01*
X182068349Y-77489655D01*
X182187248Y-77237557D01*
X182254681Y-76967106D01*
X182268057Y-76688697D01*
X182227155Y-76414999D01*
X183407004Y-76414999D01*
X183398803Y-76456232D01*
M02*
