M48
INCH,TZ
T1C0.0157
T2C0.0300
T3C0.0315
T4C0.0394
T5C0.0409
T6C0.0598
T7C0.1500
%
G90
G05
T1
X69340Y-47180
X72200Y-29000
X72600Y-30200
X74000Y-37400
X74000Y-42600
X74600Y-41000
X74600Y-42600
T2
X76000Y-40000
X76000Y-41000
X76000Y-42000
X76000Y-43000
X76000Y-44000
X76000Y-45000
X76000Y-46000
X76000Y-47000
X76000Y-48000
X86000Y-40000
X86000Y-41000
X86000Y-42000
X86000Y-43000
X86000Y-44000
X52700Y-36200
X53700Y-36200
X55200Y-39100
X55200Y-40100
X55200Y-41100
X55200Y-42100
X55200Y-43100
X55200Y-44100
T3
X53000Y-31400
X57000Y-31400
X78000Y-33800
X82000Y-33800
X78000Y-35800
X82000Y-35800
X78000Y-37800
X82000Y-37800
X78000Y-31800
X82000Y-31800
X53000Y-32600
X57000Y-32600
T4
X84600Y-33800
X85600Y-33800
X50200Y-32000
X51200Y-32000
X59000Y-45800
X59000Y-46800
X59000Y-47800
X76000Y-26800
X76000Y-27800
X76000Y-28800
X76000Y-29800
X76000Y-30800
X76000Y-31800
X76000Y-32800
X76000Y-33800
X76000Y-34800
X76000Y-35800
X76000Y-36800
X76000Y-37800
X58970Y-27210
X58970Y-28210
X58970Y-29210
X58970Y-30210
X58970Y-31210
X58970Y-32210
X58970Y-33210
X58970Y-34210
X58970Y-35210
X58970Y-36210
X58970Y-37210
X58970Y-38210
X58970Y-39210
X58970Y-40210
X58970Y-41210
X58970Y-42210
X50200Y-30500
X51200Y-30500
X84600Y-31800
X85600Y-31800
X84600Y-37800
X85600Y-37800
X84600Y-35800
X85600Y-35800
X46400Y-32000
X46400Y-32984
T5
X61200Y-30220
X61200Y-31220
X61200Y-32220
X61200Y-33220
X61200Y-34220
X61200Y-35220
X61200Y-36220
X61200Y-37220
X61200Y-38220
X61200Y-39220
X61200Y-40220
X61200Y-41220
X61200Y-42220
X61200Y-43220
X61200Y-44220
X61200Y-45220
X61200Y-46220
X61200Y-47220
X61200Y-48220
X71200Y-30220
X71200Y-31220
X71200Y-32220
X71200Y-33220
X71200Y-34220
X71200Y-35220
X71200Y-36220
X71200Y-37220
X71200Y-38220
X71200Y-39220
X71200Y-40220
X71200Y-41220
X71200Y-42220
X71200Y-43220
X71200Y-44220
X71200Y-45220
X71200Y-46220
X71200Y-47220
X71200Y-48220
T6
X54600Y-27400
X56600Y-27400
X44600Y-26800
X44600Y-28800
T7
X44100Y-36200
X44100Y-47600
X55500Y-36200
X55500Y-47600
T0
M30
