G04 #@! TF.GenerationSoftware,KiCad,Pcbnew,5.1.6-c6e7f7d~87~ubuntu20.04.1*
G04 #@! TF.CreationDate,2020-08-06T14:28:34-04:00*
G04 #@! TF.ProjectId,Onboard_Gateway,4f6e626f-6172-4645-9f47-617465776179,Leonardo Ward*
G04 #@! TF.SameCoordinates,Original*
G04 #@! TF.FileFunction,OtherDrawing,Comment*
%FSLAX46Y46*%
G04 Gerber Fmt 4.6, Leading zero omitted, Abs format (unit mm)*
G04 Created by KiCad (PCBNEW 5.1.6-c6e7f7d~87~ubuntu20.04.1) date 2020-08-06 14:28:34*
%MOMM*%
%LPD*%
G01*
G04 APERTURE LIST*
%ADD10C,0.150000*%
%ADD11C,0.300000*%
G04 APERTURE END LIST*
D10*
X181864000Y-132080000D02*
X230632000Y-132080000D01*
X96520000Y-132080000D02*
X156972000Y-132080000D01*
D11*
X162021142Y-132476761D02*
X160878285Y-132476761D01*
X161449714Y-132476761D02*
X161449714Y-130476761D01*
X161259238Y-130762476D01*
X161068761Y-130952952D01*
X160878285Y-131048190D01*
X162687809Y-130476761D02*
X163925904Y-130476761D01*
X163259238Y-131238666D01*
X163544952Y-131238666D01*
X163735428Y-131333904D01*
X163830666Y-131429142D01*
X163925904Y-131619619D01*
X163925904Y-132095809D01*
X163830666Y-132286285D01*
X163735428Y-132381523D01*
X163544952Y-132476761D01*
X162973523Y-132476761D01*
X162783047Y-132381523D01*
X162687809Y-132286285D01*
X165640190Y-131143428D02*
X165640190Y-132476761D01*
X165164000Y-130381523D02*
X164687809Y-131810095D01*
X165925904Y-131810095D01*
X166687809Y-132286285D02*
X166783047Y-132381523D01*
X166687809Y-132476761D01*
X166592571Y-132381523D01*
X166687809Y-132286285D01*
X166687809Y-132476761D01*
X168687809Y-132476761D02*
X167544952Y-132476761D01*
X168116380Y-132476761D02*
X168116380Y-130476761D01*
X167925904Y-130762476D01*
X167735428Y-130952952D01*
X167544952Y-131048190D01*
X170592571Y-132476761D02*
X169449714Y-132476761D01*
X170021142Y-132476761D02*
X170021142Y-130476761D01*
X169830666Y-130762476D01*
X169640190Y-130952952D01*
X169449714Y-131048190D01*
X172973523Y-132476761D02*
X172973523Y-131143428D01*
X172973523Y-131333904D02*
X173068761Y-131238666D01*
X173259238Y-131143428D01*
X173544952Y-131143428D01*
X173735428Y-131238666D01*
X173830666Y-131429142D01*
X173830666Y-132476761D01*
X173830666Y-131429142D02*
X173925904Y-131238666D01*
X174116380Y-131143428D01*
X174402095Y-131143428D01*
X174592571Y-131238666D01*
X174687809Y-131429142D01*
X174687809Y-132476761D01*
X175640190Y-132476761D02*
X175640190Y-131143428D01*
X175640190Y-131333904D02*
X175735428Y-131238666D01*
X175925904Y-131143428D01*
X176211619Y-131143428D01*
X176402095Y-131238666D01*
X176497333Y-131429142D01*
X176497333Y-132476761D01*
X176497333Y-131429142D02*
X176592571Y-131238666D01*
X176783047Y-131143428D01*
X177068761Y-131143428D01*
X177259238Y-131238666D01*
X177354476Y-131429142D01*
X177354476Y-132476761D01*
D10*
X230632000Y-127508000D02*
X230632000Y-137160000D01*
X96520000Y-127508000D02*
X96520000Y-137160000D01*
X88900000Y-92456000D02*
X88900000Y-64008000D01*
X88900000Y-126492000D02*
X88900000Y-97536000D01*
X86360000Y-126492000D02*
X81280000Y-126492000D01*
X86360000Y-64008000D02*
X81280000Y-64008000D01*
D11*
X82519047Y-93900761D02*
X82138095Y-93900761D01*
X81947619Y-93996000D01*
X81852380Y-94091238D01*
X81661904Y-94376952D01*
X81566666Y-94757904D01*
X81566666Y-95519809D01*
X81661904Y-95710285D01*
X81757142Y-95805523D01*
X81947619Y-95900761D01*
X82328571Y-95900761D01*
X82519047Y-95805523D01*
X82614285Y-95710285D01*
X82709523Y-95519809D01*
X82709523Y-95043619D01*
X82614285Y-94853142D01*
X82519047Y-94757904D01*
X82328571Y-94662666D01*
X81947619Y-94662666D01*
X81757142Y-94757904D01*
X81661904Y-94853142D01*
X81566666Y-95043619D01*
X83471428Y-94091238D02*
X83566666Y-93996000D01*
X83757142Y-93900761D01*
X84233333Y-93900761D01*
X84423809Y-93996000D01*
X84519047Y-94091238D01*
X84614285Y-94281714D01*
X84614285Y-94472190D01*
X84519047Y-94757904D01*
X83376190Y-95900761D01*
X84614285Y-95900761D01*
X85471428Y-95710285D02*
X85566666Y-95805523D01*
X85471428Y-95900761D01*
X85376190Y-95805523D01*
X85471428Y-95710285D01*
X85471428Y-95900761D01*
X87280952Y-94567428D02*
X87280952Y-95900761D01*
X86804761Y-93805523D02*
X86328571Y-95234095D01*
X87566666Y-95234095D01*
X88614285Y-94757904D02*
X88423809Y-94662666D01*
X88328571Y-94567428D01*
X88233333Y-94376952D01*
X88233333Y-94281714D01*
X88328571Y-94091238D01*
X88423809Y-93996000D01*
X88614285Y-93900761D01*
X88995238Y-93900761D01*
X89185714Y-93996000D01*
X89280952Y-94091238D01*
X89376190Y-94281714D01*
X89376190Y-94376952D01*
X89280952Y-94567428D01*
X89185714Y-94662666D01*
X88995238Y-94757904D01*
X88614285Y-94757904D01*
X88423809Y-94853142D01*
X88328571Y-94948380D01*
X88233333Y-95138857D01*
X88233333Y-95519809D01*
X88328571Y-95710285D01*
X88423809Y-95805523D01*
X88614285Y-95900761D01*
X88995238Y-95900761D01*
X89185714Y-95805523D01*
X89280952Y-95710285D01*
X89376190Y-95519809D01*
X89376190Y-95138857D01*
X89280952Y-94948380D01*
X89185714Y-94853142D01*
X88995238Y-94757904D01*
X91757142Y-95900761D02*
X91757142Y-94567428D01*
X91757142Y-94757904D02*
X91852380Y-94662666D01*
X92042857Y-94567428D01*
X92328571Y-94567428D01*
X92519047Y-94662666D01*
X92614285Y-94853142D01*
X92614285Y-95900761D01*
X92614285Y-94853142D02*
X92709523Y-94662666D01*
X92900000Y-94567428D01*
X93185714Y-94567428D01*
X93376190Y-94662666D01*
X93471428Y-94853142D01*
X93471428Y-95900761D01*
X94423809Y-95900761D02*
X94423809Y-94567428D01*
X94423809Y-94757904D02*
X94519047Y-94662666D01*
X94709523Y-94567428D01*
X94995238Y-94567428D01*
X95185714Y-94662666D01*
X95280952Y-94853142D01*
X95280952Y-95900761D01*
X95280952Y-94853142D02*
X95376190Y-94662666D01*
X95566666Y-94567428D01*
X95852380Y-94567428D01*
X96042857Y-94662666D01*
X96138095Y-94853142D01*
X96138095Y-95900761D01*
D10*
X96012000Y-126492000D02*
X86360000Y-126492000D01*
X96012000Y-64008000D02*
X86360000Y-64008000D01*
M02*
