G04 #@! TF.GenerationSoftware,KiCad,Pcbnew,5.1.6-c6e7f7d~87~ubuntu20.04.1*
G04 #@! TF.CreationDate,2020-08-06T14:28:34-04:00*
G04 #@! TF.ProjectId,Onboard_Gateway,4f6e626f-6172-4645-9f47-617465776179,Leonardo Ward*
G04 #@! TF.SameCoordinates,Original*
G04 #@! TF.FileFunction,Legend,Top*
G04 #@! TF.FilePolarity,Positive*
%FSLAX46Y46*%
G04 Gerber Fmt 4.6, Leading zero omitted, Abs format (unit mm)*
G04 Created by KiCad (PCBNEW 5.1.6-c6e7f7d~87~ubuntu20.04.1) date 2020-08-06 14:28:34*
%MOMM*%
%LPD*%
G01*
G04 APERTURE LIST*
%ADD10C,0.300000*%
%ADD11C,0.500000*%
%ADD12C,0.120000*%
%ADD13C,0.127000*%
%ADD14C,0.150000*%
%ADD15C,0.015000*%
G04 APERTURE END LIST*
D10*
X187561742Y-95596971D02*
X188061742Y-97096971D01*
X188561742Y-95596971D01*
X189061742Y-97096971D02*
X189061742Y-95596971D01*
X189776028Y-97096971D02*
X189776028Y-95596971D01*
X190633171Y-97096971D01*
X190633171Y-95596971D01*
X187553742Y-67296600D02*
X187410885Y-67225171D01*
X187196600Y-67225171D01*
X186982314Y-67296600D01*
X186839457Y-67439457D01*
X186768028Y-67582314D01*
X186696600Y-67868028D01*
X186696600Y-68082314D01*
X186768028Y-68368028D01*
X186839457Y-68510885D01*
X186982314Y-68653742D01*
X187196600Y-68725171D01*
X187339457Y-68725171D01*
X187553742Y-68653742D01*
X187625171Y-68582314D01*
X187625171Y-68082314D01*
X187339457Y-68082314D01*
X188268028Y-68725171D02*
X188268028Y-67225171D01*
X189125171Y-68725171D01*
X189125171Y-67225171D01*
X189839457Y-68725171D02*
X189839457Y-67225171D01*
X190196600Y-67225171D01*
X190410885Y-67296600D01*
X190553742Y-67439457D01*
X190625171Y-67582314D01*
X190696600Y-67868028D01*
X190696600Y-68082314D01*
X190625171Y-68368028D01*
X190553742Y-68510885D01*
X190410885Y-68653742D01*
X190196600Y-68725171D01*
X189839457Y-68725171D01*
X148590142Y-65239200D02*
X148447285Y-65167771D01*
X148233000Y-65167771D01*
X148018714Y-65239200D01*
X147875857Y-65382057D01*
X147804428Y-65524914D01*
X147733000Y-65810628D01*
X147733000Y-66024914D01*
X147804428Y-66310628D01*
X147875857Y-66453485D01*
X148018714Y-66596342D01*
X148233000Y-66667771D01*
X148375857Y-66667771D01*
X148590142Y-66596342D01*
X148661571Y-66524914D01*
X148661571Y-66024914D01*
X148375857Y-66024914D01*
X149304428Y-66667771D02*
X149304428Y-65167771D01*
X150161571Y-66667771D01*
X150161571Y-65167771D01*
X150875857Y-66667771D02*
X150875857Y-65167771D01*
X151233000Y-65167771D01*
X151447285Y-65239200D01*
X151590142Y-65382057D01*
X151661571Y-65524914D01*
X151733000Y-65810628D01*
X151733000Y-66024914D01*
X151661571Y-66310628D01*
X151590142Y-66453485D01*
X151447285Y-66596342D01*
X151233000Y-66667771D01*
X150875857Y-66667771D01*
X148166342Y-109947971D02*
X148666342Y-111447971D01*
X149166342Y-109947971D01*
X149666342Y-111447971D02*
X149666342Y-109947971D01*
X150380628Y-111447971D02*
X150380628Y-109947971D01*
X151237771Y-111447971D01*
X151237771Y-109947971D01*
X216852571Y-93579142D02*
X217995428Y-93579142D01*
X216852571Y-88499142D02*
X217995428Y-88499142D01*
X216852571Y-83419142D02*
X217995428Y-83419142D01*
X214312571Y-93579142D02*
X215455428Y-93579142D01*
X214884000Y-94150571D02*
X214884000Y-93007714D01*
X214312571Y-88499142D02*
X215455428Y-88499142D01*
X214884000Y-89070571D02*
X214884000Y-87927714D01*
X214312571Y-83419142D02*
X215455428Y-83419142D01*
X214884000Y-83990571D02*
X214884000Y-82847714D01*
X216852571Y-77831142D02*
X217995428Y-77831142D01*
X214312571Y-77831142D02*
X215455428Y-77831142D01*
X214884000Y-78402571D02*
X214884000Y-77259714D01*
X196522000Y-75862571D02*
X195807714Y-75862571D01*
X195807714Y-74362571D01*
X197022000Y-75719714D02*
X197093428Y-75791142D01*
X197022000Y-75862571D01*
X196950571Y-75791142D01*
X197022000Y-75719714D01*
X197022000Y-75862571D01*
X197593428Y-74362571D02*
X197950571Y-75862571D01*
X198236285Y-74791142D01*
X198522000Y-75862571D01*
X198879142Y-74362571D01*
X199450571Y-75719714D02*
X199522000Y-75791142D01*
X199450571Y-75862571D01*
X199379142Y-75791142D01*
X199450571Y-75719714D01*
X199450571Y-75862571D01*
X205879142Y-75076857D02*
X206379142Y-75076857D01*
X206593428Y-75862571D02*
X205879142Y-75862571D01*
X205879142Y-74362571D01*
X206593428Y-74362571D01*
X207236285Y-75719714D02*
X207307714Y-75791142D01*
X207236285Y-75862571D01*
X207164857Y-75791142D01*
X207236285Y-75719714D01*
X207236285Y-75862571D01*
X207950571Y-75862571D02*
X207950571Y-74362571D01*
X208807714Y-75862571D02*
X208164857Y-75005428D01*
X208807714Y-74362571D02*
X207950571Y-75219714D01*
X209450571Y-75719714D02*
X209522000Y-75791142D01*
X209450571Y-75862571D01*
X209379142Y-75791142D01*
X209450571Y-75719714D01*
X209450571Y-75862571D01*
X216164857Y-74362571D02*
X216450571Y-74362571D01*
X216593428Y-74434000D01*
X216736285Y-74576857D01*
X216807714Y-74862571D01*
X216807714Y-75362571D01*
X216736285Y-75648285D01*
X216593428Y-75791142D01*
X216450571Y-75862571D01*
X216164857Y-75862571D01*
X216022000Y-75791142D01*
X215879142Y-75648285D01*
X215807714Y-75362571D01*
X215807714Y-74862571D01*
X215879142Y-74576857D01*
X216022000Y-74434000D01*
X216164857Y-74362571D01*
X217450571Y-75719714D02*
X217522000Y-75791142D01*
X217450571Y-75862571D01*
X217379142Y-75791142D01*
X217450571Y-75719714D01*
X217450571Y-75862571D01*
X218450571Y-74362571D02*
X218736285Y-74362571D01*
X218879142Y-74434000D01*
X219022000Y-74576857D01*
X219093428Y-74862571D01*
X219093428Y-75362571D01*
X219022000Y-75648285D01*
X218879142Y-75791142D01*
X218736285Y-75862571D01*
X218450571Y-75862571D01*
X218307714Y-75791142D01*
X218164857Y-75648285D01*
X218093428Y-75362571D01*
X218093428Y-74862571D01*
X218164857Y-74576857D01*
X218307714Y-74434000D01*
X218450571Y-74362571D01*
X219736285Y-75719714D02*
X219807714Y-75791142D01*
X219736285Y-75862571D01*
X219664857Y-75791142D01*
X219736285Y-75719714D01*
X219736285Y-75862571D01*
D11*
X196978476Y-67703142D02*
X197645142Y-67703142D01*
X197930857Y-68750761D02*
X196978476Y-68750761D01*
X196978476Y-66750761D01*
X197930857Y-66750761D01*
X199359428Y-66750761D02*
X199359428Y-68179333D01*
X199264190Y-68465047D01*
X199073714Y-68655523D01*
X198788000Y-68750761D01*
X198597523Y-68750761D01*
X200216571Y-68179333D02*
X201168952Y-68179333D01*
X200026095Y-68750761D02*
X200692761Y-66750761D01*
X201359428Y-68750761D01*
X203549904Y-67988857D02*
X205073714Y-67988857D01*
X207930857Y-66750761D02*
X208311809Y-66750761D01*
X208502285Y-66846000D01*
X208692761Y-67036476D01*
X208788000Y-67417428D01*
X208788000Y-68084095D01*
X208692761Y-68465047D01*
X208502285Y-68655523D01*
X208311809Y-68750761D01*
X207930857Y-68750761D01*
X207740380Y-68655523D01*
X207549904Y-68465047D01*
X207454666Y-68084095D01*
X207454666Y-67417428D01*
X207549904Y-67036476D01*
X207740380Y-66846000D01*
X207930857Y-66750761D01*
X209645142Y-68750761D02*
X209645142Y-66750761D01*
X210788000Y-68750761D01*
X210788000Y-66750761D01*
X212407047Y-67703142D02*
X212692761Y-67798380D01*
X212788000Y-67893619D01*
X212883238Y-68084095D01*
X212883238Y-68369809D01*
X212788000Y-68560285D01*
X212692761Y-68655523D01*
X212502285Y-68750761D01*
X211740380Y-68750761D01*
X211740380Y-66750761D01*
X212407047Y-66750761D01*
X212597523Y-66846000D01*
X212692761Y-66941238D01*
X212788000Y-67131714D01*
X212788000Y-67322190D01*
X212692761Y-67512666D01*
X212597523Y-67607904D01*
X212407047Y-67703142D01*
X211740380Y-67703142D01*
X214121333Y-66750761D02*
X214502285Y-66750761D01*
X214692761Y-66846000D01*
X214883238Y-67036476D01*
X214978476Y-67417428D01*
X214978476Y-68084095D01*
X214883238Y-68465047D01*
X214692761Y-68655523D01*
X214502285Y-68750761D01*
X214121333Y-68750761D01*
X213930857Y-68655523D01*
X213740380Y-68465047D01*
X213645142Y-68084095D01*
X213645142Y-67417428D01*
X213740380Y-67036476D01*
X213930857Y-66846000D01*
X214121333Y-66750761D01*
X215740380Y-68179333D02*
X216692761Y-68179333D01*
X215549904Y-68750761D02*
X216216571Y-66750761D01*
X216883238Y-68750761D01*
X218692761Y-68750761D02*
X218026095Y-67798380D01*
X217549904Y-68750761D02*
X217549904Y-66750761D01*
X218311809Y-66750761D01*
X218502285Y-66846000D01*
X218597523Y-66941238D01*
X218692761Y-67131714D01*
X218692761Y-67417428D01*
X218597523Y-67607904D01*
X218502285Y-67703142D01*
X218311809Y-67798380D01*
X217549904Y-67798380D01*
X219549904Y-68750761D02*
X219549904Y-66750761D01*
X220026095Y-66750761D01*
X220311809Y-66846000D01*
X220502285Y-67036476D01*
X220597523Y-67226952D01*
X220692761Y-67607904D01*
X220692761Y-67893619D01*
X220597523Y-68274571D01*
X220502285Y-68465047D01*
X220311809Y-68655523D01*
X220026095Y-68750761D01*
X219549904Y-68750761D01*
X203930857Y-70346000D02*
X203740380Y-70250761D01*
X203454666Y-70250761D01*
X203168952Y-70346000D01*
X202978476Y-70536476D01*
X202883238Y-70726952D01*
X202788000Y-71107904D01*
X202788000Y-71393619D01*
X202883238Y-71774571D01*
X202978476Y-71965047D01*
X203168952Y-72155523D01*
X203454666Y-72250761D01*
X203645142Y-72250761D01*
X203930857Y-72155523D01*
X204026095Y-72060285D01*
X204026095Y-71393619D01*
X203645142Y-71393619D01*
X204788000Y-71679333D02*
X205740380Y-71679333D01*
X204597523Y-72250761D02*
X205264190Y-70250761D01*
X205930857Y-72250761D01*
X206311809Y-70250761D02*
X207454666Y-70250761D01*
X206883238Y-72250761D02*
X206883238Y-70250761D01*
X208121333Y-71203142D02*
X208788000Y-71203142D01*
X209073714Y-72250761D02*
X208121333Y-72250761D01*
X208121333Y-70250761D01*
X209073714Y-70250761D01*
X209740380Y-70250761D02*
X210216571Y-72250761D01*
X210597523Y-70822190D01*
X210978476Y-72250761D01*
X211454666Y-70250761D01*
X212121333Y-71679333D02*
X213073714Y-71679333D01*
X211930857Y-72250761D02*
X212597523Y-70250761D01*
X213264190Y-72250761D01*
X214311809Y-71298380D02*
X214311809Y-72250761D01*
X213645142Y-70250761D02*
X214311809Y-71298380D01*
X214978476Y-70250761D01*
D10*
X138938285Y-77386571D02*
X138938285Y-75886571D01*
X139295428Y-75886571D01*
X139509714Y-75958000D01*
X139652571Y-76100857D01*
X139724000Y-76243714D01*
X139795428Y-76529428D01*
X139795428Y-76743714D01*
X139724000Y-77029428D01*
X139652571Y-77172285D01*
X139509714Y-77315142D01*
X139295428Y-77386571D01*
X138938285Y-77386571D01*
X141295428Y-77243714D02*
X141224000Y-77315142D01*
X141009714Y-77386571D01*
X140866857Y-77386571D01*
X140652571Y-77315142D01*
X140509714Y-77172285D01*
X140438285Y-77029428D01*
X140366857Y-76743714D01*
X140366857Y-76529428D01*
X140438285Y-76243714D01*
X140509714Y-76100857D01*
X140652571Y-75958000D01*
X140866857Y-75886571D01*
X141009714Y-75886571D01*
X141224000Y-75958000D01*
X141295428Y-76029428D01*
X141938285Y-77386571D02*
X141938285Y-75886571D01*
X142652571Y-77386571D02*
X142652571Y-75886571D01*
X143509714Y-77386571D01*
X143509714Y-75886571D01*
X118979142Y-68643428D02*
X118979142Y-67500571D01*
X118979142Y-73723428D02*
X118979142Y-72580571D01*
X119550571Y-73152000D02*
X118407714Y-73152000D01*
X121304857Y-72290571D02*
X121376285Y-72076285D01*
X121447714Y-72004857D01*
X121590571Y-71933428D01*
X121804857Y-71933428D01*
X121947714Y-72004857D01*
X122019142Y-72076285D01*
X122090571Y-72219142D01*
X122090571Y-72790571D01*
X120590571Y-72790571D01*
X120590571Y-72290571D01*
X120662000Y-72147714D01*
X120733428Y-72076285D01*
X120876285Y-72004857D01*
X121019142Y-72004857D01*
X121162000Y-72076285D01*
X121233428Y-72147714D01*
X121304857Y-72290571D01*
X121304857Y-72790571D01*
X121662000Y-71362000D02*
X121662000Y-70647714D01*
X122090571Y-71504857D02*
X120590571Y-71004857D01*
X122090571Y-70504857D01*
X120590571Y-70219142D02*
X120590571Y-69362000D01*
X122090571Y-69790571D02*
X120590571Y-69790571D01*
X120590571Y-69076285D02*
X120590571Y-68219142D01*
X122090571Y-68647714D02*
X120590571Y-68647714D01*
X143192571Y-74783142D02*
X144335428Y-74783142D01*
X138112571Y-74783142D02*
X139255428Y-74783142D01*
X138684000Y-75354571D02*
X138684000Y-74211714D01*
X127877428Y-86387714D02*
X127806000Y-86459142D01*
X127591714Y-86530571D01*
X127448857Y-86530571D01*
X127234571Y-86459142D01*
X127091714Y-86316285D01*
X127020285Y-86173428D01*
X126948857Y-85887714D01*
X126948857Y-85673428D01*
X127020285Y-85387714D01*
X127091714Y-85244857D01*
X127234571Y-85102000D01*
X127448857Y-85030571D01*
X127591714Y-85030571D01*
X127806000Y-85102000D01*
X127877428Y-85173428D01*
X128520285Y-86530571D02*
X128520285Y-85030571D01*
X129163142Y-86530571D02*
X129163142Y-85744857D01*
X129091714Y-85602000D01*
X128948857Y-85530571D01*
X128734571Y-85530571D01*
X128591714Y-85602000D01*
X128520285Y-85673428D01*
X130520285Y-86530571D02*
X130520285Y-85744857D01*
X130448857Y-85602000D01*
X130306000Y-85530571D01*
X130020285Y-85530571D01*
X129877428Y-85602000D01*
X130520285Y-86459142D02*
X130377428Y-86530571D01*
X130020285Y-86530571D01*
X129877428Y-86459142D01*
X129806000Y-86316285D01*
X129806000Y-86173428D01*
X129877428Y-86030571D01*
X130020285Y-85959142D01*
X130377428Y-85959142D01*
X130520285Y-85887714D01*
X131234571Y-86530571D02*
X131234571Y-85530571D01*
X131234571Y-85816285D02*
X131306000Y-85673428D01*
X131377428Y-85602000D01*
X131520285Y-85530571D01*
X131663142Y-85530571D01*
X132806000Y-85530571D02*
X132806000Y-86744857D01*
X132734571Y-86887714D01*
X132663142Y-86959142D01*
X132520285Y-87030571D01*
X132306000Y-87030571D01*
X132163142Y-86959142D01*
X132806000Y-86459142D02*
X132663142Y-86530571D01*
X132377428Y-86530571D01*
X132234571Y-86459142D01*
X132163142Y-86387714D01*
X132091714Y-86244857D01*
X132091714Y-85816285D01*
X132163142Y-85673428D01*
X132234571Y-85602000D01*
X132377428Y-85530571D01*
X132663142Y-85530571D01*
X132806000Y-85602000D01*
X134091714Y-86459142D02*
X133948857Y-86530571D01*
X133663142Y-86530571D01*
X133520285Y-86459142D01*
X133448857Y-86316285D01*
X133448857Y-85744857D01*
X133520285Y-85602000D01*
X133663142Y-85530571D01*
X133948857Y-85530571D01*
X134091714Y-85602000D01*
X134163142Y-85744857D01*
X134163142Y-85887714D01*
X133448857Y-86030571D01*
X127147142Y-72814571D02*
X127147142Y-71314571D01*
X127504285Y-71314571D01*
X127718571Y-71386000D01*
X127861428Y-71528857D01*
X127932857Y-71671714D01*
X128004285Y-71957428D01*
X128004285Y-72171714D01*
X127932857Y-72457428D01*
X127861428Y-72600285D01*
X127718571Y-72743142D01*
X127504285Y-72814571D01*
X127147142Y-72814571D01*
X128861428Y-72814571D02*
X128718571Y-72743142D01*
X128647142Y-72671714D01*
X128575714Y-72528857D01*
X128575714Y-72100285D01*
X128647142Y-71957428D01*
X128718571Y-71886000D01*
X128861428Y-71814571D01*
X129075714Y-71814571D01*
X129218571Y-71886000D01*
X129290000Y-71957428D01*
X129361428Y-72100285D01*
X129361428Y-72528857D01*
X129290000Y-72671714D01*
X129218571Y-72743142D01*
X129075714Y-72814571D01*
X128861428Y-72814571D01*
X130004285Y-71814571D02*
X130004285Y-72814571D01*
X130004285Y-71957428D02*
X130075714Y-71886000D01*
X130218571Y-71814571D01*
X130432857Y-71814571D01*
X130575714Y-71886000D01*
X130647142Y-72028857D01*
X130647142Y-72814571D01*
X131932857Y-72743142D02*
X131790000Y-72814571D01*
X131504285Y-72814571D01*
X131361428Y-72743142D01*
X131290000Y-72600285D01*
X131290000Y-72028857D01*
X131361428Y-71886000D01*
X131504285Y-71814571D01*
X131790000Y-71814571D01*
X131932857Y-71886000D01*
X132004285Y-72028857D01*
X132004285Y-72171714D01*
X131290000Y-72314571D01*
X129476571Y-74783142D02*
X130619428Y-74783142D01*
X130048000Y-75354571D02*
X130048000Y-74211714D01*
X126936571Y-74783142D02*
X128079428Y-74783142D01*
X126936571Y-83927142D02*
X128079428Y-83927142D01*
X129476571Y-83927142D02*
X130619428Y-83927142D01*
X130048000Y-84498571D02*
X130048000Y-83355714D01*
D12*
X143002000Y-98044000D02*
X136652000Y-98044000D01*
X136652000Y-98044000D02*
X136652000Y-113284000D01*
X136652000Y-113284000D02*
X143002000Y-113284000D01*
X143002000Y-113284000D02*
X143002000Y-98044000D01*
X136652000Y-103124000D02*
X143002000Y-103124000D01*
X136652000Y-108204000D02*
X143002000Y-108204000D01*
X144018000Y-123952000D02*
X144023080Y-88900000D01*
X144023080Y-88900000D02*
X108958380Y-88902540D01*
X108958380Y-88902540D02*
X108966000Y-123959620D01*
X108966000Y-123959620D02*
X144018000Y-123952000D01*
X190500000Y-99060000D02*
X190500000Y-124460000D01*
X190500000Y-124460000D02*
X220980000Y-124460000D01*
X220980000Y-124460000D02*
X220980000Y-99060000D01*
X220980000Y-99060000D02*
X190500000Y-99060000D01*
X131378000Y-82610000D02*
X131378000Y-79950000D01*
X128778000Y-82610000D02*
X131378000Y-82610000D01*
X128778000Y-79950000D02*
X131378000Y-79950000D01*
X128778000Y-82610000D02*
X128778000Y-79950000D01*
X127508000Y-82610000D02*
X126178000Y-82610000D01*
X126178000Y-82610000D02*
X126178000Y-81280000D01*
X131378000Y-78800000D02*
X131378000Y-76140000D01*
X128778000Y-78800000D02*
X131378000Y-78800000D01*
X128778000Y-76140000D02*
X131378000Y-76140000D01*
X128778000Y-78800000D02*
X128778000Y-76140000D01*
X127508000Y-78800000D02*
X126178000Y-78800000D01*
X126178000Y-78800000D02*
X126178000Y-77470000D01*
X148530000Y-115002000D02*
X149860000Y-115002000D01*
X148530000Y-116332000D02*
X148530000Y-115002000D01*
X148530000Y-117602000D02*
X151190000Y-117602000D01*
X151190000Y-117602000D02*
X151190000Y-122742000D01*
X148530000Y-117602000D02*
X148530000Y-122742000D01*
X148530000Y-122742000D02*
X151190000Y-122742000D01*
X117094000Y-75692000D02*
X117094000Y-65532000D01*
X109474000Y-75692000D02*
X117094000Y-75692000D01*
X109474000Y-65532000D02*
X109474000Y-75692000D01*
X117094000Y-65532000D02*
X109474000Y-65532000D01*
X115824000Y-65532000D02*
X115824000Y-75692000D01*
D13*
X182098000Y-123770000D02*
X154198000Y-123770000D01*
X182098000Y-69370000D02*
X182098000Y-123770000D01*
X154198000Y-69370000D02*
X182098000Y-69370000D01*
X154198000Y-123770000D02*
X154198000Y-69370000D01*
D12*
X110146000Y-82530000D02*
X110146000Y-78720000D01*
X110146000Y-78720000D02*
X121866000Y-78720000D01*
X121866000Y-78720000D02*
X121866000Y-80140000D01*
X121866000Y-80140000D02*
X117366000Y-80140000D01*
X110146000Y-82530000D02*
X110146000Y-86340000D01*
X110146000Y-86340000D02*
X121866000Y-86340000D01*
X121866000Y-86340000D02*
X121866000Y-84920000D01*
X121866000Y-84920000D02*
X117366000Y-84920000D01*
X116256000Y-81030000D02*
X110756000Y-81030000D01*
X110756000Y-81030000D02*
X110756000Y-81530000D01*
X110756000Y-81530000D02*
X116256000Y-81530000D01*
X116256000Y-81530000D02*
X116256000Y-81030000D01*
X116256000Y-83530000D02*
X110756000Y-83530000D01*
X110756000Y-83530000D02*
X110756000Y-84030000D01*
X110756000Y-84030000D02*
X116256000Y-84030000D01*
X116256000Y-84030000D02*
X116256000Y-83530000D01*
X119356000Y-81280000D02*
X119956000Y-80980000D01*
X119956000Y-80980000D02*
X119956000Y-81580000D01*
X119956000Y-81580000D02*
X119356000Y-81280000D01*
X136144000Y-73406000D02*
X146304000Y-73406000D01*
X136144000Y-65786000D02*
X136144000Y-73406000D01*
X146304000Y-65786000D02*
X136144000Y-65786000D01*
X146304000Y-73406000D02*
X146304000Y-65786000D01*
X146304000Y-72136000D02*
X136144000Y-72136000D01*
X136430000Y-78386000D02*
X136430000Y-81126000D01*
X136430000Y-81126000D02*
X142970000Y-81126000D01*
X142970000Y-81126000D02*
X142970000Y-78386000D01*
X142970000Y-78386000D02*
X136430000Y-78386000D01*
X135660000Y-79756000D02*
X136430000Y-79756000D01*
X143740000Y-79756000D02*
X142970000Y-79756000D01*
X143740000Y-82804000D02*
X142970000Y-82804000D01*
X135660000Y-82804000D02*
X136430000Y-82804000D01*
X142970000Y-81434000D02*
X136430000Y-81434000D01*
X142970000Y-84174000D02*
X142970000Y-81434000D01*
X136430000Y-84174000D02*
X142970000Y-84174000D01*
X136430000Y-81434000D02*
X136430000Y-84174000D01*
X149783800Y-67783400D02*
X151113800Y-67783400D01*
X151113800Y-67783400D02*
X151113800Y-69113400D01*
X151113800Y-70383400D02*
X151113800Y-108543400D01*
X148453800Y-108543400D02*
X151113800Y-108543400D01*
X148453800Y-70383400D02*
X148453800Y-108543400D01*
X148453800Y-70383400D02*
X151113800Y-70383400D01*
X193040000Y-66742000D02*
X194370000Y-66742000D01*
X194370000Y-66742000D02*
X194370000Y-68072000D01*
X194370000Y-69342000D02*
X194370000Y-97342000D01*
X191710000Y-97342000D02*
X194370000Y-97342000D01*
X191710000Y-69342000D02*
X191710000Y-97342000D01*
X191710000Y-69342000D02*
X194370000Y-69342000D01*
X213554000Y-79442000D02*
X213554000Y-82102000D01*
X216154000Y-79442000D02*
X213554000Y-79442000D01*
X216154000Y-82102000D02*
X213554000Y-82102000D01*
X216154000Y-79442000D02*
X216154000Y-82102000D01*
X217424000Y-79442000D02*
X218754000Y-79442000D01*
X218754000Y-79442000D02*
X218754000Y-80772000D01*
X218754000Y-84522000D02*
X218754000Y-85852000D01*
X217424000Y-84522000D02*
X218754000Y-84522000D01*
X216154000Y-84522000D02*
X216154000Y-87182000D01*
X216154000Y-87182000D02*
X213554000Y-87182000D01*
X216154000Y-84522000D02*
X213554000Y-84522000D01*
X213554000Y-84522000D02*
X213554000Y-87182000D01*
X213554000Y-94682000D02*
X213554000Y-97342000D01*
X216154000Y-94682000D02*
X213554000Y-94682000D01*
X216154000Y-97342000D02*
X213554000Y-97342000D01*
X216154000Y-94682000D02*
X216154000Y-97342000D01*
X217424000Y-94682000D02*
X218754000Y-94682000D01*
X218754000Y-94682000D02*
X218754000Y-96012000D01*
X218754000Y-89602000D02*
X218754000Y-90932000D01*
X217424000Y-89602000D02*
X218754000Y-89602000D01*
X216154000Y-89602000D02*
X216154000Y-92262000D01*
X216154000Y-92262000D02*
X213554000Y-92262000D01*
X216154000Y-89602000D02*
X213554000Y-89602000D01*
X213554000Y-89602000D02*
X213554000Y-92262000D01*
X199160000Y-80772000D02*
X199930000Y-80772000D01*
X207240000Y-80772000D02*
X206470000Y-80772000D01*
X199930000Y-82142000D02*
X206470000Y-82142000D01*
X199930000Y-79402000D02*
X199930000Y-82142000D01*
X206470000Y-79402000D02*
X199930000Y-79402000D01*
X206470000Y-82142000D02*
X206470000Y-79402000D01*
X206470000Y-87222000D02*
X206470000Y-84482000D01*
X206470000Y-84482000D02*
X199930000Y-84482000D01*
X199930000Y-84482000D02*
X199930000Y-87222000D01*
X199930000Y-87222000D02*
X206470000Y-87222000D01*
X207240000Y-85852000D02*
X206470000Y-85852000D01*
X199160000Y-85852000D02*
X199930000Y-85852000D01*
X206470000Y-97382000D02*
X206470000Y-94642000D01*
X206470000Y-94642000D02*
X199930000Y-94642000D01*
X199930000Y-94642000D02*
X199930000Y-97382000D01*
X199930000Y-97382000D02*
X206470000Y-97382000D01*
X207240000Y-96012000D02*
X206470000Y-96012000D01*
X199160000Y-96012000D02*
X199930000Y-96012000D01*
X199160000Y-90932000D02*
X199930000Y-90932000D01*
X207240000Y-90932000D02*
X206470000Y-90932000D01*
X199930000Y-92302000D02*
X206470000Y-92302000D01*
X199930000Y-89562000D02*
X199930000Y-92302000D01*
X206470000Y-89562000D02*
X199930000Y-89562000D01*
X206470000Y-92302000D02*
X206470000Y-89562000D01*
D14*
X100266666Y-130500380D02*
X99933333Y-130024190D01*
X99695238Y-130500380D02*
X99695238Y-129500380D01*
X100076190Y-129500380D01*
X100171428Y-129548000D01*
X100219047Y-129595619D01*
X100266666Y-129690857D01*
X100266666Y-129833714D01*
X100219047Y-129928952D01*
X100171428Y-129976571D01*
X100076190Y-130024190D01*
X99695238Y-130024190D01*
X100695238Y-129976571D02*
X101028571Y-129976571D01*
X101171428Y-130500380D02*
X100695238Y-130500380D01*
X100695238Y-129500380D01*
X101171428Y-129500380D01*
X101933333Y-129976571D02*
X101600000Y-129976571D01*
X101600000Y-130500380D02*
X101600000Y-129500380D01*
X102076190Y-129500380D01*
X102600000Y-129500380D02*
X102600000Y-129738476D01*
X102361904Y-129643238D02*
X102600000Y-129738476D01*
X102838095Y-129643238D01*
X102457142Y-129928952D02*
X102600000Y-129738476D01*
X102742857Y-129928952D01*
X103361904Y-129500380D02*
X103361904Y-129738476D01*
X103123809Y-129643238D02*
X103361904Y-129738476D01*
X103600000Y-129643238D01*
X103219047Y-129928952D02*
X103361904Y-129738476D01*
X103504761Y-129928952D01*
X224218666Y-130500380D02*
X223885333Y-130024190D01*
X223647238Y-130500380D02*
X223647238Y-129500380D01*
X224028190Y-129500380D01*
X224123428Y-129548000D01*
X224171047Y-129595619D01*
X224218666Y-129690857D01*
X224218666Y-129833714D01*
X224171047Y-129928952D01*
X224123428Y-129976571D01*
X224028190Y-130024190D01*
X223647238Y-130024190D01*
X224647238Y-129976571D02*
X224980571Y-129976571D01*
X225123428Y-130500380D02*
X224647238Y-130500380D01*
X224647238Y-129500380D01*
X225123428Y-129500380D01*
X225885333Y-129976571D02*
X225552000Y-129976571D01*
X225552000Y-130500380D02*
X225552000Y-129500380D01*
X226028190Y-129500380D01*
X226552000Y-129500380D02*
X226552000Y-129738476D01*
X226313904Y-129643238D02*
X226552000Y-129738476D01*
X226790095Y-129643238D01*
X226409142Y-129928952D02*
X226552000Y-129738476D01*
X226694857Y-129928952D01*
X227313904Y-129500380D02*
X227313904Y-129738476D01*
X227075809Y-129643238D02*
X227313904Y-129738476D01*
X227552000Y-129643238D01*
X227171047Y-129928952D02*
X227313904Y-129738476D01*
X227456761Y-129928952D01*
X224218666Y-63444380D02*
X223885333Y-62968190D01*
X223647238Y-63444380D02*
X223647238Y-62444380D01*
X224028190Y-62444380D01*
X224123428Y-62492000D01*
X224171047Y-62539619D01*
X224218666Y-62634857D01*
X224218666Y-62777714D01*
X224171047Y-62872952D01*
X224123428Y-62920571D01*
X224028190Y-62968190D01*
X223647238Y-62968190D01*
X224647238Y-62920571D02*
X224980571Y-62920571D01*
X225123428Y-63444380D02*
X224647238Y-63444380D01*
X224647238Y-62444380D01*
X225123428Y-62444380D01*
X225885333Y-62920571D02*
X225552000Y-62920571D01*
X225552000Y-63444380D02*
X225552000Y-62444380D01*
X226028190Y-62444380D01*
X226552000Y-62444380D02*
X226552000Y-62682476D01*
X226313904Y-62587238D02*
X226552000Y-62682476D01*
X226790095Y-62587238D01*
X226409142Y-62872952D02*
X226552000Y-62682476D01*
X226694857Y-62872952D01*
X227313904Y-62444380D02*
X227313904Y-62682476D01*
X227075809Y-62587238D02*
X227313904Y-62682476D01*
X227552000Y-62587238D01*
X227171047Y-62872952D02*
X227313904Y-62682476D01*
X227456761Y-62872952D01*
X100266666Y-63444380D02*
X99933333Y-62968190D01*
X99695238Y-63444380D02*
X99695238Y-62444380D01*
X100076190Y-62444380D01*
X100171428Y-62492000D01*
X100219047Y-62539619D01*
X100266666Y-62634857D01*
X100266666Y-62777714D01*
X100219047Y-62872952D01*
X100171428Y-62920571D01*
X100076190Y-62968190D01*
X99695238Y-62968190D01*
X100695238Y-62920571D02*
X101028571Y-62920571D01*
X101171428Y-63444380D02*
X100695238Y-63444380D01*
X100695238Y-62444380D01*
X101171428Y-62444380D01*
X101933333Y-62920571D02*
X101600000Y-62920571D01*
X101600000Y-63444380D02*
X101600000Y-62444380D01*
X102076190Y-62444380D01*
X102600000Y-62444380D02*
X102600000Y-62682476D01*
X102361904Y-62587238D02*
X102600000Y-62682476D01*
X102838095Y-62587238D01*
X102457142Y-62872952D02*
X102600000Y-62682476D01*
X102742857Y-62872952D01*
X103361904Y-62444380D02*
X103361904Y-62682476D01*
X103123809Y-62587238D02*
X103361904Y-62682476D01*
X103600000Y-62587238D01*
X103219047Y-62872952D02*
X103361904Y-62682476D01*
X103504761Y-62872952D01*
X125730095Y-125182380D02*
X125730095Y-125991904D01*
X125777714Y-126087142D01*
X125825333Y-126134761D01*
X125920571Y-126182380D01*
X126111047Y-126182380D01*
X126206285Y-126134761D01*
X126253904Y-126087142D01*
X126301523Y-125991904D01*
X126301523Y-125182380D01*
X127301523Y-126182380D02*
X126730095Y-126182380D01*
X127015809Y-126182380D02*
X127015809Y-125182380D01*
X126920571Y-125325238D01*
X126825333Y-125420476D01*
X126730095Y-125468095D01*
X133604190Y-95702380D02*
X133604190Y-94702380D01*
X133842285Y-94702380D01*
X133985142Y-94750000D01*
X134080380Y-94845238D01*
X134128000Y-94940476D01*
X134175619Y-95130952D01*
X134175619Y-95273809D01*
X134128000Y-95464285D01*
X134080380Y-95559523D01*
X133985142Y-95654761D01*
X133842285Y-95702380D01*
X133604190Y-95702380D01*
X135175619Y-95607142D02*
X135128000Y-95654761D01*
X134985142Y-95702380D01*
X134889904Y-95702380D01*
X134747047Y-95654761D01*
X134651809Y-95559523D01*
X134604190Y-95464285D01*
X134556571Y-95273809D01*
X134556571Y-95130952D01*
X134604190Y-94940476D01*
X134651809Y-94845238D01*
X134747047Y-94750000D01*
X134889904Y-94702380D01*
X134985142Y-94702380D01*
X135128000Y-94750000D01*
X135175619Y-94797619D01*
X135604190Y-95702380D02*
X135604190Y-94702380D01*
X136080380Y-95702380D02*
X136080380Y-94702380D01*
X136651809Y-95702380D01*
X136651809Y-94702380D01*
X136017047Y-93543428D02*
X136778952Y-93543428D01*
X133477047Y-93543428D02*
X134238952Y-93543428D01*
X133858000Y-93924380D02*
X133858000Y-93162476D01*
X141803428Y-99694952D02*
X141803428Y-98933047D01*
X141351047Y-101925428D02*
X142112952Y-101925428D01*
X141732000Y-102306380D02*
X141732000Y-101544476D01*
X141803428Y-104774952D02*
X141803428Y-104013047D01*
X141803428Y-107314952D02*
X141803428Y-106553047D01*
X142184380Y-106934000D02*
X141422476Y-106934000D01*
X141803428Y-109854952D02*
X141803428Y-109093047D01*
X141803428Y-112394952D02*
X141803428Y-111633047D01*
X142184380Y-112014000D02*
X141422476Y-112014000D01*
X138358571Y-101703047D02*
X138406190Y-101560190D01*
X138453809Y-101512571D01*
X138549047Y-101464952D01*
X138691904Y-101464952D01*
X138787142Y-101512571D01*
X138834761Y-101560190D01*
X138882380Y-101655428D01*
X138882380Y-102036380D01*
X137882380Y-102036380D01*
X137882380Y-101703047D01*
X137930000Y-101607809D01*
X137977619Y-101560190D01*
X138072857Y-101512571D01*
X138168095Y-101512571D01*
X138263333Y-101560190D01*
X138310952Y-101607809D01*
X138358571Y-101703047D01*
X138358571Y-102036380D01*
X138596666Y-101084000D02*
X138596666Y-100607809D01*
X138882380Y-101179238D02*
X137882380Y-100845904D01*
X138882380Y-100512571D01*
X137882380Y-100322095D02*
X137882380Y-99750666D01*
X138882380Y-100036380D02*
X137882380Y-100036380D01*
X137882380Y-99560190D02*
X137882380Y-98988761D01*
X138882380Y-99274476D02*
X137882380Y-99274476D01*
X138834761Y-107140190D02*
X138882380Y-106997333D01*
X138882380Y-106759238D01*
X138834761Y-106664000D01*
X138787142Y-106616380D01*
X138691904Y-106568761D01*
X138596666Y-106568761D01*
X138501428Y-106616380D01*
X138453809Y-106664000D01*
X138406190Y-106759238D01*
X138358571Y-106949714D01*
X138310952Y-107044952D01*
X138263333Y-107092571D01*
X138168095Y-107140190D01*
X138072857Y-107140190D01*
X137977619Y-107092571D01*
X137930000Y-107044952D01*
X137882380Y-106949714D01*
X137882380Y-106711619D01*
X137930000Y-106568761D01*
X137882380Y-106283047D02*
X137882380Y-105711619D01*
X138882380Y-105997333D02*
X137882380Y-105997333D01*
X138596666Y-105425904D02*
X138596666Y-104949714D01*
X138882380Y-105521142D02*
X137882380Y-105187809D01*
X138882380Y-104854476D01*
X137882380Y-104664000D02*
X137882380Y-104092571D01*
X138882380Y-104378285D02*
X137882380Y-104378285D01*
X138882380Y-111886857D02*
X138882380Y-112363047D01*
X137882380Y-112363047D01*
X137882380Y-111363047D02*
X137882380Y-111172571D01*
X137930000Y-111077333D01*
X138025238Y-110982095D01*
X138215714Y-110934476D01*
X138549047Y-110934476D01*
X138739523Y-110982095D01*
X138834761Y-111077333D01*
X138882380Y-111172571D01*
X138882380Y-111363047D01*
X138834761Y-111458285D01*
X138739523Y-111553523D01*
X138549047Y-111601142D01*
X138215714Y-111601142D01*
X138025238Y-111553523D01*
X137930000Y-111458285D01*
X137882380Y-111363047D01*
X138596666Y-110553523D02*
X138596666Y-110077333D01*
X138882380Y-110648761D02*
X137882380Y-110315428D01*
X138882380Y-109982095D01*
X138882380Y-109648761D02*
X137882380Y-109648761D01*
X137882380Y-109410666D01*
X137930000Y-109267809D01*
X138025238Y-109172571D01*
X138120476Y-109124952D01*
X138310952Y-109077333D01*
X138453809Y-109077333D01*
X138644285Y-109124952D01*
X138739523Y-109172571D01*
X138834761Y-109267809D01*
X138882380Y-109410666D01*
X138882380Y-109648761D01*
X204978095Y-126452380D02*
X204978095Y-127261904D01*
X205025714Y-127357142D01*
X205073333Y-127404761D01*
X205168571Y-127452380D01*
X205359047Y-127452380D01*
X205454285Y-127404761D01*
X205501904Y-127357142D01*
X205549523Y-127261904D01*
X205549523Y-126452380D01*
X205930476Y-126452380D02*
X206549523Y-126452380D01*
X206216190Y-126833333D01*
X206359047Y-126833333D01*
X206454285Y-126880952D01*
X206501904Y-126928571D01*
X206549523Y-127023809D01*
X206549523Y-127261904D01*
X206501904Y-127357142D01*
X206454285Y-127404761D01*
X206359047Y-127452380D01*
X206073333Y-127452380D01*
X205978095Y-127404761D01*
X205930476Y-127357142D01*
X195772738Y-101052380D02*
X196106071Y-102052380D01*
X196439404Y-101052380D01*
X196772738Y-102052380D02*
X196772738Y-101052380D01*
X197248928Y-102052380D02*
X197248928Y-101052380D01*
X197820357Y-102052380D01*
X197820357Y-101052380D01*
X196439404Y-103640000D02*
X196344166Y-103592380D01*
X196201309Y-103592380D01*
X196058452Y-103640000D01*
X195963214Y-103735238D01*
X195915595Y-103830476D01*
X195867976Y-104020952D01*
X195867976Y-104163809D01*
X195915595Y-104354285D01*
X195963214Y-104449523D01*
X196058452Y-104544761D01*
X196201309Y-104592380D01*
X196296547Y-104592380D01*
X196439404Y-104544761D01*
X196487023Y-104497142D01*
X196487023Y-104163809D01*
X196296547Y-104163809D01*
X196915595Y-104592380D02*
X196915595Y-103592380D01*
X197487023Y-104592380D01*
X197487023Y-103592380D01*
X197963214Y-104592380D02*
X197963214Y-103592380D01*
X198201309Y-103592380D01*
X198344166Y-103640000D01*
X198439404Y-103735238D01*
X198487023Y-103830476D01*
X198534642Y-104020952D01*
X198534642Y-104163809D01*
X198487023Y-104354285D01*
X198439404Y-104449523D01*
X198344166Y-104544761D01*
X198201309Y-104592380D01*
X197963214Y-104592380D01*
X195915595Y-106608571D02*
X196248928Y-106608571D01*
X196391785Y-107132380D02*
X195915595Y-107132380D01*
X195915595Y-106132380D01*
X196391785Y-106132380D01*
X196820357Y-107132380D02*
X196820357Y-106132380D01*
X197391785Y-107132380D01*
X197391785Y-106132380D01*
X196439404Y-108720000D02*
X196344166Y-108672380D01*
X196201309Y-108672380D01*
X196058452Y-108720000D01*
X195963214Y-108815238D01*
X195915595Y-108910476D01*
X195867976Y-109100952D01*
X195867976Y-109243809D01*
X195915595Y-109434285D01*
X195963214Y-109529523D01*
X196058452Y-109624761D01*
X196201309Y-109672380D01*
X196296547Y-109672380D01*
X196439404Y-109624761D01*
X196487023Y-109577142D01*
X196487023Y-109243809D01*
X196296547Y-109243809D01*
X197106071Y-108672380D02*
X197201309Y-108672380D01*
X197296547Y-108720000D01*
X197344166Y-108767619D01*
X197391785Y-108862857D01*
X197439404Y-109053333D01*
X197439404Y-109291428D01*
X197391785Y-109481904D01*
X197344166Y-109577142D01*
X197296547Y-109624761D01*
X197201309Y-109672380D01*
X197106071Y-109672380D01*
X197010833Y-109624761D01*
X196963214Y-109577142D01*
X196915595Y-109481904D01*
X196867976Y-109291428D01*
X196867976Y-109053333D01*
X196915595Y-108862857D01*
X196963214Y-108767619D01*
X197010833Y-108720000D01*
X197106071Y-108672380D01*
X195867976Y-112164761D02*
X196010833Y-112212380D01*
X196248928Y-112212380D01*
X196344166Y-112164761D01*
X196391785Y-112117142D01*
X196439404Y-112021904D01*
X196439404Y-111926666D01*
X196391785Y-111831428D01*
X196344166Y-111783809D01*
X196248928Y-111736190D01*
X196058452Y-111688571D01*
X195963214Y-111640952D01*
X195915595Y-111593333D01*
X195867976Y-111498095D01*
X195867976Y-111402857D01*
X195915595Y-111307619D01*
X195963214Y-111260000D01*
X196058452Y-111212380D01*
X196296547Y-111212380D01*
X196439404Y-111260000D01*
X197439404Y-112117142D02*
X197391785Y-112164761D01*
X197248928Y-112212380D01*
X197153690Y-112212380D01*
X197010833Y-112164761D01*
X196915595Y-112069523D01*
X196867976Y-111974285D01*
X196820357Y-111783809D01*
X196820357Y-111640952D01*
X196867976Y-111450476D01*
X196915595Y-111355238D01*
X197010833Y-111260000D01*
X197153690Y-111212380D01*
X197248928Y-111212380D01*
X197391785Y-111260000D01*
X197439404Y-111307619D01*
X197867976Y-112212380D02*
X197867976Y-111212380D01*
X198439404Y-112212380D02*
X198010833Y-111640952D01*
X198439404Y-111212380D02*
X197867976Y-111783809D01*
X195915595Y-114752380D02*
X195915595Y-113752380D01*
X196248928Y-114466666D01*
X196582261Y-113752380D01*
X196582261Y-114752380D01*
X197058452Y-114752380D02*
X197058452Y-113752380D01*
X197487023Y-114704761D02*
X197629880Y-114752380D01*
X197867976Y-114752380D01*
X197963214Y-114704761D01*
X198010833Y-114657142D01*
X198058452Y-114561904D01*
X198058452Y-114466666D01*
X198010833Y-114371428D01*
X197963214Y-114323809D01*
X197867976Y-114276190D01*
X197677500Y-114228571D01*
X197582261Y-114180952D01*
X197534642Y-114133333D01*
X197487023Y-114038095D01*
X197487023Y-113942857D01*
X197534642Y-113847619D01*
X197582261Y-113800000D01*
X197677500Y-113752380D01*
X197915595Y-113752380D01*
X198058452Y-113800000D01*
X198677500Y-113752380D02*
X198867976Y-113752380D01*
X198963214Y-113800000D01*
X199058452Y-113895238D01*
X199106071Y-114085714D01*
X199106071Y-114419047D01*
X199058452Y-114609523D01*
X198963214Y-114704761D01*
X198867976Y-114752380D01*
X198677500Y-114752380D01*
X198582261Y-114704761D01*
X198487023Y-114609523D01*
X198439404Y-114419047D01*
X198439404Y-114085714D01*
X198487023Y-113895238D01*
X198582261Y-113800000D01*
X198677500Y-113752380D01*
X195915595Y-117292380D02*
X195915595Y-116292380D01*
X196248928Y-117006666D01*
X196582261Y-116292380D01*
X196582261Y-117292380D01*
X197248928Y-116292380D02*
X197439404Y-116292380D01*
X197534642Y-116340000D01*
X197629880Y-116435238D01*
X197677500Y-116625714D01*
X197677500Y-116959047D01*
X197629880Y-117149523D01*
X197534642Y-117244761D01*
X197439404Y-117292380D01*
X197248928Y-117292380D01*
X197153690Y-117244761D01*
X197058452Y-117149523D01*
X197010833Y-116959047D01*
X197010833Y-116625714D01*
X197058452Y-116435238D01*
X197153690Y-116340000D01*
X197248928Y-116292380D01*
X198058452Y-117244761D02*
X198201309Y-117292380D01*
X198439404Y-117292380D01*
X198534642Y-117244761D01*
X198582261Y-117197142D01*
X198629880Y-117101904D01*
X198629880Y-117006666D01*
X198582261Y-116911428D01*
X198534642Y-116863809D01*
X198439404Y-116816190D01*
X198248928Y-116768571D01*
X198153690Y-116720952D01*
X198106071Y-116673333D01*
X198058452Y-116578095D01*
X198058452Y-116482857D01*
X198106071Y-116387619D01*
X198153690Y-116340000D01*
X198248928Y-116292380D01*
X198487023Y-116292380D01*
X198629880Y-116340000D01*
X199058452Y-117292380D02*
X199058452Y-116292380D01*
X196487023Y-119737142D02*
X196439404Y-119784761D01*
X196296547Y-119832380D01*
X196201309Y-119832380D01*
X196058452Y-119784761D01*
X195963214Y-119689523D01*
X195915595Y-119594285D01*
X195867976Y-119403809D01*
X195867976Y-119260952D01*
X195915595Y-119070476D01*
X195963214Y-118975238D01*
X196058452Y-118880000D01*
X196201309Y-118832380D01*
X196296547Y-118832380D01*
X196439404Y-118880000D01*
X196487023Y-118927619D01*
X196867976Y-119784761D02*
X197010833Y-119832380D01*
X197248928Y-119832380D01*
X197344166Y-119784761D01*
X197391785Y-119737142D01*
X197439404Y-119641904D01*
X197439404Y-119546666D01*
X197391785Y-119451428D01*
X197344166Y-119403809D01*
X197248928Y-119356190D01*
X197058452Y-119308571D01*
X196963214Y-119260952D01*
X196915595Y-119213333D01*
X196867976Y-119118095D01*
X196867976Y-119022857D01*
X196915595Y-118927619D01*
X196963214Y-118880000D01*
X197058452Y-118832380D01*
X197296547Y-118832380D01*
X197439404Y-118880000D01*
X196487023Y-122372380D02*
X196153690Y-121896190D01*
X195915595Y-122372380D02*
X195915595Y-121372380D01*
X196296547Y-121372380D01*
X196391785Y-121420000D01*
X196439404Y-121467619D01*
X196487023Y-121562857D01*
X196487023Y-121705714D01*
X196439404Y-121800952D01*
X196391785Y-121848571D01*
X196296547Y-121896190D01*
X195915595Y-121896190D01*
X196867976Y-122324761D02*
X197010833Y-122372380D01*
X197248928Y-122372380D01*
X197344166Y-122324761D01*
X197391785Y-122277142D01*
X197439404Y-122181904D01*
X197439404Y-122086666D01*
X197391785Y-121991428D01*
X197344166Y-121943809D01*
X197248928Y-121896190D01*
X197058452Y-121848571D01*
X196963214Y-121800952D01*
X196915595Y-121753333D01*
X196867976Y-121658095D01*
X196867976Y-121562857D01*
X196915595Y-121467619D01*
X196963214Y-121420000D01*
X197058452Y-121372380D01*
X197296547Y-121372380D01*
X197439404Y-121420000D01*
X197725119Y-121372380D02*
X198296547Y-121372380D01*
X198010833Y-122372380D02*
X198010833Y-121372380D01*
X214612023Y-101100000D02*
X214516785Y-101052380D01*
X214373928Y-101052380D01*
X214231071Y-101100000D01*
X214135833Y-101195238D01*
X214088214Y-101290476D01*
X214040595Y-101480952D01*
X214040595Y-101623809D01*
X214088214Y-101814285D01*
X214135833Y-101909523D01*
X214231071Y-102004761D01*
X214373928Y-102052380D01*
X214469166Y-102052380D01*
X214612023Y-102004761D01*
X214659642Y-101957142D01*
X214659642Y-101623809D01*
X214469166Y-101623809D01*
X215612023Y-102052380D02*
X215040595Y-102052380D01*
X215326309Y-102052380D02*
X215326309Y-101052380D01*
X215231071Y-101195238D01*
X215135833Y-101290476D01*
X215040595Y-101338095D01*
X214612023Y-103640000D02*
X214516785Y-103592380D01*
X214373928Y-103592380D01*
X214231071Y-103640000D01*
X214135833Y-103735238D01*
X214088214Y-103830476D01*
X214040595Y-104020952D01*
X214040595Y-104163809D01*
X214088214Y-104354285D01*
X214135833Y-104449523D01*
X214231071Y-104544761D01*
X214373928Y-104592380D01*
X214469166Y-104592380D01*
X214612023Y-104544761D01*
X214659642Y-104497142D01*
X214659642Y-104163809D01*
X214469166Y-104163809D01*
X215040595Y-103687619D02*
X215088214Y-103640000D01*
X215183452Y-103592380D01*
X215421547Y-103592380D01*
X215516785Y-103640000D01*
X215564404Y-103687619D01*
X215612023Y-103782857D01*
X215612023Y-103878095D01*
X215564404Y-104020952D01*
X214992976Y-104592380D01*
X215612023Y-104592380D01*
X214612023Y-106180000D02*
X214516785Y-106132380D01*
X214373928Y-106132380D01*
X214231071Y-106180000D01*
X214135833Y-106275238D01*
X214088214Y-106370476D01*
X214040595Y-106560952D01*
X214040595Y-106703809D01*
X214088214Y-106894285D01*
X214135833Y-106989523D01*
X214231071Y-107084761D01*
X214373928Y-107132380D01*
X214469166Y-107132380D01*
X214612023Y-107084761D01*
X214659642Y-107037142D01*
X214659642Y-106703809D01*
X214469166Y-106703809D01*
X214992976Y-106132380D02*
X215612023Y-106132380D01*
X215278690Y-106513333D01*
X215421547Y-106513333D01*
X215516785Y-106560952D01*
X215564404Y-106608571D01*
X215612023Y-106703809D01*
X215612023Y-106941904D01*
X215564404Y-107037142D01*
X215516785Y-107084761D01*
X215421547Y-107132380D01*
X215135833Y-107132380D01*
X215040595Y-107084761D01*
X214992976Y-107037142D01*
X214612023Y-108720000D02*
X214516785Y-108672380D01*
X214373928Y-108672380D01*
X214231071Y-108720000D01*
X214135833Y-108815238D01*
X214088214Y-108910476D01*
X214040595Y-109100952D01*
X214040595Y-109243809D01*
X214088214Y-109434285D01*
X214135833Y-109529523D01*
X214231071Y-109624761D01*
X214373928Y-109672380D01*
X214469166Y-109672380D01*
X214612023Y-109624761D01*
X214659642Y-109577142D01*
X214659642Y-109243809D01*
X214469166Y-109243809D01*
X215516785Y-109005714D02*
X215516785Y-109672380D01*
X215278690Y-108624761D02*
X215040595Y-109339047D01*
X215659642Y-109339047D01*
X214612023Y-111260000D02*
X214516785Y-111212380D01*
X214373928Y-111212380D01*
X214231071Y-111260000D01*
X214135833Y-111355238D01*
X214088214Y-111450476D01*
X214040595Y-111640952D01*
X214040595Y-111783809D01*
X214088214Y-111974285D01*
X214135833Y-112069523D01*
X214231071Y-112164761D01*
X214373928Y-112212380D01*
X214469166Y-112212380D01*
X214612023Y-112164761D01*
X214659642Y-112117142D01*
X214659642Y-111783809D01*
X214469166Y-111783809D01*
X215564404Y-111212380D02*
X215088214Y-111212380D01*
X215040595Y-111688571D01*
X215088214Y-111640952D01*
X215183452Y-111593333D01*
X215421547Y-111593333D01*
X215516785Y-111640952D01*
X215564404Y-111688571D01*
X215612023Y-111783809D01*
X215612023Y-112021904D01*
X215564404Y-112117142D01*
X215516785Y-112164761D01*
X215421547Y-112212380D01*
X215183452Y-112212380D01*
X215088214Y-112164761D01*
X215040595Y-112117142D01*
X124630380Y-81613333D02*
X125344666Y-81613333D01*
X125487523Y-81660952D01*
X125582761Y-81756190D01*
X125630380Y-81899047D01*
X125630380Y-81994285D01*
X124630380Y-81232380D02*
X124630380Y-80613333D01*
X125011333Y-80946666D01*
X125011333Y-80803809D01*
X125058952Y-80708571D01*
X125106571Y-80660952D01*
X125201809Y-80613333D01*
X125439904Y-80613333D01*
X125535142Y-80660952D01*
X125582761Y-80708571D01*
X125630380Y-80803809D01*
X125630380Y-81089523D01*
X125582761Y-81184761D01*
X125535142Y-81232380D01*
X124630380Y-77803333D02*
X125344666Y-77803333D01*
X125487523Y-77850952D01*
X125582761Y-77946190D01*
X125630380Y-78089047D01*
X125630380Y-78184285D01*
X124963714Y-76898571D02*
X125630380Y-76898571D01*
X124582761Y-77136666D02*
X125297047Y-77374761D01*
X125297047Y-76755714D01*
X149526666Y-113454380D02*
X149526666Y-114168666D01*
X149479047Y-114311523D01*
X149383809Y-114406761D01*
X149240952Y-114454380D01*
X149145714Y-114454380D01*
X150479047Y-113454380D02*
X150002857Y-113454380D01*
X149955238Y-113930571D01*
X150002857Y-113882952D01*
X150098095Y-113835333D01*
X150336190Y-113835333D01*
X150431428Y-113882952D01*
X150479047Y-113930571D01*
X150526666Y-114025809D01*
X150526666Y-114263904D01*
X150479047Y-114359142D01*
X150431428Y-114406761D01*
X150336190Y-114454380D01*
X150098095Y-114454380D01*
X150002857Y-114406761D01*
X149955238Y-114359142D01*
X107656380Y-70945333D02*
X108370666Y-70945333D01*
X108513523Y-70992952D01*
X108608761Y-71088190D01*
X108656380Y-71231047D01*
X108656380Y-71326285D01*
X108084952Y-70326285D02*
X108037333Y-70421523D01*
X107989714Y-70469142D01*
X107894476Y-70516761D01*
X107846857Y-70516761D01*
X107751619Y-70469142D01*
X107704000Y-70421523D01*
X107656380Y-70326285D01*
X107656380Y-70135809D01*
X107704000Y-70040571D01*
X107751619Y-69992952D01*
X107846857Y-69945333D01*
X107894476Y-69945333D01*
X107989714Y-69992952D01*
X108037333Y-70040571D01*
X108084952Y-70135809D01*
X108084952Y-70326285D01*
X108132571Y-70421523D01*
X108180190Y-70469142D01*
X108275428Y-70516761D01*
X108465904Y-70516761D01*
X108561142Y-70469142D01*
X108608761Y-70421523D01*
X108656380Y-70326285D01*
X108656380Y-70135809D01*
X108608761Y-70040571D01*
X108561142Y-69992952D01*
X108465904Y-69945333D01*
X108275428Y-69945333D01*
X108180190Y-69992952D01*
X108132571Y-70040571D01*
X108084952Y-70135809D01*
D15*
X156556626Y-67526124D02*
X156556626Y-68335960D01*
X156604263Y-68431235D01*
X156651901Y-68478873D01*
X156747175Y-68526510D01*
X156937725Y-68526510D01*
X157033000Y-68478873D01*
X157080637Y-68431235D01*
X157128275Y-68335960D01*
X157128275Y-67526124D01*
X157557012Y-67621399D02*
X157604649Y-67573762D01*
X157699924Y-67526124D01*
X157938111Y-67526124D01*
X158033386Y-67573762D01*
X158081023Y-67621399D01*
X158128661Y-67716674D01*
X158128661Y-67811949D01*
X158081023Y-67954861D01*
X157509374Y-68526510D01*
X158128661Y-68526510D01*
D14*
X122408380Y-82863333D02*
X123122666Y-82863333D01*
X123265523Y-82910952D01*
X123360761Y-83006190D01*
X123408380Y-83149047D01*
X123408380Y-83244285D01*
X122503619Y-82434761D02*
X122456000Y-82387142D01*
X122408380Y-82291904D01*
X122408380Y-82053809D01*
X122456000Y-81958571D01*
X122503619Y-81910952D01*
X122598857Y-81863333D01*
X122694095Y-81863333D01*
X122836952Y-81910952D01*
X123408380Y-82482380D01*
X123408380Y-81863333D01*
X140890666Y-64476380D02*
X140890666Y-65190666D01*
X140843047Y-65333523D01*
X140747809Y-65428761D01*
X140604952Y-65476380D01*
X140509714Y-65476380D01*
X141890666Y-65476380D02*
X141319238Y-65476380D01*
X141604952Y-65476380D02*
X141604952Y-64476380D01*
X141509714Y-64619238D01*
X141414476Y-64714476D01*
X141319238Y-64762095D01*
X146645333Y-80208380D02*
X146312000Y-79732190D01*
X146073904Y-80208380D02*
X146073904Y-79208380D01*
X146454857Y-79208380D01*
X146550095Y-79256000D01*
X146597714Y-79303619D01*
X146645333Y-79398857D01*
X146645333Y-79541714D01*
X146597714Y-79636952D01*
X146550095Y-79684571D01*
X146454857Y-79732190D01*
X146073904Y-79732190D01*
X147597714Y-80208380D02*
X147026285Y-80208380D01*
X147312000Y-80208380D02*
X147312000Y-79208380D01*
X147216761Y-79351238D01*
X147121523Y-79446476D01*
X147026285Y-79494095D01*
X146645333Y-83256380D02*
X146312000Y-82780190D01*
X146073904Y-83256380D02*
X146073904Y-82256380D01*
X146454857Y-82256380D01*
X146550095Y-82304000D01*
X146597714Y-82351619D01*
X146645333Y-82446857D01*
X146645333Y-82589714D01*
X146597714Y-82684952D01*
X146550095Y-82732571D01*
X146454857Y-82780190D01*
X146073904Y-82780190D01*
X147026285Y-82351619D02*
X147073904Y-82304000D01*
X147169142Y-82256380D01*
X147407238Y-82256380D01*
X147502476Y-82304000D01*
X147550095Y-82351619D01*
X147597714Y-82446857D01*
X147597714Y-82542095D01*
X147550095Y-82684952D01*
X146978666Y-83256380D01*
X147597714Y-83256380D01*
X152219066Y-67651380D02*
X152219066Y-68365666D01*
X152171447Y-68508523D01*
X152076209Y-68603761D01*
X151933352Y-68651380D01*
X151838114Y-68651380D01*
X153123828Y-67651380D02*
X152933352Y-67651380D01*
X152838114Y-67699000D01*
X152790495Y-67746619D01*
X152695257Y-67889476D01*
X152647638Y-68079952D01*
X152647638Y-68460904D01*
X152695257Y-68556142D01*
X152742876Y-68603761D01*
X152838114Y-68651380D01*
X153028590Y-68651380D01*
X153123828Y-68603761D01*
X153171447Y-68556142D01*
X153219066Y-68460904D01*
X153219066Y-68222809D01*
X153171447Y-68127571D01*
X153123828Y-68079952D01*
X153028590Y-68032333D01*
X152838114Y-68032333D01*
X152742876Y-68079952D01*
X152695257Y-68127571D01*
X152647638Y-68222809D01*
X192732066Y-64958980D02*
X192732066Y-65673266D01*
X192684447Y-65816123D01*
X192589209Y-65911361D01*
X192446352Y-65958980D01*
X192351114Y-65958980D01*
X193113019Y-64958980D02*
X193779685Y-64958980D01*
X193351114Y-65958980D01*
X219206380Y-81105333D02*
X219920666Y-81105333D01*
X220063523Y-81152952D01*
X220158761Y-81248190D01*
X220206380Y-81391047D01*
X220206380Y-81486285D01*
X220206380Y-80581523D02*
X220206380Y-80391047D01*
X220158761Y-80295809D01*
X220111142Y-80248190D01*
X219968285Y-80152952D01*
X219777809Y-80105333D01*
X219396857Y-80105333D01*
X219301619Y-80152952D01*
X219254000Y-80200571D01*
X219206380Y-80295809D01*
X219206380Y-80486285D01*
X219254000Y-80581523D01*
X219301619Y-80629142D01*
X219396857Y-80676761D01*
X219634952Y-80676761D01*
X219730190Y-80629142D01*
X219777809Y-80581523D01*
X219825428Y-80486285D01*
X219825428Y-80295809D01*
X219777809Y-80200571D01*
X219730190Y-80152952D01*
X219634952Y-80105333D01*
X219206380Y-86661523D02*
X219920666Y-86661523D01*
X220063523Y-86709142D01*
X220158761Y-86804380D01*
X220206380Y-86947238D01*
X220206380Y-87042476D01*
X220206380Y-85661523D02*
X220206380Y-86232952D01*
X220206380Y-85947238D02*
X219206380Y-85947238D01*
X219349238Y-86042476D01*
X219444476Y-86137714D01*
X219492095Y-86232952D01*
X219206380Y-85042476D02*
X219206380Y-84947238D01*
X219254000Y-84852000D01*
X219301619Y-84804380D01*
X219396857Y-84756761D01*
X219587333Y-84709142D01*
X219825428Y-84709142D01*
X220015904Y-84756761D01*
X220111142Y-84804380D01*
X220158761Y-84852000D01*
X220206380Y-84947238D01*
X220206380Y-85042476D01*
X220158761Y-85137714D01*
X220111142Y-85185333D01*
X220015904Y-85232952D01*
X219825428Y-85280571D01*
X219587333Y-85280571D01*
X219396857Y-85232952D01*
X219301619Y-85185333D01*
X219254000Y-85137714D01*
X219206380Y-85042476D01*
X219206380Y-96821523D02*
X219920666Y-96821523D01*
X220063523Y-96869142D01*
X220158761Y-96964380D01*
X220206380Y-97107238D01*
X220206380Y-97202476D01*
X220206380Y-95821523D02*
X220206380Y-96392952D01*
X220206380Y-96107238D02*
X219206380Y-96107238D01*
X219349238Y-96202476D01*
X219444476Y-96297714D01*
X219492095Y-96392952D01*
X220206380Y-94869142D02*
X220206380Y-95440571D01*
X220206380Y-95154857D02*
X219206380Y-95154857D01*
X219349238Y-95250095D01*
X219444476Y-95345333D01*
X219492095Y-95440571D01*
X219206380Y-91741523D02*
X219920666Y-91741523D01*
X220063523Y-91789142D01*
X220158761Y-91884380D01*
X220206380Y-92027238D01*
X220206380Y-92122476D01*
X220206380Y-90741523D02*
X220206380Y-91312952D01*
X220206380Y-91027238D02*
X219206380Y-91027238D01*
X219349238Y-91122476D01*
X219444476Y-91217714D01*
X219492095Y-91312952D01*
X219301619Y-90360571D02*
X219254000Y-90312952D01*
X219206380Y-90217714D01*
X219206380Y-89979619D01*
X219254000Y-89884380D01*
X219301619Y-89836761D01*
X219396857Y-89789142D01*
X219492095Y-89789142D01*
X219634952Y-89836761D01*
X220206380Y-90408190D01*
X220206380Y-89789142D01*
X203033333Y-83594380D02*
X202700000Y-83118190D01*
X202461904Y-83594380D02*
X202461904Y-82594380D01*
X202842857Y-82594380D01*
X202938095Y-82642000D01*
X202985714Y-82689619D01*
X203033333Y-82784857D01*
X203033333Y-82927714D01*
X202985714Y-83022952D01*
X202938095Y-83070571D01*
X202842857Y-83118190D01*
X202461904Y-83118190D01*
X203366666Y-82594380D02*
X203985714Y-82594380D01*
X203652380Y-82975333D01*
X203795238Y-82975333D01*
X203890476Y-83022952D01*
X203938095Y-83070571D01*
X203985714Y-83165809D01*
X203985714Y-83403904D01*
X203938095Y-83499142D01*
X203890476Y-83546761D01*
X203795238Y-83594380D01*
X203509523Y-83594380D01*
X203414285Y-83546761D01*
X203366666Y-83499142D01*
X203033333Y-88674380D02*
X202700000Y-88198190D01*
X202461904Y-88674380D02*
X202461904Y-87674380D01*
X202842857Y-87674380D01*
X202938095Y-87722000D01*
X202985714Y-87769619D01*
X203033333Y-87864857D01*
X203033333Y-88007714D01*
X202985714Y-88102952D01*
X202938095Y-88150571D01*
X202842857Y-88198190D01*
X202461904Y-88198190D01*
X203890476Y-88007714D02*
X203890476Y-88674380D01*
X203652380Y-87626761D02*
X203414285Y-88341047D01*
X204033333Y-88341047D01*
X203033333Y-98834380D02*
X202700000Y-98358190D01*
X202461904Y-98834380D02*
X202461904Y-97834380D01*
X202842857Y-97834380D01*
X202938095Y-97882000D01*
X202985714Y-97929619D01*
X203033333Y-98024857D01*
X203033333Y-98167714D01*
X202985714Y-98262952D01*
X202938095Y-98310571D01*
X202842857Y-98358190D01*
X202461904Y-98358190D01*
X203938095Y-97834380D02*
X203461904Y-97834380D01*
X203414285Y-98310571D01*
X203461904Y-98262952D01*
X203557142Y-98215333D01*
X203795238Y-98215333D01*
X203890476Y-98262952D01*
X203938095Y-98310571D01*
X203985714Y-98405809D01*
X203985714Y-98643904D01*
X203938095Y-98739142D01*
X203890476Y-98786761D01*
X203795238Y-98834380D01*
X203557142Y-98834380D01*
X203461904Y-98786761D01*
X203414285Y-98739142D01*
X203033333Y-93754380D02*
X202700000Y-93278190D01*
X202461904Y-93754380D02*
X202461904Y-92754380D01*
X202842857Y-92754380D01*
X202938095Y-92802000D01*
X202985714Y-92849619D01*
X203033333Y-92944857D01*
X203033333Y-93087714D01*
X202985714Y-93182952D01*
X202938095Y-93230571D01*
X202842857Y-93278190D01*
X202461904Y-93278190D01*
X203890476Y-92754380D02*
X203700000Y-92754380D01*
X203604761Y-92802000D01*
X203557142Y-92849619D01*
X203461904Y-92992476D01*
X203414285Y-93182952D01*
X203414285Y-93563904D01*
X203461904Y-93659142D01*
X203509523Y-93706761D01*
X203604761Y-93754380D01*
X203795238Y-93754380D01*
X203890476Y-93706761D01*
X203938095Y-93659142D01*
X203985714Y-93563904D01*
X203985714Y-93325809D01*
X203938095Y-93230571D01*
X203890476Y-93182952D01*
X203795238Y-93135333D01*
X203604761Y-93135333D01*
X203509523Y-93182952D01*
X203461904Y-93230571D01*
X203414285Y-93325809D01*
M02*
